<?xml version="1.0" standalone="no"?>
<!DOCTYPE svg PUBLIC "-//W3C//DTD SVG 20010904//EN"
 "http://www.w3.org/TR/2001/REC-SVG-20010904/DTD/svg10.dtd">
<svg version="1.0" xmlns="http://www.w3.org/2000/svg"
 width="600.000000pt" height="859.000000pt" viewBox="0 0 600.000000 859.000000"
 preserveAspectRatio="xMidYMid meet">
<g transform="translate(0.000000,859.000000) scale(0.100000,-0.100000)"
fill="#000000" stroke="none">
<path d="M1397 5883 c-9 -16 12 -109 38 -167 30 -67 122 -205 189 -284 25 -30
46 -56 46 -58 0 -3 -27 14 -60 36 -134 91 -318 160 -426 160 -72 0 -20 -69
125 -164 118 -77 239 -130 368 -159 98 -22 98 -22 28 -88 -63 -60 -79 -69
-165 -97 -106 -35 -230 -62 -397 -87 -104 -15 -117 -15 -177 0 -36 9 -70 14
-76 10 -18 -11 -11 -33 17 -55 24 -18 37 -21 93 -17 36 3 92 12 125 20 33 9
114 25 180 37 66 11 165 34 219 51 63 19 136 33 200 39 56 4 102 7 103 6 0 0
-17 -30 -38 -66 -58 -95 -79 -188 -79 -351 0 -91 19 -181 40 -194 16 -10 39
38 67 140 28 99 28 99 34 35 16 -158 70 -260 99 -185 19 50 32 246 28 435 -4
172 -7 202 -26 250 -27 69 -27 68 4 36 52 -51 123 -21 110 46 -4 18 -7 41 -7
50 0 22 -59 68 -86 68 -31 0 -57 -36 -55 -75 2 -32 1 -34 -20 -26 -26 9 -33
20 -48 83 -25 95 -172 316 -299 446 -48 49 -139 132 -146 132 -2 0 -6 -3 -8
-7z m191 -208 c99 -111 228 -319 248 -400 6 -25 -10 -13 -97 75 -148 150 -288
357 -315 467 -7 26 -3 24 52 -27 32 -30 83 -82 112 -115z m-307 -145 c105 -27
165 -54 334 -151 139 -80 231 -146 190 -136 -95 23 -254 71 -315 97 -117 50
-347 210 -301 210 7 0 49 -9 92 -20z m728 -244 c9 -11 5 -18 -22 -35 -43 -26
-47 -26 -47 2 0 42 44 63 69 33z m34 -67 c9 -32 -3 -49 -33 -49 -24 0 -60 25
-49 34 8 7 64 35 70 36 4 0 9 -9 12 -21z m-164 -15 c2 -2 2 -6 0 -8 -6 -5
-181 -86 -186 -86 -11 0 13 23 69 65 49 37 67 45 87 40 14 -4 28 -9 30 -11z
m24 -56 c-8 -32 -21 -47 -41 -47 -9 0 -44 -2 -77 -6 -60 -6 -60 -6 20 34 95
47 105 49 98 19z m48 -155 c10 -96 10 -161 1 -310 -17 -259 -26 -284 -58 -165
-15 51 -19 102 -19 217 0 148 21 351 37 361 4 3 8 15 8 27 1 18 2 19 9 7 5 -9
15 -70 22 -137z m-71 70 c0 -10 -5 -36 -10 -58 -6 -22 -15 -84 -20 -139 -10
-94 -55 -287 -81 -351 -12 -30 -12 -30 -26 15 -18 54 -11 221 12 318 12 52 59
156 98 220 12 18 27 15 27 -5z"/>
<path d="M3496 5770 c-14 -18 -26 -36 -26 -42 0 -6 -8 -4 -18 5 -10 10 -28 17
-41 17 -76 0 -41 -256 65 -464 19 -38 31 -73 27 -77 -7 -7 -170 96 -295 187
-75 54 -215 178 -264 232 -24 28 -45 42 -52 38 -20 -12 -14 -21 46 -82 116
-119 305 -264 480 -368 35 -21 61 -43 59 -50 -3 -7 -29 -10 -78 -9 -91 3 -202
-18 -269 -52 -69 -35 -169 -108 -166 -120 2 -6 47 -9 112 -9 95 2 123 6 218
37 60 20 105 32 100 28 -5 -5 -35 -27 -67 -50 -90 -66 -156 -168 -157 -244 0
-72 20 -60 221 137 190 187 190 187 213 154 15 -22 34 -36 60 -43 34 -8 40 -7
57 14 25 30 24 62 -2 95 -16 20 -29 26 -59 26 -34 0 -39 3 -44 28 -4 15 -2 61
4 102 22 168 2 364 -46 466 -35 75 -46 81 -78 44z m69 -92 c32 -102 47 -253
39 -386 -4 -56 -8 -101 -10 -99 -6 6 -81 275 -100 356 -9 41 -14 95 -12 122 5
50 32 104 48 94 5 -3 21 -42 35 -87z m-115 31 c6 -10 10 -42 10 -72 0 -58 30
-183 79 -339 17 -50 29 -94 27 -95 -27 -27 -127 196 -161 360 -17 80 -19 116
-5 151 10 28 34 26 50 -5z m109 -539 c10 -5 24 -23 31 -40 11 -27 17 -30 55
-30 25 0 48 -6 55 -14 18 -22 9 -60 -16 -64 -23 -3 -74 33 -74 52 0 7 -18 21
-40 31 -53 24 -66 40 -48 59 16 18 15 18 37 6z m-79 -50 c6 -11 17 -20 25 -20
8 0 15 -4 15 -8 0 -10 -89 -32 -128 -32 -14 0 -85 -15 -156 -34 -72 -19 -147
-36 -166 -37 -72 -4 -74 0 -23 35 109 75 174 97 313 106 52 4 98 7 102 8 4 1
12 -7 18 -18z m25 -92 c-33 -28 -115 -108 -183 -177 -124 -126 -124 -126 -119
-83 9 72 71 159 157 218 65 45 165 92 195 93 6 1 -17 -23 -50 -51z"/>
<path d="M2602 5758 c-19 -19 -14 -37 13 -50 21 -9 29 -9 41 4 13 12 14 20 5
37 -13 23 -40 28 -59 9z"/>
<path d="M2221 5632 c-14 -27 8 -55 40 -50 19 2 24 9 24 33 0 25 -4 31 -27 33
-18 2 -30 -3 -37 -16z"/>
<path d="M2425 5614 c-15 -15 -15 -18 1 -35 23 -26 61 -25 69 1 13 42 -37 66
-70 34z"/>
<path d="M4791 5534 c-27 -34 -21 -70 14 -99 14 -12 25 -23 25 -26 0 -4 -53
-4 -117 -1 -179 7 -442 -22 -459 -50 -20 -32 37 -102 98 -118 39 -11 180 -1
223 15 11 5 -27 -26 -85 -67 -58 -42 -116 -87 -129 -102 -25 -26 -25 -26 -4
-48 44 -44 131 -24 221 51 32 27 147 155 179 200 7 10 12 -9 19 -71 7 -67 7
-67 -39 -140 -41 -67 -134 -168 -197 -216 -49 -37 -134 -74 -170 -74 -45 1
-63 -10 -58 -34 6 -35 52 -28 143 22 151 84 244 175 328 319 19 33 44 68 55
78 20 18 20 18 15 -102 -5 -107 -3 -127 17 -192 23 -70 80 -149 109 -149 37 0
38 148 1 275 -11 38 -20 71 -20 73 0 2 23 -21 50 -51 70 -77 160 -119 174 -82
16 42 -107 243 -221 363 -57 61 -77 102 -49 102 27 0 56 38 56 74 0 41 -21 60
-69 63 -20 1 -48 5 -62 8 -21 5 -30 1 -48 -21z m63 -47 c-2 -44 -5 -50 -28
-41 -38 14 -26 90 13 82 12 -3 16 -14 15 -41z m85 19 c10 -11 9 -21 -4 -45
-19 -37 -51 -43 -41 -8 3 12 6 32 6 45 0 25 21 29 39 8z m-50 -192 c1 -29 -51
-124 -69 -124 -8 0 -20 50 -20 87 0 14 15 53 32 86 33 61 33 61 45 21 6 -21
12 -53 12 -70z m-89 57 c0 -19 -35 -34 -205 -87 -87 -27 -233 -27 -271 2 -30
22 -51 50 -43 58 22 22 519 48 519 27z m220 -177 c88 -119 147 -220 136 -231
-10 -11 -95 48 -136 94 -44 50 -80 112 -80 137 0 8 -9 23 -20 34 -17 16 -18
22 -8 55 6 20 13 37 14 37 1 0 44 -57 94 -126z m-371 14 c-126 -137 -196 -180
-257 -157 -26 10 -27 11 -7 24 11 8 62 45 113 82 99 73 210 143 225 143 5 0
-28 -41 -74 -92z m280 -101 c40 -145 61 -267 54 -312 -7 -42 -15 -44 -41 -7
-56 78 -76 174 -67 318 4 63 11 114 15 114 4 0 22 -51 39 -113z"/>
<path d="M3860 4845 c-20 -24 3 -67 32 -63 25 3 41 45 25 66 -13 17 -42 15
-57 -3z"/>
<path d="M490 4835 c-26 -31 18 -71 47 -42 19 19 8 57 -16 57 -10 0 -24 -7
-31 -15z"/>
<path d="M4011 4832 c-7 -14 -6 -24 4 -38 18 -25 50 -7 50 27 0 31 -39 39 -54
11z"/>
<path d="M1231 4787 c-17 -17 -13 -34 11 -51 27 -20 61 -4 56 27 -3 24 -50 41
-67 24z"/>
<path d="M773 4753 c-14 -5 -17 -31 -7 -57 8 -21 63 -21 70 -1 4 8 3 26 0 40
-6 24 -31 32 -63 18z"/>
<path d="M3712 4748 c-20 -20 -14 -58 10 -67 50 -18 107 30 78 64 -15 18 -71
20 -88 3z"/>
<path d="M282 4668 c-31 -31 0 -69 35 -43 14 11 16 18 7 31 -14 23 -27 27 -42
12z"/>
</g>
</svg>
