<?xml version="1.0" standalone="no"?>
<!DOCTYPE svg PUBLIC "-//W3C//DTD SVG 20010904//EN"
 "http://www.w3.org/TR/2001/REC-SVG-20010904/DTD/svg10.dtd">
<svg version="1.0" xmlns="http://www.w3.org/2000/svg"
 width="600.000000pt" height="322.000000pt" viewBox="0 0 600.000000 322.000000"
 preserveAspectRatio="xMidYMid meet">
<g transform="translate(0.000000,322.000000) scale(0.100000,-0.100000)"
fill="#000000" stroke="none">
<path d="M1510 3112 c0 -7 -6 -12 -13 -12 -7 0 -32 -41 -56 -91 -29 -62 -50
-93 -66 -99 -42 -16 -99 -129 -163 -327 -42 -127 -49 -178 -26 -191 18 -10 18
-13 1 -79 -32 -125 -72 -372 -92 -573 -8 -74 -19 -178 -24 -230 -6 -52 -11
-174 -12 -271 -1 -179 -6 -205 -30 -197 -11 4 -13 45 -11 219 4 227 21 317 23
118 1 -62 4 -105 6 -94 12 46 -9 430 -22 411 -17 -23 -45 -144 -52 -231 -7
-82 -21 -64 -22 30 -1 33 -8 116 -16 185 -9 69 -20 167 -25 218 -6 51 -15 124
-21 163 -9 62 -9 72 6 82 25 19 28 104 11 294 -17 186 -26 222 -55 230 -21 5
-36 104 -29 192 2 29 -1 45 -9 48 -10 4 -13 -26 -13 -126 0 -131 0 -132 -25
-141 -24 -9 -25 -14 -25 -87 0 -207 38 -398 83 -421 22 -11 26 -21 32 -85 3
-39 12 -119 20 -177 7 -58 16 -141 20 -185 3 -44 13 -132 21 -197 9 -64 14
-124 12 -135 -4 -17 -13 31 -38 202 -14 92 -32 131 -94 199 -55 60 -75 54 -42
-12 71 -141 139 -384 150 -532 l5 -75 -13 55 c-8 30 -20 88 -26 128 -7 40 -15
71 -18 68 -5 -6 7 -91 28 -199 31 -157 1 -100 -61 116 -28 95 -59 206 -70 247
-96 348 -130 428 -249 578 -81 103 -190 205 -190 178 0 -2 22 -36 48 -77 57
-86 64 -99 131 -242 28 -59 72 -142 97 -185 26 -42 57 -115 71 -162 27 -92 86
-250 128 -345 29 -63 66 -168 61 -172 -10 -11 -66 75 -132 202 -85 162 -123
212 -193 252 -25 14 -62 41 -81 59 -19 17 -69 46 -110 64 -41 17 -81 34 -88
37 -6 3 -12 -2 -12 -10 0 -8 22 -24 49 -36 27 -11 75 -43 108 -71 55 -47 82
-63 68 -39 -16 25 94 -43 131 -83 45 -46 114 -169 77 -136 -42 38 -32 15 28
-62 68 -88 72 -106 14 -60 -85 68 -287 88 -382 38 -49 -26 -73 -52 -73 -77 0
-17 30 -13 37 4 12 34 83 51 225 57 58 2 132 -43 221 -136 73 -77 94 -113 69
-119 -18 -5 38 -10 76 -7 12 1 22 -3 22 -8 0 -6 57 -9 146 -8 80 0 135 -2 122
-6 -36 -10 2 -9 102 1 159 17 326 23 310 11 -11 -9 -5 -10 28 -6 96 14 167 17
152 8 -8 -5 -51 -13 -95 -17 -92 -8 -284 -39 -335 -55 -42 -12 -43 -12 -36 -1
10 15 -58 -13 -88 -36 -16 -13 -33 -23 -37 -23 -5 0 -9 -6 -9 -14 0 -9 -24
-15 -87 -19 -156 -10 -408 -80 -441 -122 -23 -29 -85 -49 -128 -41 -21 4 -34
3 -34 -4 0 -5 8 -10 18 -11 29 -2 86 2 102 6 9 3 20 -6 28 -22 9 -20 9 -24 0
-15 -16 16 -28 15 -28 -3 0 -7 8 -19 18 -24 27 -16 -27 -14 -58 2 -14 8 -48
19 -75 26 -27 7 -53 17 -56 23 -4 6 -12 7 -18 3 -19 -11 6 -34 48 -41 20 -4
52 -13 71 -20 19 -7 89 -18 154 -23 80 -7 124 -15 136 -26 9 -9 44 -17 81 -20
35 -3 87 -9 114 -15 28 -5 100 -9 160 -8 61 1 133 0 160 -2 28 -2 66 0 85 5
32 7 34 6 20 -10 -13 -16 -31 -17 -180 -13 -172 5 -180 4 -65 -11 l70 -8 -55
-1 c-80 -2 -302 15 -324 24 -16 6 -18 4 -13 -9 4 -10 1 -17 -6 -17 -7 0 -6 -4
3 -9 16 -9 210 -31 277 -31 23 0 43 -4 45 -10 2 -5 46 -13 98 -17 78 -5 90 -8
67 -16 -19 -6 -26 -14 -23 -24 5 -12 1 -14 -16 -10 -56 13 -124 18 -98 6 14
-6 57 -13 95 -15 39 -2 111 -8 160 -14 140 -17 287 -24 438 -24 78 1 133 -3
125 -7 -7 -5 -44 -9 -83 -10 -38 -1 -101 -5 -140 -9 -64 -6 -60 -7 55 -9 188
-3 561 -1 595 4 41 5 193 14 360 21 129 5 171 13 148 27 -5 3 -27 2 -49 -3
-21 -5 -59 -9 -84 -9 l-45 0 35 12 c41 14 51 46 20 65 -22 13 -27 3 -8 -16 20
-20 -3 -32 -106 -52 -133 -27 -181 -27 -111 0 28 11 62 20 77 20 62 0 105 43
59 58 -10 3 -12 0 -8 -11 8 -22 -49 -39 -76 -23 -14 9 -20 7 -28 -6 -6 -11
-40 -22 -106 -34 -53 -9 -108 -23 -122 -30 -14 -8 -44 -13 -66 -12 -40 1 -40
1 -5 5 19 3 46 13 61 24 15 10 40 19 56 19 48 0 124 33 146 64 20 28 20 29 2
62 -23 42 -114 90 -197 104 -31 5 -67 14 -78 20 -12 6 -60 11 -108 10 -77 -1
-214 4 -250 8 -7 1 -10 7 -6 14 5 8 -4 9 -33 5 -47 -8 -61 1 -33 20 42 30 13
74 -70 107 -25 10 -54 23 -66 28 -11 5 -24 8 -30 7 -5 -1 -25 5 -44 14 l-35
16 68 1 c43 0 66 -4 62 -10 -4 -6 26 -10 82 -9 55 0 80 3 68 8 -11 5 -35 6
-52 3 -56 -8 -36 6 24 18 73 16 214 19 210 5 -2 -5 -24 -13 -48 -17 -105 -17
-108 -26 -9 -27 52 -1 139 -3 193 -5 82 -4 96 -2 87 9 -8 10 3 8 37 -5 26 -10
68 -23 93 -28 51 -11 -69 -6 -165 6 -27 4 -144 5 -260 2 -115 -3 -176 -7 -135
-8 42 -1 81 -7 87 -13 6 -6 44 -12 84 -14 50 -2 60 -1 29 4 -95 13 -15 22 140
15 184 -8 225 -24 62 -24 -60 0 -112 -3 -115 -7 -8 -7 -242 -4 -263 4 -8 3
-14 1 -14 -5 0 -23 91 -35 218 -28 105 6 133 4 157 -8 35 -18 211 -23 200 -6
-3 6 -23 10 -44 10 -80 0 -169 14 -136 21 43 10 316 9 285 -1 -16 -5 6 -8 65
-8 58 0 79 3 60 8 -23 5 -11 8 50 12 44 3 94 8 110 10 117 20 445 32 445 17 0
-6 19 -8 48 -4 136 18 198 29 212 37 10 6 2 7 -25 3 -123 -17 -132 -17 -105
-1 31 19 21 19 -55 1 -33 -8 -85 -15 -115 -14 l-55 0 60 25 c78 32 91 45 75
74 -10 18 -9 24 1 31 16 10 19 7 -56 52 -57 34 -218 78 -233 63 -10 -10 1 -14
91 -35 96 -21 175 -64 157 -86 -6 -8 -6 -15 2 -23 10 -10 8 -17 -8 -32 -20
-20 -132 -65 -141 -56 -3 2 23 14 56 26 33 13 66 30 73 38 11 14 10 15 -7 8
-161 -66 -249 -79 -353 -52 -29 7 -55 9 -58 4 -3 -4 10 -11 28 -15 l33 -7 -30
-7 c-41 -9 -341 -11 -401 -2 -45 6 -46 8 -19 13 22 4 3 10 -70 19 -111 15
-138 27 -109 48 17 12 17 13 -1 13 -25 0 -14 10 16 15 85 13 153 14 122 2 -51
-20 -49 -26 5 -11 27 8 77 20 111 27 69 14 77 30 16 34 -49 3 -137 20 -112 22
9 0 17 5 17 9 0 5 19 17 43 26 23 10 36 20 29 23 -8 3 12 23 50 51 62 45 65
63 6 43 -17 -6 -46 -11 -65 -11 l-35 0 34 41 c82 100 88 129 28 129 -44 0 -54
-14 -16 -24 35 -9 25 -33 -42 -104 -88 -92 -125 -104 -105 -34 5 20 12 44 14
52 3 10 -2 14 -13 12 -52 -9 27 60 85 73 15 4 27 11 27 16 0 16 -44 10 -78
-11 -18 -11 -35 -20 -37 -20 -10 0 -4 81 7 100 23 36 3 38 -73 6 -11 -5 -20 4
-32 29 -21 44 -29 44 -79 -2 -47 -45 -78 -101 -78 -142 0 -52 -9 -65 -31 -45
-37 33 -20 -8 22 -53 59 -64 75 -106 52 -138 -22 -30 -27 -30 -69 -4 -39 24
-54 46 -55 86 -1 27 -1 27 -8 4 l-7 -25 -22 28 c-19 25 -22 39 -20 116 l3 88
30 -21 c17 -11 45 -34 64 -51 l33 -31 -16 32 c-8 17 -32 41 -52 53 -45 29 -42
67 12 120 35 34 36 34 49 15 34 -49 44 -60 50 -54 9 10 -48 98 -64 99 -20 0
-91 -81 -98 -112 -4 -22 -9 -26 -23 -18 -24 13 -31 3 -19 -27 12 -33 11 -37
-5 -24 -12 10 -121 50 -138 51 -13 0 -9 -22 16 -98 l23 -72 -23 -6 c-13 -3
-37 -21 -52 -39 l-29 -32 -199 -7 c-109 -3 -238 -9 -286 -12 -51 -4 -88 -3
-88 3 0 11 -5 10 214 17 103 3 184 10 190 16 7 7 -12 10 -62 10 -43 0 -72 4
-72 10 0 7 -31 8 -91 4 -91 -7 -91 -7 -80 14 11 21 18 22 214 24 l202 2 -194
6 -193 5 22 20 c12 11 42 45 65 75 23 30 54 62 69 69 14 8 26 20 26 27 0 14
80 74 123 92 26 11 37 32 17 32 -23 0 -126 -63 -171 -105 -27 -25 -53 -45 -59
-45 -19 0 -99 -81 -147 -149 -25 -36 -49 -70 -54 -74 -23 -27 34 170 70 240
49 97 275 299 410 367 30 16 60 40 69 56 9 17 30 34 46 40 23 8 27 13 18 22
-8 8 -22 7 -54 -7 -24 -9 -72 -28 -107 -41 -146 -53 -327 -231 -398 -392 -56
-128 -114 -244 -120 -239 -7 8 52 184 103 306 84 198 318 507 426 562 20 10
39 23 42 28 11 18 -15 23 -33 7 -10 -9 -23 -16 -30 -16 -12 0 -112 -72 -188
-136 -76 -63 -323 -574 -328 -678 -3 -71 -22 -146 -35 -146 -15 0 -12 19 10
78 25 66 25 90 -1 37 -24 -51 -22 -32 15 140 115 536 311 905 558 1054 32 19
60 41 62 48 9 23 -27 14 -84 -22 -30 -19 -78 -48 -107 -65 -95 -57 -179 -179
-238 -347 -11 -29 -22 -53 -26 -53 -16 0 -123 -169 -151 -239 -19 -47 -38
-124 -50 -205 -11 -72 -26 -151 -33 -176 l-13 -45 -1 57 c-1 61 22 344 38 463
6 39 13 97 16 130 8 81 31 207 61 341 24 102 29 115 68 156 51 54 120 192 166
328 28 84 31 105 16 125 -11 16 -22 19 -75 24 -11 1 -12 4 -3 13 8 8 15 8 26
-1 18 -15 76 77 76 120 0 15 7 29 14 32 23 9 50 67 37 80 -8 8 -11 8 -11 -1z
m-104 -312 c-8 -51 -53 -165 -111 -280 -41 -82 -47 -89 -65 -80 -23 13 -26 26
-6 33 16 6 62 133 58 160 -1 10 5 31 13 47 8 16 14 33 13 37 -2 7 4 26 32 98
5 14 18 21 40 23 l33 3 -7 -41z m34 5 c0 -3 -2 -5 -5 -5 -3 0 -5 2 -5 5 0 3 2
5 5 5 3 0 5 -2 5 -5z m-19 -52 c-12 -20 -14 -14 -5 12 4 9 9 14 11 11 3 -2 0
-13 -6 -23z m-20 -60 c-12 -20 -14 -14 -5 12 4 9 9 14 11 11 3 -2 0 -13 -6
-23z m-30 -74 c-11 -24 -20 -41 -20 -37 -1 12 31 89 35 85 3 -2 -4 -24 -15
-48z m-511 11 c10 -19 10 -20 -9 -8 -22 13 -28 28 -11 28 5 0 14 -9 20 -20z
m400 15 c0 -3 -2 -5 -5 -5 -3 0 -5 2 -5 5 0 3 2 5 5 5 3 0 5 -2 5 -5z m-470
-29 c0 -3 -5 -8 -12 -12 -7 -4 -8 -3 -4 4 7 12 16 16 16 8z m460 -1 c0 -3 -2
-5 -5 -5 -3 0 -5 2 -5 5 0 3 2 5 5 5 3 0 5 -2 5 -5z m-382 -200 c10 -122 11
-183 4 -198 -9 -21 -10 -20 -15 13 -4 19 -10 58 -15 85 l-10 50 -2 -40 c-2
-43 -39 173 -40 233 0 34 34 60 54 41 5 -4 16 -87 24 -184z m372 180 c0 -3 -2
-5 -5 -5 -3 0 -5 2 -5 5 0 3 2 5 5 5 3 0 5 -2 5 -5z m-10 -30 c0 -3 -2 -5 -5
-5 -3 0 -5 2 -5 5 0 3 2 5 5 5 3 0 5 -2 5 -5z m120 0 c0 -3 -2 -5 -5 -5 -3 0
-5 2 -5 5 0 3 2 5 5 5 3 0 5 -2 5 -5z m-463 -157 c-3 -7 -5 -2 -5 12 0 14 2
19 5 13 2 -7 2 -19 0 -25z m310 5 c-4 -3 -7 0 -7 7 0 7 3 10 7 7 3 -4 3 -10 0
-14z m60 -10 c-4 -3 -10 -3 -14 0 -3 4 0 7 7 7 7 0 10 -3 7 -7z m-360 -105
c-3 -7 -5 -2 -5 12 0 14 2 19 5 13 2 -7 2 -19 0 -25z m-60 -40 c-3 -8 -6 -5
-6 6 -1 11 2 17 5 13 3 -3 4 -12 1 -19z m696 -55 c-32 -37 -69 -85 -82 -106
-33 -53 -38 -39 -7 20 26 53 131 171 142 161 3 -4 -20 -37 -53 -75z m-703 2
c0 -3 -2 -5 -5 -5 -3 0 -5 2 -5 5 0 3 2 5 5 5 3 0 5 -2 5 -5z m-277 -175 c82
-126 95 -155 157 -372 60 -205 55 -201 -35 32 -31 80 -64 164 -73 188 -9 23
-24 42 -32 42 -13 1 -80 130 -109 212 -20 55 14 17 92 -102z m867 15 c0 -3 -2
-5 -5 -5 -3 0 -5 2 -5 5 0 3 2 5 5 5 3 0 5 -2 5 -5z m123 -192 c-21 -27 -59
-75 -83 -108 -64 -87 -67 -88 -25 -7 25 48 56 88 89 118 64 56 67 55 19 -3z
m-253 -28 c0 -3 -2 -5 -5 -5 -3 0 -5 2 -5 5 0 3 2 5 5 5 3 0 5 -2 5 -5z m-46
-102 c-59 -153 -121 -429 -131 -581 -5 -83 -20 -123 -37 -101 -6 8 12 148 28
219 9 41 23 123 32 182 20 143 54 246 106 321 30 42 30 33 2 -40z m536 17 c-6
-11 -30 -29 -53 -41 -23 -12 -70 -41 -104 -65 -38 -28 -63 -39 -65 -32 -5 15
-81 -46 -130 -104 -64 -77 -79 -93 -71 -76 15 30 116 142 178 196 68 61 146
104 253 141 1 1 -2 -8 -8 -19z m-919 -95 c9 -22 25 -94 33 -160 9 -66 23 -145
31 -175 16 -60 32 -229 21 -218 -4 3 -11 46 -16 95 -12 128 -65 361 -105 461
l-35 85 26 -24 c15 -13 35 -42 45 -64z m-436 -15 c10 -11 16 -20 13 -20 -3 0
-13 9 -23 20 -10 11 -16 20 -13 20 3 0 13 -9 23 -20z m584 -243 c-4 -115 -9
-211 -12 -213 -9 -9 -20 188 -14 260 5 62 26 172 32 164 1 -2 -2 -97 -6 -211z
m198 166 c-4 -3 -7 0 -7 7 0 7 3 10 7 7 3 -4 3 -10 0 -14z m313 4 c0 -1 -24
-25 -52 -52 l-53 -50 50 53 c46 48 55 57 55 49z m-763 -74 c-4 -3 -7 0 -7 7 0
7 3 10 7 7 3 -4 3 -10 0 -14z m1573 -259 l0 -93 -46 -46 c-25 -25 -48 -45 -50
-45 -13 0 -2 99 11 104 18 6 20 -16 4 -45 -6 -11 -8 -25 -6 -32 5 -16 37 46
37 72 0 26 -17 36 -35 21 -8 -6 -18 -9 -23 -6 -5 3 -12 -8 -16 -25 -3 -18 -10
-28 -16 -24 -7 4 -7 11 -2 18 5 7 10 30 11 51 3 53 26 99 68 136 52 46 63 30
63 -86z m78 19 c2 -43 -3 -66 -18 -90 -23 -38 -45 -44 -36 -10 3 12 6 50 6 84
0 61 1 63 40 72 3 0 7 -25 8 -56z m-1975 40 c-7 -2 -19 -2 -25 0 -7 3 -2 5 12
5 14 0 19 -2 13 -5z m252 -43 c19 -12 35 -23 35 -25 0 -5 -119 51 -127 59 -13
13 60 -15 92 -34z m728 -31 c-26 -33 -61 -68 -76 -76 l-29 -15 18 32 c16 26
117 120 130 120 2 0 -17 -27 -43 -61z m584 4 c22 -15 25 -22 20 -61 -3 -25 -1
-58 4 -74 l8 -29 -42 23 c-42 23 -77 76 -92 142 l-6 29 41 -7 c23 -3 53 -14
67 -23z m-1233 -67 c28 -43 18 -42 -29 4 -25 24 -45 48 -45 53 0 13 56 -30 74
-57z m221 -23 c4 -43 9 -86 11 -95 3 -10 1 -18 -4 -18 -5 0 -13 35 -16 78 -4
42 -10 85 -12 95 -3 9 -1 17 4 17 6 0 13 -35 17 -77z m259 15 c-17 -71 -41
-108 -30 -46 7 38 33 108 40 108 2 0 -2 -28 -10 -62z m1165 -80 c-27 -88 -78
-128 -161 -128 -18 0 -18 2 -4 22 9 12 13 32 10 44 -11 42 88 115 167 123 4 1
-2 -27 -12 -61z m-1551 27 c-3 -3 -9 2 -12 12 -6 14 -5 15 5 6 7 -7 10 -15 7
-18z m452 21 c0 -3 -5 -8 -12 -12 -7 -4 -8 -3 -4 4 7 12 16 16 16 8z m-115
-46 c-4 -19 -3 -30 4 -30 6 0 11 -4 11 -10 0 -6 -40 -10 -100 -10 -55 0 -100
4 -100 8 0 5 34 8 75 7 l76 -1 16 33 c19 41 27 42 18 3z m785 -10 c38 -22 73
-40 78 -40 5 0 17 -11 25 -24 l16 -24 -58 -7 c-68 -8 -146 14 -189 54 l-26 24
32 28 c41 37 40 37 122 -11z m-1070 -6 c0 -8 -4 -12 -10 -9 -5 3 -10 13 -10
21 0 8 5 12 10 9 6 -3 10 -13 10 -21z m400 11 c0 -3 -2 -5 -5 -5 -3 0 -5 2 -5
5 0 3 2 5 5 5 3 0 5 -2 5 -5z m1239 -48 c-80 -53 -112 -67 -150 -67 l-31 0 19
26 c27 37 118 78 177 82 l50 2 -65 -43z m-1665 18 c4 -10 -1 -15 -15 -15 -17
0 -18 2 -7 15 16 18 15 18 22 0z m84 -3 c2 -7 -3 -12 -12 -12 -9 0 -16 7 -16
16 0 17 22 14 28 -4z m-48 -7 c0 -3 -2 -5 -5 -5 -3 0 -5 2 -5 5 0 3 2 5 5 5 3
0 5 -2 5 -5z m901 -10 c1 -17 -18 -17 -25 0 -4 11 -1 15 10 13 8 -2 15 -7 15
-13z m-29 -56 c-24 -4 -55 -14 -70 -21 -22 -11 -32 -11 -52 -1 -14 7 -34 13
-45 14 -51 3 48 17 125 17 74 0 79 -1 42 -9z m358 -24 l25 -13 -28 -11 c-21
-8 -46 -8 -95 1 -65 12 -65 12 -36 25 39 16 103 16 134 -2z m-525 -7 c23 -7
93 -10 168 -9 87 2 127 0 127 -8 0 -7 22 -11 57 -11 80 0 55 -21 -34 -30 -63
-6 -69 -13 -18 -22 36 -7 -160 -28 -251 -27 -86 0 -88 1 -49 13 58 18 85 35
85 51 0 21 -23 19 -37 -3 -6 -11 -32 -25 -57 -32 -27 -7 -43 -17 -39 -23 8
-13 -217 -1 -307 17 l-65 13 57 7 c32 5 55 12 52 17 -3 5 -17 7 -32 3 -22 -4
-24 -3 -10 6 57 36 277 60 353 38z m761 -8 c-17 -6 -36 -5 -45 0 -11 7 -3 9
29 9 42 -1 43 -1 16 -9z m-146 -40 c0 -39 21 -57 33 -27 3 6 6 -1 6 -16 1 -29
-6 -29 -41 1 -19 16 -25 82 -8 82 6 0 10 -18 10 -40z m60 -5 c0 -3 -2 -5 -5
-5 -3 0 -5 2 -5 5 0 3 2 5 5 5 3 0 5 -2 5 -5z m-183 -37 c-21 -7 -32 -7 -40 1
-8 8 0 11 29 10 39 -1 39 -1 11 -11z m-717 -36 l55 -9 -32 -14 c-36 -15 -43
-29 -14 -29 10 0 31 12 46 26 27 25 33 26 104 21 124 -9 145 -26 34 -26 -145
-1 -109 -19 45 -23 110 -2 143 -6 165 -20 14 -10 32 -18 39 -18 7 0 19 -9 26
-20 7 -11 19 -20 27 -20 27 0 16 -19 -20 -34 -19 -8 -35 -20 -35 -25 0 -6 -14
-11 -31 -11 -44 0 -258 -39 -281 -51 -24 -13 -138 -16 -195 -5 l-42 9 22 18
c16 13 18 18 7 18 -20 0 -50 -23 -50 -39 0 -8 -17 -11 -57 -9 -32 1 -65 -1
-73 -5 -28 -12 -285 36 -340 64 -30 15 -52 20 -75 16 -26 -5 -39 -1 -61 17
l-28 24 22 30 c30 43 93 66 169 64 34 -1 64 3 68 9 3 6 -4 10 -17 11 -26 1 50
24 127 38 57 11 312 6 395 -7z m793 11 c-7 -2 -21 -2 -30 0 -10 3 -4 5 12 5
17 0 24 -2 18 -5z m83 -18 c17 -13 9 -14 -81 -14 -109 1 -112 5 -14 18 35 5
67 9 70 10 3 0 14 -6 25 -14z m711 -42 c-4 -3 -10 -3 -14 0 -3 4 0 7 7 7 7 0
10 -3 7 -7z m430 -10 c-4 -3 -10 -3 -14 0 -3 4 0 7 7 7 7 0 10 -3 7 -7z m23 2
c0 -3 -2 -5 -5 -5 -3 0 -5 2 -5 5 0 3 2 5 5 5 3 0 5 -2 5 -5z m-850 -20 c0 -3
-2 -5 -5 -5 -3 0 -5 2 -5 5 0 3 2 5 5 5 3 0 5 -2 5 -5z m-503 -41 c-3 -3 -12
-4 -19 -1 -8 3 -5 6 6 6 11 1 17 -2 13 -5z m33 1 c0 -3 -2 -5 -5 -5 -3 0 -5 2
-5 5 0 3 2 5 5 5 3 0 5 -2 5 -5z m-1430 -100 c0 -3 -2 -5 -5 -5 -3 0 -5 2 -5
5 0 3 2 5 5 5 3 0 5 -2 5 -5z m1370 -24 c63 -6 139 -8 169 -5 53 7 79 1 243
-47 99 -29 161 -89 93 -89 -13 0 -27 -4 -30 -10 -4 -6 6 -10 22 -10 27 -1 27
-1 9 -15 -11 -8 -29 -15 -41 -15 -12 0 -25 -4 -31 -10 -14 -14 -124 -25 -124
-12 0 6 -12 11 -27 11 -54 -1 -120 22 -148 52 -25 26 -55 39 -55 24 0 -18 73
-75 104 -80 20 -4 34 -11 31 -15 -13 -20 -336 -30 -343 -10 -5 13 -62 13 -62
0 0 -5 5 -10 12 -10 6 0 8 -3 5 -7 -4 -3 -24 -1 -44 5 -21 5 -90 18 -153 27
-122 18 -231 52 -210 65 17 10 3 30 -21 30 -56 0 2 60 66 68 25 2 51 12 58 21
7 9 23 17 37 18 14 2 61 9 105 17 83 15 138 14 335 -3z m-1190 -16 c0 -3 -2
-5 -5 -5 -3 0 -5 2 -5 5 0 3 2 5 5 5 3 0 5 -2 5 -5z m480 -15 c0 -5 -7 -7 -15
-4 -8 4 -15 8 -15 10 0 2 7 4 15 4 8 0 15 -4 15 -10z m-443 -67 c-4 -3 -10 -3
-14 0 -3 4 0 7 7 7 7 0 10 -3 7 -7z m415 -22 c24 -9 -275 -5 -342 4 -30 4 -57
9 -58 10 -7 6 383 -8 400 -14z m124 -36 c23 -25 23 -25 2 -25 -31 0 -14 -13
45 -32 l52 -17 -79 5 c-101 8 -136 19 -88 30 18 3 30 9 27 12 -2 3 0 11 6 19
9 10 8 13 0 13 -7 0 -9 5 -6 10 9 15 15 13 41 -15z m-71 5 c-3 -5 -29 -10 -56
-10 -31 0 -48 4 -44 10 3 6 29 10 56 10 31 0 48 -4 44 -10z m943 -97 c-10 -2
-26 -2 -35 0 -10 3 -2 5 17 5 19 0 27 -2 18 -5z m62 -3 c0 -5 -7 -10 -15 -10
-8 0 -15 5 -15 10 0 6 7 10 15 10 8 0 15 -4 15 -10z m-75 -21 c-16 -3 -52 -7
-80 -6 -27 0 -39 2 -25 4 14 3 28 8 32 11 4 4 29 5 55 3 44 -4 45 -5 18 -12z"/>
<path d="M1698 823 c6 -2 18 -2 25 0 6 3 1 5 -13 5 -14 0 -19 -2 -12 -5z"/>
<path d="M1095 790 c-4 -6 7 -10 27 -9 27 0 30 2 13 9 -27 12 -33 12 -40 0z"/>
<path d="M1339 736 c-2 -3 -94 -14 -204 -26 -198 -21 -336 -46 -190 -34 39 3
84 7 100 10 17 2 89 8 160 14 138 10 175 17 175 31 0 9 -33 13 -41 5z"/>
<path d="M1410 706 c0 -7 -10 -25 -21 -40 -29 -37 -13 -48 17 -13 24 28 32 67
14 67 -5 0 -10 -6 -10 -14z"/>
<path d="M1830 510 c20 -13 53 -13 45 0 -3 6 -18 10 -33 10 -21 0 -24 -2 -12
-10z"/>
<path d="M1620 500 c0 -5 13 -10 29 -10 17 0 33 5 36 10 4 6 -8 10 -29 10 -20
0 -36 -4 -36 -10z"/>
<path d="M1948 473 c-63 -7 -43 -23 28 -23 58 0 65 2 54 15 -7 8 -20 14 -29
13 -9 -1 -33 -3 -53 -5z"/>
<path d="M2055 460 c-7 -12 53 -12 135 0 52 7 49 7 -37 9 -52 0 -94 -3 -98 -9z"/>
<path d="M2350 460 c0 -5 12 -10 26 -10 14 0 23 4 19 10 -3 6 -15 10 -26 10
-10 0 -19 -4 -19 -10z"/>
<path d="M1720 418 c-25 -6 -39 -13 -32 -15 20 -8 102 7 102 18 0 11 -10 10
-70 -3z"/>
<path d="M810 2955 c0 -3 2 -5 5 -5 3 0 5 2 5 5 0 3 -2 5 -5 5 -3 0 -5 -2 -5
-5z"/>
<path d="M3424 2948 c-4 -7 -3 -8 4 -4 7 4 12 9 12 12 0 8 -9 4 -16 -8z"/>
<path d="M3315 2899 c-25 -23 -45 -45 -45 -50 0 -4 -11 -20 -25 -35 l-25 -27
20 45 c21 49 18 78 -9 78 -37 -1 -79 -64 -115 -177 -13 -40 -21 -51 -33 -46
-11 4 -14 2 -9 -5 13 -21 -12 -13 -126 38 -103 45 -128 52 -128 31 0 -12 87
-55 173 -86 87 -31 89 -34 45 -60 -85 -50 -182 -165 -159 -188 12 -12 16 -10
80 32 23 15 24 15 12 -7 -29 -53 12 -80 55 -37 24 25 104 181 104 204 0 18 36
12 55 -9 24 -26 105 -17 105 12 0 13 -49 40 -60 33 -6 -4 -24 -3 -41 0 l-31 7
95 89 c92 86 147 165 132 189 -11 17 -24 11 -70 -31z m30 -26 c-33 -50 -86
-110 -133 -149 l-46 -38 49 63 c98 125 185 209 130 124z m-115 -6 c0 -23 -55
-123 -95 -173 -31 -38 -26 -9 17 86 47 106 78 140 78 87z m-10 -91 c0 -3 -5
-8 -12 -12 -7 -4 -8 -3 -4 4 7 12 16 16 16 8z m-130 -166 c-29 -55 -190 -192
-190 -163 0 18 64 85 128 132 77 58 76 58 62 31z m10 -45 c0 -3 -2 -5 -5 -5
-3 0 -5 2 -5 5 0 3 2 5 5 5 3 0 5 -2 5 -5z m-17 -30 c-3 -9 -8 -14 -10 -11 -3
3 -2 9 2 15 9 16 15 13 8 -4z m-36 -67 c-39 -67 -86 -84 -53 -19 13 24 47 52
75 60 1 1 -8 -18 -22 -41z"/>
<path d="M4623 2824 c-12 -32 6 -122 38 -190 18 -38 33 -74 34 -80 0 -6 7 -20
15 -30 13 -15 10 -15 -15 3 -83 58 -225 206 -225 235 0 43 123 -69 158 -144
21 -45 38 -65 48 -55 6 5 -45 92 -83 143 -46 62 -130 103 -148 74 -18 -28 76
-137 208 -242 50 -39 48 -50 -4 -23 -28 15 -30 15 -39 -11 -11 -28 -6 -44 15
-44 7 0 16 -7 19 -16 5 -14 10 -14 41 5 40 23 34 27 114 -75 60 -78 89 -103
123 -107 28 -3 37 33 13 53 -25 21 -17 32 13 16 69 -36 142 -41 142 -10 0 16
-37 35 -184 95 l-109 44 142 16 c135 16 177 28 152 43 -6 4 -75 -1 -153 -10
-101 -11 -143 -13 -146 -5 -2 6 -9 11 -16 11 -7 0 -23 46 -39 118 -32 136 -60
202 -88 202 -11 0 -22 -7 -26 -16z m76 -112 c59 -198 54 -235 -12 -94 -37 79
-56 151 -49 187 7 32 38 -15 61 -93z m159 -338 c77 -71 96 -107 43 -80 -24 13
-63 54 -120 129 -30 38 10 13 77 -49z m104 4 c53 -23 95 -45 92 -49 -10 -17
-130 32 -199 82 -36 26 -22 21 107 -33z"/>
<path d="M4680 2555 c0 -3 2 -5 5 -5 3 0 5 2 5 5 0 3 -2 5 -5 5 -3 0 -5 -2 -5
-5z"/>
<path d="M3765 2376 c-14 -10 -17 -22 -13 -53 5 -36 19 -63 75 -143 12 -17 5
-13 -26 13 -81 73 -209 112 -225 71 -13 -33 18 -53 182 -114 82 -32 109 -56
51 -48 -45 7 -63 -32 -28 -61 31 -26 34 -26 53 4 25 37 37 32 94 -45 53 -70
101 -110 135 -110 20 0 24 39 5 58 -18 18 -5 23 30 11 42 -14 96 -8 100 12 3
18 -65 51 -180 89 -38 12 -68 25 -68 30 0 8 213 70 243 70 16 0 23 20 11 32
-3 3 -53 -7 -112 -24 -59 -16 -126 -31 -148 -32 l-42 -3 -26 100 c-32 125 -70
173 -111 143z m50 -36 c16 -18 70 -179 62 -186 -5 -5 -73 86 -92 122 -32 62
-11 109 30 64z m-111 -105 c29 -14 70 -41 92 -60 l39 -35 -40 16 c-22 8 -69
27 -104 40 -67 25 -91 40 -91 55 0 17 51 9 104 -16z m448 -247 l23 -13 -26 -3
c-36 -4 -128 32 -169 67 l-35 30 92 -34 c50 -18 102 -39 115 -47z m-177 22
c67 -49 105 -100 75 -100 -14 0 -75 56 -111 101 -39 49 -32 49 36 -1z"/>
<path d="M1021 1990 c-1 -203 1 -261 11 -258 15 5 17 30 21 238 4 156 -5 254
-23 274 -5 5 -9 -109 -9 -254z m22 -62 l-10 -53 -2 65 c-1 48 2 61 10 53 9 -9
9 -26 2 -65z"/>
<path d="M512 1523 c8 -10 26 -31 39 -47 39 -48 60 -68 66 -63 8 9 -90 126
-106 126 -12 1 -11 -2 1 -16z"/>
<path d="M4539 1258 c-14 -13 -38 -48 -54 -79 l-27 -57 -35 24 c-20 13 -40 24
-46 24 -6 0 -19 8 -29 17 -15 14 -21 15 -27 4 -10 -16 -23 -119 -17 -129 2 -4
-27 -6 -65 -4 -57 4 -69 2 -69 -11 0 -9 5 -19 10 -22 16 -10 58 -98 53 -111
-2 -7 9 -15 24 -19 24 -7 25 -9 8 -13 -28 -6 -105 -52 -105 -62 0 -5 15 -11
33 -13 17 -2 -29 -5 -104 -5 -230 -3 -497 -57 -550 -110 -33 -33 -33 -89 -2
-109 15 -10 30 -21 33 -25 3 -4 17 -11 30 -17 l25 -10 -27 0 c-15 -1 -31 6
-36 14 -5 10 -15 13 -26 9 -40 -15 -3 -30 105 -42 114 -12 191 -29 142 -31
-13 -1 -23 -7 -23 -16 0 -11 -13 -15 -47 -16 -39 -2 -32 -4 37 -13 l85 -11
-55 -6 c-45 -5 -37 -6 47 -7 86 -2 101 -4 97 -17 -7 -17 9 -19 105 -9 93 10
53 33 -58 34 -117 0 -99 6 44 15 66 4 122 11 123 16 2 5 11 9 19 9 16 0 -5
-27 -59 -78 -17 -15 -16 -17 4 -39 l21 -23 -41 0 c-23 0 -42 -4 -42 -9 0 -12
32 -20 113 -27 44 -5 76 -14 90 -25 22 -19 21 -19 -60 -16 -49 2 -80 0 -76 -5
3 -6 -8 -8 -23 -7 -16 2 -35 0 -42 -5 -15 -9 -240 0 -350 15 -90 11 -92 11
-92 0 0 -20 424 -48 490 -32 24 5 51 3 80 -5 50 -15 156 -19 110 -4 -14 4 -45
9 -70 11 -25 1 25 6 110 10 161 9 264 0 140 -11 -145 -14 502 -17 790 -4 63 3
139 9 168 15 30 6 106 8 178 5 82 -4 123 -3 119 4 -3 5 -45 10 -93 11 -49 1
-77 4 -63 8 33 9 39 31 9 31 -22 1 -22 1 -3 12 37 21 76 71 73 92 -2 11 -19
30 -41 41 -20 12 -34 24 -31 28 11 11 -40 29 -178 62 l-133 33 140 3 c119 2
129 3 65 8 -65 5 -54 7 90 13 91 4 181 12 200 18 37 10 10 9 -145 -5 -33 -3
-53 -3 -45 1 8 3 24 9 35 14 11 5 70 14 132 20 61 6 128 17 149 26 23 10 50
13 71 9 25 -4 33 -2 33 9 0 22 -85 33 -108 14 -36 -31 -80 -42 -97 -24 -15 15
-15 16 2 16 61 0 75 60 19 85 l-31 13 28 1 c49 2 18 21 -34 21 -61 0 -63 -15
-5 -40 92 -39 68 -62 -62 -58 -50 2 -92 0 -92 -3 0 -7 59 -18 105 -20 25 -1
20 -4 -28 -20 -98 -31 -316 -52 -302 -29 5 8 -36 9 -132 5 -130 -6 -228 3
-346 31 -22 5 -26 3 -21 -9 5 -13 0 -14 -33 -5 -21 6 -55 10 -77 9 -21 0 -48
6 -59 14 -20 14 -19 15 21 15 49 0 56 15 12 25 -17 4 -28 11 -24 16 3 5 -3 9
-13 10 -46 1 26 16 87 17 l65 2 -32 -21 c-65 -41 -35 -57 87 -48 52 4 112 4
134 1 23 -3 41 0 45 6 4 6 54 15 114 19 145 11 139 28 -8 24 -78 -2 -115 1
-115 8 0 16 -36 13 -54 -4 -10 -10 -36 -15 -85 -15 -38 0 -73 -4 -76 -10 -3
-6 -16 -10 -28 -10 -18 0 -16 3 13 25 19 14 42 25 52 25 10 0 18 6 18 13 0 14
95 28 320 48 114 10 185 8 340 -7 40 -4 51 -3 40 5 -11 8 3 9 50 6 53 -4 60
-3 35 5 -79 28 -566 16 -719 -17 -27 -5 -28 -5 -15 11 29 34 108 95 159 121
34 17 32 38 -3 31 -12 -3 -44 -8 -71 -11 l-48 -7 16 23 c15 22 23 99 10 99 -4
0 -12 -7 -18 -15 -13 -17 -126 -34 -126 -19 0 5 4 24 10 43 5 19 7 60 3 92 -7
72 -20 75 -77 22 -23 -21 -38 -34 -34 -30 8 10 -21 99 -35 109 -19 12 -37 -4
-73 -63 -20 -32 -38 -59 -40 -59 -9 0 -29 50 -33 85 -7 49 -33 57 -72 23z
m219 -33 c19 -42 14 -88 -13 -125 -14 -19 -25 -29 -25 -22 0 18 -25 15 -41 -5
-31 -37 -27 47 4 102 49 85 57 90 75 50z m-168 -5 c0 -11 9 -34 20 -52 33 -55
37 -117 9 -139 -23 -17 -24 -17 -36 12 -22 54 -70 7 -53 -52 l9 -32 -24 23
c-31 29 -48 86 -36 126 15 54 49 110 73 121 33 16 38 15 38 -7z m290 -81 c0
-70 -26 -137 -66 -168 -33 -26 -53 -28 -31 -3 33 37 4 75 -31 40 -20 -20 -25
17 -7 54 17 33 113 137 128 138 4 0 7 -27 7 -61z m-491 -20 c41 -25 53 -39 70
-82 21 -56 14 -68 -24 -43 -34 22 -43 20 -47 -11 -3 -25 -6 -22 -34 33 -22 45
-29 71 -26 98 5 43 0 43 61 5z m336 -152 c7 -34 4 -40 -33 -77 -38 -38 -92
-56 -92 -30 0 21 -2 25 -15 40 -25 27 -4 71 56 117 l54 42 12 -28 c6 -14 14
-43 18 -64z m-410 63 c3 -5 2 -10 -4 -10 -6 0 9 -20 33 -45 53 -54 54 -88 2
-78 -57 10 -89 36 -113 91 l-23 52 50 0 c27 0 52 -4 55 -10z m246 -57 c-9 -15
-10 -12 -11 18 0 20 3 39 8 43 11 12 14 -42 3 -61z m459 49 c0 -61 -154 -153
-252 -149 -55 2 -55 2 -39 24 9 11 33 27 54 34 21 7 49 26 62 41 19 22 38 31
81 38 31 5 59 12 62 15 8 8 32 6 32 -3z m-246 -37 c-4 -8 -11 -15 -16 -15 -6
0 -5 6 2 15 7 8 14 15 16 15 2 0 1 -7 -2 -15z m-310 -25 c32 0 76 -31 90 -63
18 -43 14 -47 -53 -47 -67 0 -107 26 -97 64 3 11 6 34 6 50 0 28 1 28 18 13
10 -10 26 -17 36 -17z m626 -24 c0 -19 -83 -56 -126 -56 l-49 0 42 24 c39 22
65 30 116 35 9 0 17 -1 17 -3z m-692 -82 c13 -9 35 -20 50 -24 l27 -8 -37 -16
c-51 -22 -100 -20 -170 6 l-60 21 33 18 c43 23 127 24 157 3z m402 -6 c19 1
67 4 105 7 l70 6 -36 -34 c-50 -47 -178 -62 -235 -26 l-36 22 29 19 c17 11 36
16 48 12 11 -4 36 -6 55 -6z m-221 -27 c33 -21 -74 -60 -126 -46 -27 7 -25 8
32 30 68 27 75 28 94 16z m61 -43 c0 -49 -5 -47 -13 5 -3 20 -2 37 4 37 5 0 9
-19 9 -42z m-466 -8 c133 -8 181 -7 187 1 4 6 12 8 18 5 6 -4 9 -11 6 -16 -3
-5 9 -14 27 -20 27 -8 19 -9 -39 -4 -50 3 -78 1 -92 -8 -27 -16 -27 -28 0 -28
11 0 17 -4 14 -10 -4 -6 19 -10 62 -10 37 0 106 -3 153 -7 79 -6 84 -5 71 10
-21 27 10 22 72 -10 l52 -27 -40 -6 -40 -6 34 -16 c44 -20 20 -37 -48 -32 -41
3 -43 2 -16 -6 24 -7 20 -8 -23 -4 -29 2 -60 7 -70 11 -12 4 -14 3 -7 -5 6 -5
19 -12 30 -15 11 -3 -20 -5 -70 -6 -49 -1 -117 -8 -150 -17 -107 -29 -215 -30
-215 -3 0 6 11 25 25 43 28 37 32 66 9 66 -9 0 -14 -6 -11 -12 3 -7 -6 -32
-20 -56 -14 -24 -22 -50 -19 -59 6 -14 -4 -15 -86 -8 -51 5 -112 8 -136 7 -24
-1 -85 8 -135 20 l-92 22 45 6 c27 3 40 8 33 13 -7 4 -22 5 -35 2 -40 -8 -93
8 -93 30 0 11 -9 21 -22 25 -67 16 75 80 252 114 148 28 146 28 369 16z m346
-20 c0 -5 -5 -10 -11 -10 -5 0 -7 5 -4 10 3 6 8 10 11 10 2 0 4 -4 4 -10z
m257 3 c-4 -3 -10 -3 -14 0 -3 4 0 7 7 7 7 0 10 -3 7 -7z m-117 -32 l45 -8
-45 -1 c-25 0 -58 4 -75 8 l-30 8 30 0 c17 0 50 -3 75 -7z m-167 -8 c-7 -2
-19 -2 -25 0 -7 3 -2 5 12 5 14 0 19 -2 13 -5z m67 -8 c0 -3 -2 -5 -5 -5 -3 0
-5 2 -5 5 0 3 2 5 5 5 3 0 5 -2 5 -5z m-36 -14 c11 -4 -20 -6 -70 -4 -121 6
-137 11 -34 11 47 0 94 -3 104 -7z m242 -68 c13 -14 14 -18 3 -22 -8 -2 -16
-7 -19 -11 -3 -4 -16 -10 -30 -14 l-25 -7 23 20 c13 12 20 25 16 35 -8 21 10
20 32 -1z m72 -2 c26 -5 42 -5 42 1 0 11 83 2 128 -13 21 -7 16 -8 -20 -4 -53
5 -63 -5 -20 -22 26 -11 26 -11 -13 -11 -46 0 -104 15 -70 18 11 1 -6 7 -37
14 -87 19 -96 33 -10 17z m-1288 -6 c0 -3 -2 -5 -5 -5 -3 0 -5 2 -5 5 0 3 2 5
5 5 3 0 5 -2 5 -5z m1655 -25 l110 -7 -110 -1 c-116 -2 -159 4 -149 20 3 5 13
6 23 2 9 -4 66 -11 126 -14z m-398 3 c-4 -3 -10 -3 -14 0 -3 4 0 7 7 7 7 0 10
-3 7 -7z m46 -10 c-7 -2 -19 -2 -25 0 -7 3 -2 5 12 5 14 0 19 -2 13 -5z m394
-19 c-3 -3 -12 -4 -19 -1 -8 3 -5 6 6 6 11 1 17 -2 13 -5z m-832 -26 c-27 -5
-66 -12 -85 -16 -19 -5 -44 -6 -55 -3 -23 6 101 29 155 29 29 0 27 -2 -15 -10z
m785 -2 c146 -25 342 -77 336 -91 -2 -7 12 -20 35 -31 22 -9 42 -21 45 -26 9
-14 -72 -87 -103 -94 -16 -3 -42 -10 -60 -14 -21 -5 -33 -4 -36 3 -2 7 -25 5
-73 -8 -45 -13 -98 -19 -152 -18 -70 1 -81 -1 -71 -13 10 -12 -62 -22 -112
-16 -86 12 -251 13 -244 3 5 -10 2 -12 -11 -8 -50 15 -146 29 -209 32 -40 1
-71 7 -73 14 -5 14 -62 15 -62 1 0 -5 -7 -10 -15 -10 -8 0 -15 5 -15 10 0 6
-16 10 -35 10 -56 0 -137 20 -187 48 -57 30 -59 36 -15 52 27 10 29 13 13 19
-27 10 27 54 85 69 309 79 494 81 546 6 45 -64 61 -74 119 -74 58 0 196 -25
226 -41 10 -5 18 -6 18 -1 0 17 -57 34 -186 55 l-131 22 -12 40 c-14 44 -28
65 -43 65 -6 0 -5 -7 2 -15 19 -22 10 -24 -30 -7 l-35 16 30 7 c55 13 367 9
455 -5z m-1127 -43 c-13 -2 -33 -2 -45 0 -13 2 -3 4 22 4 25 0 35 -2 23 -4z
m-170 -20 c-18 -2 -48 -2 -65 0 -18 2 -4 4 32 4 36 0 50 -2 33 -4z m112 -12
c9 -16 -74 -22 -155 -11 l-75 9 100 -3 c59 -2 90 -1 75 4 -22 7 -21 8 12 9 20
1 39 -3 43 -8z m1515 -186 c0 -3 -2 -5 -5 -5 -3 0 -5 2 -5 5 0 3 2 5 5 5 3 0
5 -2 5 -5z m-187 -32 c-7 -2 -19 -2 -25 0 -7 3 -2 5 12 5 14 0 19 -2 13 -5z
m-486 -30 c-4 -3 -10 -3 -14 0 -3 4 0 7 7 7 7 0 10 -3 7 -7z"/>
<path d="M3870 740 c0 -5 12 -10 28 -10 21 0 24 2 12 10 -20 13 -40 13 -40 0z"/>
<path d="M4115 710 c-26 -7 -24 -8 20 -9 36 0 46 2 35 9 -8 5 -17 9 -20 9 -3
-1 -18 -5 -35 -9z"/>
<path d="M3848 675 c-76 -6 -141 -15 -145 -19 -7 -8 54 -5 237 10 l65 6 -32
-22 c-34 -23 -44 -50 -18 -50 8 0 15 7 15 15 0 17 23 29 88 45 23 6 40 15 37
20 -7 12 -67 11 -247 -5z"/>
<path d="M4416 591 c-12 -5 -16 -10 -9 -14 13 -8 43 2 43 14 0 10 -8 10 -34 0z"/>
<path d="M4716 480 c23 -10 45 -23 48 -29 9 -14 26 -14 26 -1 0 13 -74 50 -97
49 -10 0 1 -9 23 -19z"/>
<path d="M4395 480 c-8 -13 25 -13 45 0 12 8 9 10 -12 10 -15 0 -30 -4 -33
-10z"/>
<path d="M5045 459 c-65 -5 -62 -6 39 -7 60 -1 107 0 105 2 -10 8 -79 11 -144
5z"/>
<path d="M4500 420 c-10 -7 25 -9 110 -8 69 0 134 -1 145 -3 11 -2 21 1 23 6
3 13 -258 18 -278 5z"/>
<path d="M4360 410 c-18 -12 39 -12 85 0 26 7 24 8 -20 9 -27 0 -57 -4 -65 -9z"/>
<path d="M4850 382 c0 -5 9 -17 20 -27 22 -20 26 -14 10 16 -11 19 -30 26 -30
11z"/>
<path d="M4760 339 c-19 -15 -30 -29 -23 -29 15 0 70 46 63 53 -3 3 -21 -8
-40 -24z"/>
<path d="M4981 291 c8 -6 47 -12 85 -15 51 -4 60 -3 34 3 -61 15 -137 23 -119
12z"/>
<path d="M1032 1240 c0 -14 2 -19 5 -12 2 6 2 18 0 25 -3 6 -5 1 -5 -13z"/>
<path d="M1033 1135 c0 -44 2 -61 4 -37 2 23 2 59 0 80 -2 20 -4 1 -4 -43z"/>
<path d="M1545 1183 c-52 -13 -28 -20 54 -15 91 5 111 0 69 -18 -19 -7 -14 -9
25 -9 26 -1 47 4 47 9 0 6 -6 10 -14 10 -8 0 -16 5 -18 12 -5 13 -126 21 -163
11z"/>
<path d="M1805 1140 c3 -5 17 -10 31 -10 13 0 24 5 24 10 0 6 -14 10 -31 10
-17 0 -28 -4 -24 -10z"/>
<path d="M2103 1134 c-3 -8 -1 -20 6 -27 8 -8 11 -4 11 16 0 30 -7 35 -17 11z"/>
<path d="M518 1135 c-13 -14 3 -25 27 -19 24 6 115 -32 115 -48 0 -4 -21 -8
-47 -8 -37 0 -44 -3 -35 -12 9 -9 25 -9 69 0 48 10 60 9 81 -4 13 -8 29 -13
35 -11 7 2 -22 23 -63 46 -50 28 -65 40 -45 36 17 -3 52 -19 78 -36 27 -16 47
-24 45 -17 -14 42 -231 103 -260 73z"/>
<path d="M3262 1113 c-6 -2 -10 -8 -8 -11 6 -10 96 -2 96 9 0 9 -66 11 -88 2z"/>
<path d="M3616 1091 c-8 -13 1 -14 102 -11 46 1 72 -2 72 -9 0 -13 46 -15 54
-2 3 4 37 6 76 3 48 -3 70 -1 70 7 0 6 -12 11 -27 11 -16 0 -98 3 -184 7 -112
4 -158 3 -163 -6z"/>
<path d="M2938 1083 c-31 -5 -37 -18 -12 -27 24 -9 54 -7 54 4 0 6 44 10 111
10 71 0 108 4 104 10 -6 10 -199 12 -257 3z"/>
<path d="M1673 1073 c20 -2 54 -2 75 0 20 2 3 4 -38 4 -41 0 -58 -2 -37 -4z"/>
<path d="M453 1053 c-18 -2 -33 -8 -33 -12 0 -5 -19 -11 -42 -15 -70 -11 -28
-22 70 -18 54 2 92 8 92 14 0 7 -17 9 -45 6 -25 -3 -45 -2 -45 3 0 5 11 9 25
9 14 0 25 5 25 10 0 6 -3 9 -7 8 -5 0 -23 -3 -40 -5z"/>
<path d="M625 1030 c-23 -6 -15 -8 38 -9 39 -1 67 3 67 9 0 11 -60 11 -105 0z"/>
<path d="M3215 1030 c3 -5 40 -10 81 -10 41 0 134 -6 207 -14 192 -21 253 -25
267 -16 6 4 -30 10 -82 14 -51 4 -151 14 -223 22 -154 16 -259 18 -250 4z"/>
<path d="M264 1024 c-7 -3 -41 -9 -75 -13 -46 -5 -59 -10 -46 -16 22 -9 157
13 157 26 0 9 -17 11 -36 3z"/>
<path d="M2740 1000 c0 -6 51 -10 134 -10 74 0 147 -5 162 -10 33 -13 44 -5
18 15 -23 17 -314 22 -314 5z"/>
<path d="M2610 990 c-11 -7 -3 -10 30 -10 25 0 52 5 60 10 11 7 3 10 -30 10
-25 0 -52 -5 -60 -10z"/>
<path d="M520 983 c0 -14 103 -23 239 -21 l116 1 -135 7 c-74 4 -154 10 -177
15 -27 5 -43 4 -43 -2z"/>
<path d="M823 983 c4 -3 10 -3 14 0 3 4 0 7 -7 7 -7 0 -10 -3 -7 -7z"/>
<path d="M906 953 c12 -9 3 -13 -50 -18 -36 -4 -66 -11 -66 -16 0 -5 10 -7 23
-4 12 3 94 9 182 15 88 5 174 14 190 19 l30 9 -35 1 c-199 7 -289 5 -274 -6z
m51 -10 c-4 -3 -10 -3 -14 0 -3 4 0 7 7 7 7 0 10 -3 7 -7z m30 0 c-4 -3 -10
-3 -14 0 -3 4 0 7 7 7 7 0 10 -3 7 -7z"/>
<path d="M1293 963 c15 -2 39 -2 55 0 15 2 2 4 -28 4 -30 0 -43 -2 -27 -4z"/>
<path d="M2893 923 c9 -2 25 -2 35 0 9 3 1 5 -18 5 -19 0 -27 -2 -17 -5z"/>
<path d="M2758 913 c-16 -2 -28 -9 -28 -15 0 -6 10 -8 23 -4 12 3 40 6 62 6
30 0 36 3 25 10 -15 10 -33 10 -82 3z"/>
<path d="M1080 900 c0 -5 22 -7 53 -3 71 8 72 13 4 13 -31 0 -57 -4 -57 -10z"/>
<path d="M2980 891 c0 -10 137 -30 160 -22 16 6 -23 15 -107 25 -31 4 -53 3
-53 -3z"/>
<path d="M670 869 c0 -7 45 -9 143 -5 107 4 126 3 77 -4 -50 -7 -374 -22 -447
-20 -7 0 -13 -5 -13 -11 0 -18 538 13 550 31 3 4 14 10 25 13 11 2 -60 5 -157
6 -121 1 -178 -2 -178 -10z"/>
<path d="M3920 869 c0 -8 14 -9 43 -5 23 3 66 2 95 -3 29 -4 55 -5 57 -1 6 10
-58 20 -132 20 -40 0 -63 -4 -63 -11z"/>
<path d="M3410 852 c0 -11 237 -28 247 -18 4 3 4 8 2 10 -10 9 -249 16 -249 8z"/>
<path d="M5073 853 c15 -2 39 -2 55 0 15 2 2 4 -28 4 -30 0 -43 -2 -27 -4z"/>
<path d="M4073 833 c15 -2 39 -2 55 0 15 2 2 4 -28 4 -30 0 -43 -2 -27 -4z"/>
<path d="M3775 820 c-4 -6 32 -10 99 -10 64 0 106 4 106 10 0 6 -40 10 -99 10
-56 0 -103 -4 -106 -10z"/>
<path d="M2674 796 c11 -9 27 -16 35 -16 21 0 2 16 -29 24 -24 7 -24 6 -6 -8z"/>
<path d="M1980 785 c0 -3 2 -5 5 -5 3 0 5 2 5 5 0 3 -2 5 -5 5 -3 0 -5 -2 -5
-5z"/>
<path d="M4750 715 c0 -3 2 -5 5 -5 3 0 5 2 5 5 0 3 -2 5 -5 5 -3 0 -5 -2 -5
-5z"/>
<path d="M5385 709 c-4 -5 5 -9 18 -9 14 0 40 -3 58 -6 23 -4 29 -2 19 4 -23
14 -89 22 -95 11z"/>
<path d="M3152 692 c-45 -2 -80 -7 -78 -11 3 -5 -43 -13 -102 -19 -101 -10
-358 -35 -502 -49 -60 -6 -53 -8 93 -19 88 -7 165 -18 172 -24 20 -16 227 -26
251 -12 15 9 0 10 -66 6 -47 -3 -103 -1 -125 4 -37 9 -34 10 40 12 157 3 122
19 -44 19 -90 1 -162 3 -160 5 9 9 437 58 452 52 7 -2 -1 -5 -18 -6 -16 -1
-57 -8 -90 -16 -60 -14 -60 -14 70 -9 72 3 159 11 195 19 l65 15 -55 -5 c-135
-13 -148 -14 -110 -5 l35 8 -37 2 c-21 0 -38 6 -38 11 0 6 50 10 131 10 84 0
128 -4 124 -10 -9 -15 19 -12 51 5 l29 15 -35 2 c-63 3 -164 3 -248 0z m-74
-59 c-10 -2 -26 -2 -35 0 -10 3 -2 5 17 5 19 0 27 -2 18 -5z"/>
<path d="M2185 631 c6 -5 28 -11 50 -15 25 -4 34 -3 25 2 -22 13 -87 24 -75
13z"/>
<path d="M2290 616 c0 -8 51 -13 56 -5 3 5 -9 9 -25 9 -17 0 -31 -2 -31 -4z"/>
<path d="M2373 603 c4 -3 10 -3 14 0 3 4 0 7 -7 7 -7 0 -10 -3 -7 -7z"/>
<path d="M5373 533 c4 -3 10 -3 14 0 3 4 0 7 -7 7 -7 0 -10 -3 -7 -7z"/>
<path d="M5457 528 c6 -11 201 -10 207 1 3 5 -43 8 -103 7 -60 0 -107 -4 -104
-8z"/>
<path d="M3645 480 c11 -5 40 -8 65 -8 l45 0 -40 9 c-56 11 -98 11 -70 -1z"/>
<path d="M635 470 c3 -5 16 -10 28 -10 18 0 19 2 7 10 -20 13 -43 13 -35 0z"/>
<path d="M735 460 c3 -5 17 -10 31 -10 13 0 24 5 24 10 0 6 -14 10 -31 10 -17
0 -28 -4 -24 -10z"/>
<path d="M3064 428 c-8 -13 35 -17 247 -22 113 -3 234 -9 269 -13 47 -4 61 -3
56 5 -4 7 -28 13 -54 14 -44 1 -44 2 -9 5 20 2 37 8 37 13 0 10 -540 8 -546
-2z"/>
<path d="M5650 420 c8 -5 33 -10 55 -11 22 -1 32 -3 23 -6 -33 -8 -19 -25 15
-18 97 21 87 45 -20 45 -61 0 -83 -3 -73 -10z"/>
<path d="M1040 310 c0 -13 14 -18 65 -24 22 -2 69 -9 105 -15 86 -14 227 -28
365 -37 61 -4 113 -11 116 -15 3 -5 21 -6 39 -2 45 9 16 21 -55 23 -35 1 -44
4 -30 9 20 8 -79 22 -139 20 l-31 -2 35 -8 c61 -13 -115 1 -270 22 -80 11
-153 24 -162 29 -23 13 -38 13 -38 0z"/>
<path d="M1205 300 c187 -25 261 -33 253 -25 -9 9 -282 44 -338 44 -25 -1 13
-9 85 -19z"/>
<path d="M5749 304 c-95 -17 -167 -46 -130 -52 14 -2 30 2 35 10 6 8 48 20 99
27 48 7 87 17 87 22 0 5 -3 9 -7 8 -5 -1 -42 -7 -84 -15z"/>
<path d="M3725 300 c4 -6 49 -10 102 -10 53 0 94 2 92 4 -10 9 -199 15 -194 6z"/>
<path d="M3018 293 c-10 -2 -18 -9 -18 -15 0 -6 10 -8 23 -4 12 3 26 6 30 6 5
0 5 5 2 10 -6 10 -9 11 -37 3z"/>
<path d="M3963 293 c15 -2 37 -2 50 0 12 2 0 4 -28 4 -27 0 -38 -2 -22 -4z"/>
<path d="M3083 203 c-29 -2 -53 -9 -53 -15 0 -13 140 -2 155 13 9 9 5 9 -102
2z"/>
<path d="M2656 191 c-3 -4 53 -9 125 -10 84 -1 128 3 124 9 -8 12 -242 14
-249 1z"/>
<path d="M1917 178 c55 -6 89 -6 100 1 13 8 -10 10 -82 9 l-100 -1 82 -9z"/>
<path d="M2063 183 c9 -2 23 -2 30 0 6 3 -1 5 -18 5 -16 0 -22 -2 -12 -5z"/>
<path d="M4373 168 c7 -4 37 -8 67 -9 97 -2 115 -15 30 -22 -317 -26 -648 -25
-699 3 -17 8 -21 8 -21 -4 0 -31 60 -39 330 -42 245 -2 297 0 434 21 35 6 47
5 42 -4 -4 -6 -1 -11 9 -11 9 0 14 4 11 9 -3 5 6 11 20 14 41 7 238 -4 245
-15 5 -8 32 -7 139 3 14 2 -13 5 -59 8 -99 7 -128 30 -39 32 29 1 64 5 78 10
19 7 14 8 -22 4 -140 -14 -320 -17 -341 -7 -24 12 -242 22 -224 10z m-203 -63
c0 -3 -2 -5 -5 -5 -3 0 -5 2 -5 5 0 3 2 5 5 5 3 0 5 -2 5 -5z"/>
<path d="M5061 176 c11 -9 210 -15 204 -6 -3 6 -50 10 -107 10 -56 0 -99 -2
-97 -4z"/>
<path d="M5323 163 c26 -2 67 -2 90 0 23 2 2 3 -48 3 -49 0 -68 -1 -42 -3z"/>
<path d="M5470 161 c0 -4 42 -11 93 -14 50 -4 120 -9 155 -13 41 -5 62 -3 62
4 0 6 -32 13 -72 16 -162 13 -238 15 -238 7z"/>
<path d="M2330 150 c0 -5 7 -10 16 -10 8 0 12 5 9 10 -3 6 -10 10 -16 10 -5 0
-9 -4 -9 -10z"/>
<path d="M2415 141 c-13 -22 258 -38 615 -38 314 0 400 4 400 18 0 6 -33 7
-82 4 -205 -15 -805 -2 -905 20 -12 3 -24 1 -28 -4z"/>
<path d="M5055 140 c-118 -7 -83 -12 60 -9 55 2 135 3 178 3 42 0 77 4 77 8 0
9 -157 8 -315 -2z"/>
<path d="M1670 112 c0 -15 416 -52 584 -52 194 0 106 13 -173 25 -67 3 -178
12 -245 20 -140 17 -166 18 -166 7z"/>
<path d="M5198 113 c46 -2 118 -2 160 0 42 1 5 3 -83 3 -88 0 -123 -2 -77 -3z"/>
<path d="M5468 113 c7 -3 16 -2 19 1 4 3 -2 6 -13 5 -11 0 -14 -3 -6 -6z"/>
<path d="M4220 10 c-35 -7 -35 -7 10 -8 25 0 68 3 95 8 l50 7 -60 0 c-33 0
-76 -3 -95 -7z"/>
</g>
</svg>
