<?xml version="1.0" standalone="no"?>
<!DOCTYPE svg PUBLIC "-//W3C//DTD SVG 20010904//EN"
 "http://www.w3.org/TR/2001/REC-SVG-20010904/DTD/svg10.dtd">
<svg version="1.0" xmlns="http://www.w3.org/2000/svg"
 width="600.000000pt" height="283.000000pt" viewBox="0 0 600.000000 283.000000"
 preserveAspectRatio="xMidYMid meet">
<g transform="translate(0.000000,283.000000) scale(0.100000,-0.100000)"
fill="#000000" stroke="none">
<path d="M2105 2730 c-93 -61 -379 -396 -405 -475 -12 -36 -24 -43 -165 -82
-38 -11 -77 -23 -87 -27 -14 -7 -15 -3 -8 27 4 22 3 45 -5 63 -22 53 -94 151
-132 183 -33 27 -45 31 -100 31 -62 0 -63 -1 -86 -37 -25 -39 -102 -236 -132
-333 -20 -69 -45 -204 -45 -250 0 -70 -16 -60 -38 25 -20 81 -83 240 -121 308
-16 29 -22 32 -73 35 -48 3 -60 -1 -88 -25 -19 -15 -48 -58 -65 -97 l-32 -69
-48 89 c-44 82 -183 302 -220 349 -29 36 38 -78 96 -166 32 -47 68 -108 82
-135 13 -27 37 -71 52 -97 27 -47 27 -49 13 -99 l-14 -52 -24 65 c-13 35 -45
109 -72 163 -26 55 -46 101 -43 104 2 2 -1 14 -7 26 -7 11 -13 26 -14 31 -1 6
-21 43 -44 83 -24 41 -43 81 -44 90 -2 25 -52 95 -86 120 -33 25 -50 14 -19
-14 11 -10 45 -64 75 -121 33 -62 60 -100 66 -97 7 4 8 2 4 -5 -4 -6 -2 -18 4
-26 18 -22 117 -237 161 -350 33 -85 39 -111 38 -175 0 -41 -4 -94 -7 -118
l-7 -42 -67 82 c-36 46 -87 119 -113 163 -26 44 -55 89 -64 100 -10 11 -23 34
-30 52 -11 28 -51 75 -51 60 0 -3 12 -34 26 -69 87 -209 96 -226 195 -369 99
-143 119 -181 119 -226 0 -21 9 -73 20 -114 12 -41 31 -127 43 -191 14 -70 26
-114 32 -110 11 8 11 56 0 202 l-6 95 26 -45 c88 -148 259 -500 242 -500 -1 0
-39 35 -83 79 -51 49 -103 89 -140 107 -33 15 -88 45 -123 66 -43 26 -75 38
-101 38 -43 0 -54 -10 -68 -65 -48 -180 -60 -302 -43 -414 10 -65 52 -193 70
-213 3 -4 6 95 7 220 1 187 4 239 19 292 10 36 19 67 21 69 10 12 256 -169
321 -236 31 -32 51 -44 77 -45 19 -2 32 -6 30 -10 -2 -3 2 -9 8 -12 7 -4 3 -4
-10 -2 -14 3 -26 -2 -32 -14 -9 -16 -7 -16 25 -6 37 13 56 26 37 26 -7 0 -12
5 -12 10 0 15 16 12 34 -5 22 -22 38 -19 32 8 -3 12 -3 16 0 10 11 -25 24 -12
21 22 -1 19 -5 35 -9 35 -5 0 -9 66 -10 148 l-2 147 -6 -125 c-7 -146 -10
-117 -15 155 -6 297 -12 361 -56 620 -6 33 -7 69 -4 80 6 17 5 18 -5 5 -9 -12
-10 -10 -6 13 4 18 -8 71 -39 163 -25 75 -45 143 -45 151 0 8 -4 11 -10 8 -6
-3 -7 1 -4 9 7 19 21 21 21 4 0 -28 77 -247 84 -242 4 2 -1 26 -12 52 -26 60
-71 214 -64 220 6 6 25 -44 25 -66 0 -15 2 -15 11 -2 8 12 9 9 5 -11 -3 -15 1
-44 8 -65 10 -26 15 -32 16 -19 1 15 5 12 13 -12 7 -18 18 -38 26 -45 11 -11
12 -7 6 27 -12 69 2 34 34 -85 25 -95 31 -140 35 -260 3 -80 7 -154 10 -165 2
-11 9 -96 16 -189 11 -148 9 -377 -4 -543 -3 -29 0 -43 10 -47 9 -3 14 1 14
13 0 11 3 27 7 37 4 12 3 15 -5 10 -7 -4 -12 -2 -12 3 0 6 4 11 10 11 13 0 32
-38 25 -50 -3 -6 3 -10 15 -10 18 0 19 3 10 20 -9 17 1 31 82 113 51 51 122
112 158 137 36 25 130 111 210 191 121 122 148 145 165 138 34 -13 323 -9 454
6 68 8 127 12 132 10 4 -3 10 -1 14 5 4 6 -5 10 -21 10 -51 0 -17 11 47 15 35
2 53 1 39 -2 -54 -11 -36 -19 27 -12 37 4 69 12 71 18 2 7 55 11 160 12 87 0
207 4 269 7 107 7 111 6 92 -11 -10 -10 -19 -27 -19 -37 0 -11 -6 -20 -12 -21
-7 0 -3 -4 10 -9 12 -5 22 -14 22 -19 0 -5 8 -10 18 -9 53 1 275 -13 285 -19
11 -7 86 -6 183 3 49 4 65 2 78 -11 22 -22 20 -27 -14 -47 -27 -16 -30 -16
-30 -1 0 9 7 25 17 35 9 10 11 18 5 18 -6 0 -15 -7 -20 -16 -6 -11 -11 -13
-16 -5 -12 19 -45 12 -62 -15 l-17 -25 -22 28 c-20 24 -25 26 -39 14 -9 -7
-16 -20 -16 -29 0 -13 -3 -12 -20 3 -21 19 -50 14 -50 -10 0 -17 -11 -20 -26
-5 -6 6 -23 -8 -47 -41 -44 -59 -42 -90 7 -121 l31 -20 -40 7 c-103 19 -196
23 -395 19 -250 -6 -422 -13 -465 -18 -16 -3 -40 -5 -52 -5 -30 -1 -51 -25
-48 -55 3 -22 -1 -26 -25 -26 -15 0 -40 -2 -56 -4 -16 -2 -23 -1 -16 1 27 10
9 18 -35 17 -27 -1 -50 -3 -53 -4 -16 -8 -70 -3 -70 6 0 12 -227 16 -235 5 -2
-4 10 -7 28 -7 49 0 141 -15 154 -25 7 -7 13 -5 17 3 5 10 7 10 12 1 3 -7 18
-13 32 -14 l27 -1 -30 -9 c-16 -5 -104 -8 -195 -5 -161 4 -220 1 -220 -13 0
-11 431 -4 443 8 6 6 22 11 35 11 13 0 21 4 18 9 -4 5 2 7 11 5 10 -2 86 -5
168 -8 202 -7 249 -12 271 -26 16 -9 13 -11 -18 -6 -20 2 -39 1 -43 -2 -4 -4
31 -12 77 -19 122 -17 230 -42 256 -59 13 -9 26 -13 30 -10 11 12 -34 35 -88
46 -70 15 -145 37 -189 56 -35 15 -81 27 -180 45 -82 15 -131 45 -102 64 13 8
510 28 661 26 198 -2 432 -39 468 -75 30 -29 -20 -68 -128 -100 -30 -9 -70
-26 -89 -39 -58 -37 -63 -40 -171 -98 -178 -96 -262 -108 -665 -100 -109 2
-111 3 -205 48 -86 42 -103 47 -173 48 -42 1 -80 4 -83 7 -2 3 -8 22 -11 42
-6 41 11 67 60 93 16 8 27 17 24 19 -9 9 -65 -25 -86 -52 -12 -15 -21 -35 -21
-45 0 -16 -8 -19 -49 -19 -28 0 -53 -4 -56 -10 -4 -6 16 -10 54 -10 50 0 61
-3 66 -19 3 -10 17 -31 32 -45 23 -23 24 -26 7 -25 -10 1 -32 1 -48 1 -56 -3
-18 -12 75 -18 97 -6 148 -10 163 -12 5 -1 3 -9 -4 -17 -8 -9 -17 -12 -24 -6
-6 4 -45 11 -86 14 -73 6 -74 5 -53 -12 15 -12 46 -20 99 -24 76 -6 107 -1 85
12 -14 9 -2 51 15 51 7 0 16 -5 19 -10 4 -6 11 -7 17 -4 7 5 9 1 5 -9 -8 -21
11 -33 26 -18 9 9 7 11 -8 6 -16 -6 -17 -5 -5 4 11 8 18 7 27 -5 7 -10 17 -13
25 -8 10 6 10 4 -1 -9 -16 -20 -36 -23 -25 -4 5 8 2 8 -9 -2 -19 -15 -23 -26
-5 -15 7 5 8 3 3 -5 -4 -7 -17 -10 -30 -7 -13 3 -26 2 -29 -3 -8 -12 -46 -21
-46 -10 0 5 9 9 20 9 11 0 20 3 20 8 0 4 -32 7 -70 7 -68 0 -69 0 -47 -17 29
-22 86 -31 145 -23 26 3 117 8 202 11 180 5 289 21 158 23 -62 1 -78 4 -78 16
0 12 10 14 53 10 124 -12 177 -13 182 -5 3 5 19 7 35 3 17 -3 36 -1 42 4 7 5
42 18 78 28 36 10 70 22 76 27 7 5 61 34 120 64 60 31 129 69 154 84 25 16 68
34 95 40 78 18 101 29 124 61 14 18 30 28 44 28 l22 -2 -22 -4 c-13 -2 -23 -8
-23 -12 0 -13 77 -22 116 -15 51 9 42 27 -11 21 -25 -2 -48 -1 -50 3 -5 8 0 8
80 11 51 2 61 0 63 -15 4 -16 13 -18 85 -13 90 7 129 15 122 27 -2 4 -17 6
-32 4 -24 -4 -25 -3 -8 5 16 8 17 10 4 10 -9 1 -29 -6 -45 -14 -15 -8 -30 -12
-32 -10 -7 6 25 35 39 35 7 0 22 9 34 20 18 17 36 19 148 21 70 0 130 5 133
11 4 6 -47 7 -145 2 -146 -7 -166 -3 -140 23 5 5 12 31 13 57 2 26 6 50 10 53
3 4 103 7 221 8 167 2 218 5 232 16 11 9 14 10 9 2 -5 -10 6 -12 51 -7 77 7
105 13 99 22 -2 4 13 17 35 29 30 17 39 18 39 7 0 -8 -4 -14 -10 -14 -5 0 -25
-14 -44 -30 -19 -17 -38 -30 -43 -29 -27 5 -195 -2 -190 -8 4 -3 54 -6 112 -4
88 2 107 -1 123 -16 10 -10 27 -23 38 -30 18 -12 18 -12 -1 -6 -13 4 -17 3
-10 -4 14 -14 156 -50 240 -61 39 -5 105 -6 148 -3 83 6 97 5 97 -10 0 -6 -5
-7 -11 -4 -6 4 -31 4 -57 0 l-47 -8 50 -13 c28 -8 61 -13 75 -12 14 0 30 -1
35 -3 6 -1 19 0 30 3 11 3 48 12 83 19 34 7 62 16 62 19 0 3 -32 3 -71 2 -49
-3 -69 0 -65 7 4 6 27 11 51 11 24 0 47 5 50 10 3 6 11 10 16 10 6 0 7 -5 4
-10 -3 -6 -2 -10 4 -10 5 0 13 5 16 10 3 6 15 10 25 10 10 0 20 5 22 12 3 8
36 12 99 13 52 1 119 7 149 13 82 17 120 21 120 14 0 -4 21 -7 48 -7 26 0 80
-3 120 -8 39 -4 72 -4 72 1 0 7 -19 10 -107 16 -11 0 -19 5 -16 9 3 5 -12 6
-34 3 -31 -5 -28 -2 19 13 76 25 118 56 118 87 0 50 -146 92 -325 95 -48 1
-70 4 -55 8 19 5 25 14 28 44 3 36 1 38 -40 56 -53 23 -164 33 -382 33 -149 0
-169 -2 -200 -20 -24 -14 -36 -17 -39 -9 -3 9 -8 9 -18 -1 -20 -19 -30 -14
-24 11 8 31 -18 55 -40 37 -12 -10 -18 -8 -34 11 l-19 24 -24 -22 c-30 -28
-34 -28 -41 -3 -7 27 -19 25 -56 -6 -20 -17 -31 -35 -31 -52 0 -21 -2 -24 -10
-12 -5 8 -10 27 -10 43 0 15 -4 27 -8 27 -18 0 -43 -38 -42 -66 1 -77 3 -90
13 -103 10 -12 9 -12 -11 -2 -42 22 -233 41 -417 40 -99 0 -188 -3 -197 -7
-10 -4 80 -7 200 -8 119 0 252 -6 296 -12 83 -13 166 -43 166 -62 0 -6 -20
-19 -44 -30 -41 -17 -89 -26 -256 -48 -30 -4 -128 -6 -218 -6 -141 1 -165 4
-182 19 -12 11 -20 13 -20 7 0 -7 5 -12 10 -12 19 0 10 -49 -15 -77 -28 -32
-32 -21 -9 27 13 26 14 37 5 51 -6 10 -11 27 -11 37 0 29 -11 33 -36 13 -28
-22 -60 -17 -75 11 -10 18 -12 19 -29 3 -18 -17 -38 -5 -25 15 3 6 -2 10 -12
11 -24 1 46 27 72 27 13 0 7 -5 -15 -13 -19 -7 -30 -14 -23 -14 6 -1 23 3 38
9 41 16 183 23 213 11 47 -18 224 -33 233 -20 5 8 26 10 68 6 34 -4 61 -3 61
2 0 5 -73 9 -162 8 -108 0 -170 3 -185 11 -12 7 -55 12 -95 13 -63 1 -68 2
-40 10 34 10 46 31 12 22 -27 -7 -56 28 -34 40 8 5 12 12 9 16 -2 5 4 16 15
26 11 10 20 23 20 29 0 6 -7 0 -16 -12 -18 -26 -34 -20 -34 13 0 31 25 55 57
55 22 0 24 -3 18 -22 -4 -13 -7 -37 -6 -55 1 -36 -22 -65 -44 -57 -8 4 -15 2
-15 -4 0 -15 22 -21 42 -10 25 12 50 102 37 135 -8 23 -13 25 -46 20 -40 -7
-91 -49 -99 -83 -5 -21 -6 -21 -102 13 -83 30 -114 35 -218 40 -125 6 -167 -3
-216 -45 -16 -13 -16 -16 -3 -26 12 -8 -11 -10 -89 -9 -58 1 -168 -1 -245 -5
-78 -4 -141 -4 -141 0 0 4 10 9 23 11 20 4 20 4 2 6 -17 1 -26 18 -50 89 -53
161 -125 281 -235 395 l-70 72 23 18 c12 10 33 28 47 41 51 46 138 105 151
102 8 -2 32 -6 54 -11 65 -13 169 -69 271 -147 52 -40 117 -90 143 -110 27
-20 63 -54 80 -75 35 -42 101 -170 101 -197 0 -9 5 -16 11 -16 26 0 -30 167
-82 247 -15 23 -35 57 -44 76 -19 41 -61 85 -135 142 -76 59 -109 73 -219 101
-100 25 -169 30 -199 15 -9 -5 -34 -16 -54 -25 -21 -8 -72 -38 -114 -66 l-76
-50 -76 63 c-102 83 -153 115 -234 146 -36 14 -67 31 -67 36 -1 10 28 56 91
147 18 26 48 71 66 100 18 29 62 98 97 153 36 55 65 106 65 113 0 6 5 12 10
12 6 0 10 5 10 10 0 15 -11 12 -45 -10z m9 -22 c-4 -7 -32 -51 -62 -98 -30
-47 -71 -111 -91 -143 -37 -59 -69 -107 -141 -209 l-39 -56 -40 10 -40 10 14
35 c8 19 27 51 43 71 15 21 41 56 56 80 31 46 286 312 299 312 5 0 5 -6 1 -12z
m-858 -284 c-11 -7 -23 -14 -28 -14 -17 0 -48 -81 -52 -137 -3 -32 -16 -94
-30 -138 -33 -107 -86 -311 -86 -334 0 -19 -58 -152 -70 -161 -4 -3 -10 -36
-14 -75 -3 -38 -8 -79 -10 -90 -3 -11 -5 -24 -5 -29 -1 -5 -4 -6 -7 -3 -4 4
-8 46 -10 94 -2 49 -6 108 -9 132 -5 44 -3 60 34 267 25 138 67 263 148 446
l25 56 66 1 c61 0 65 -1 48 -15z m69 -56 c28 -32 42 -54 35 -58 -7 -5 -6 -11
5 -20 8 -7 15 -17 15 -23 0 -13 -109 105 -109 118 0 6 17 -9 39 -32 22 -23 40
-39 40 -35 0 4 -21 28 -46 52 -26 25 -44 40 -40 33 8 -15 -10 -27 -20 -12 -6
10 11 28 28 29 3 0 27 -23 53 -52z m-31 -43 c39 -41 86 -126 86 -157 0 -9 5
-20 10 -23 18 -11 10 -23 -34 -49 -46 -27 -212 -196 -254 -259 -14 -20 -27
-36 -29 -34 -2 2 3 26 12 53 8 27 33 114 55 194 23 80 47 157 54 171 7 15 13
45 12 67 0 22 1 40 4 40 18 -1 21 4 10 17 -7 8 -9 22 -6 31 7 20 20 11 80 -51z
m126 -100 c0 -5 -5 -3 -10 5 -5 8 -10 20 -10 25 0 6 5 3 10 -5 5 -8 10 -19 10
-25z m419 -56 c136 -47 248 -127 413 -295 114 -117 126 -133 187 -239 54 -95
58 -105 39 -105 -9 0 -8 -4 2 -10 13 -9 13 -10 0 -9 -8 0 -35 29 -60 64 -94
133 -165 223 -175 221 -5 -1 -46 29 -90 68 -116 103 -162 139 -237 184 -70 43
-256 112 -301 112 -14 0 -29 5 -32 10 -3 6 5 10 18 10 14 0 40 6 58 14 40 17
65 13 178 -25z m-1073 8 c3 -3 -11 -22 -30 -43 -49 -51 -145 -245 -156 -314
-5 -30 -14 -181 -20 -334 -6 -154 -13 -282 -16 -285 -4 -3 -4 62 -2 144 3 83
3 124 1 93 -2 -32 -7 -58 -11 -58 -4 0 -6 -30 -5 -67 l2 -68 -11 45 c-7 25
-11 74 -11 110 1 46 -1 58 -7 40 -16 -50 -17 270 0 425 13 126 98 293 160 318
17 7 98 2 106 -6z m894 -37 c10 -7 0 -8 -33 -3 -29 3 -71 0 -103 -7 -53 -13
-55 -14 -32 -26 24 -13 44 -14 63 -3 6 4 22 9 37 13 l28 6 -38 -49 c-38 -51
-42 -60 -132 -241 -29 -58 -106 -202 -173 -319 -168 -299 -268 -516 -271 -583
-1 -14 -4 -24 -8 -21 -5 2 -8 -2 -8 -9 0 -9 -3 -9 -10 2 -5 8 -7 24 -5 35 5
23 9 50 30 190 36 250 83 408 166 564 58 109 152 237 217 295 29 27 40 41 31
46 -8 5 2 18 30 38 24 17 36 32 29 34 -7 3 -18 0 -24 -6 -7 -6 -22 -19 -34
-29 -12 -10 -19 -24 -16 -32 3 -8 -11 -28 -33 -47 -98 -87 -235 -310 -297
-483 -13 -38 -22 -57 -19 -41 6 28 -4 121 -11 113 -6 -5 -34 -166 -34 -190 0
-10 4 -16 9 -13 10 6 7 -92 -3 -102 -4 -3 -6 13 -4 37 2 29 -1 45 -10 48 -10
4 -12 -4 -7 -33 5 -31 4 -35 -5 -21 -9 13 -8 41 1 110 7 51 13 122 14 159 3
79 46 180 112 263 67 85 193 213 237 243 69 47 73 47 31 1 -38 -42 -38 -43 -5
-14 40 34 89 63 128 75 38 12 134 11 152 0z m-870 -49 c-1 -10 -6 -7 -15 9
-19 33 -18 50 0 26 8 -11 15 -27 15 -35z m924 31 c3 -5 -17 -46 -45 -93 -47
-79 -93 -171 -302 -599 -94 -193 -179 -340 -185 -321 -2 6 0 17 6 24 21 26
103 190 98 195 -7 7 4 26 -100 -178 -49 -96 -92 -177 -96 -180 -5 -3 -16 -30
-25 -60 -9 -30 -22 -68 -28 -84 -6 -17 -12 -37 -12 -45 -2 -23 -24 -60 -25
-41 0 11 -2 12 -8 3 -5 -7 -8 11 -8 41 1 30 4 49 8 43 5 -8 8 -6 8 5 0 9 5 20
12 24 8 5 9 0 4 -17 -3 -13 -9 -37 -11 -54 -3 -16 6 8 20 55 14 46 66 169 116
272 50 104 88 194 86 201 -3 7 -7 4 -12 -8 -33 -90 -184 -395 -185 -375 0 13
-1 13 -11 0 -9 -13 -10 -13 -6 0 2 8 10 14 16 13 6 -2 11 1 11 6 0 6 24 63 54
128 62 137 74 169 56 158 -13 -8 8 36 65 135 103 178 185 330 256 473 96 193
150 274 188 280 47 7 50 7 55 -1z m142 -57 c70 -34 244 -159 244 -176 0 -4
-55 -54 -122 -111 -68 -56 -164 -143 -214 -194 -84 -84 -96 -92 -140 -98 -117
-17 -174 -50 -174 -101 0 -14 -5 -25 -11 -25 -5 0 -7 -4 -4 -10 3 -5 14 -10
24 -10 9 0 26 -6 37 -14 18 -14 17 -17 -37 -73 -30 -32 -73 -78 -94 -103 -21
-25 -93 -103 -159 -174 -67 -70 -125 -134 -129 -142 -4 -8 -12 -14 -17 -14
-13 0 35 115 71 171 17 26 28 53 24 58 -7 12 14 56 22 47 3 -3 0 -12 -7 -21
-7 -9 -11 -18 -8 -20 8 -8 92 123 151 235 31 58 103 204 160 326 57 121 139
283 182 358 89 158 76 152 201 91z m696 24 c97 -19 228 -71 248 -97 11 -14 20
-21 20 -17 0 5 10 -1 23 -13 13 -12 27 -19 32 -15 4 5 5 3 1 -4 -3 -6 -2 -14
4 -18 5 -3 10 0 10 7 1 20 66 -58 89 -107 11 -24 25 -46 31 -50 12 -8 42 -76
36 -82 -3 -3 -12 9 -20 26 -21 40 -76 102 -85 96 -4 -2 -28 13 -53 34 -77 63
-221 168 -258 187 -19 9 -66 28 -105 40 -75 24 -60 31 27 13z m-147 -18 c-6
-6 -24 -20 -42 -33 -17 -13 -57 -43 -88 -67 -41 -31 -60 -40 -68 -32 -6 6 -9
12 -6 14 16 13 150 97 174 110 35 19 43 21 30 8z m-1670 -83 c9 -40 23 -86 30
-103 38 -85 122 -677 94 -659 -5 3 -9 19 -9 36 0 60 -102 343 -213 592 l-21
48 43 84 c24 46 47 81 51 79 4 -3 15 -37 25 -77z m93 27 c18 -67 13 -77 -9
-20 -16 44 -18 46 -14 15 5 -31 4 -32 -5 -11 -10 24 -5 61 9 61 4 0 12 -20 19
-45z m-542 -172 c20 -31 45 -76 57 -100 12 -23 25 -43 29 -43 5 0 1 12 -8 28
-16 27 -16 27 2 5 86 -99 105 -131 102 -173 l-3 -42 -65 96 c-110 161 -159
246 -153 263 4 10 2 14 -4 10 -5 -3 -10 0 -10 8 0 22 14 8 53 -52z m1848 25
c87 -84 128 -116 110 -85 -5 8 -3 8 9 -2 9 -7 14 -17 11 -22 -2 -5 13 -28 34
-51 63 -70 156 -198 200 -276 l41 -72 -42 7 c-23 5 -61 7 -85 7 -37 -1 -40 0
-25 12 17 12 17 13 -1 27 -45 33 -435 105 -501 92 -33 -6 -53 -29 183 216 50
53 92 101 92 107 0 6 -44 -35 -97 -91 -400 -420 -878 -870 -914 -860 -5 2 -15
-9 -23 -25 -15 -28 -66 -81 -66 -68 0 15 75 105 85 102 5 -1 21 14 36 33 14
20 42 52 61 71 19 19 68 73 108 120 40 47 132 149 204 226 72 78 152 167 179
197 37 44 371 344 385 346 2 1 9 -5 16 -11z m-1475 -100 c22 -57 62 -157 89
-223 27 -66 52 -131 56 -145 6 -24 6 -24 -9 3 -27 48 -24 29 10 -55 38 -97 51
-143 35 -133 -5 3 -10 15 -10 25 0 10 -6 25 -13 32 -8 7 -24 43 -36 78 -21 65
-50 121 -35 71 20 -72 81 -231 86 -225 4 3 4 -5 2 -18 -5 -21 -4 -21 11 5 19
32 20 33 22 7 1 -12 -3 -18 -9 -14 -6 4 -8 -1 -3 -16 5 -15 4 -20 -4 -16 -15
9 -14 4 5 -43 8 -22 14 -50 12 -63 -5 -25 -5 -25 -32 57 -14 45 -16 19 -2 -30
4 -11 -1 -5 -10 14 -8 19 -13 44 -10 55 6 26 -39 174 -47 155 -4 -8 -4 0 -1
16 4 19 2 25 -3 17 -6 -8 -20 14 -43 70 -19 46 -58 134 -87 196 l-52 112 11
85 c6 47 14 85 19 85 4 0 26 -46 48 -102z m50 -388 c63 -147 112 -329 116
-427 2 -64 -8 -83 -19 -38 -4 14 -10 25 -15 25 -5 0 -25 38 -46 85 -21 47 -42
85 -46 85 -5 0 -24 30 -43 68 -19 37 -46 84 -60 105 -23 34 -26 47 -26 125 l1
87 55 -110 c60 -119 165 -377 168 -411 1 -19 26 -55 26 -38 0 25 -45 160 -70
213 -17 34 -30 64 -30 66 0 3 -33 74 -74 158 -52 109 -73 163 -71 187 1 19 2
53 3 75 l2 40 36 -80 c20 -44 62 -141 93 -215z m286 150 c-4 -34 -9 -59 -12
-57 -2 3 -1 33 3 66 4 34 9 60 11 57 3 -3 2 -32 -2 -66z m52 -59 c-1 -32 -5
-57 -9 -55 -3 2 -9 -2 -12 -8 -3 -7 -4 -4 -1 7 2 11 7 41 11 68 3 26 8 47 10
47 2 0 2 -27 1 -59z m1018 4 c130 -20 315 -64 315 -76 0 -5 -6 -9 -12 -10 -7
0 -22 -2 -32 -4 -10 -2 -28 3 -40 10 -32 21 -67 24 -104 9 -27 -11 -38 -11
-76 3 -39 15 -51 15 -102 3 -48 -12 -54 -15 -34 -21 23 -5 22 -7 -15 -18 -22
-6 -70 -17 -107 -23 -38 -7 -68 -16 -68 -20 0 -11 54 -2 145 25 49 14 97 20
162 20 70 -1 93 2 97 13 6 16 64 19 86 3 11 -8 2 -9 -32 -4 -31 4 -48 2 -48
-4 0 -6 15 -11 34 -11 68 0 50 -31 -27 -45 -20 -4 -37 -11 -37 -15 0 -4 -10
-5 -23 -3 -13 3 -50 -2 -83 -11 -32 -8 -113 -18 -179 -22 -102 -5 -126 -4
-152 10 -18 9 -44 16 -58 16 -26 0 -25 2 22 45 48 44 49 44 121 45 48 0 71 4
67 10 -4 7 -29 8 -68 4 l-62 -6 45 46 c43 45 46 46 105 46 33 0 105 -7 160
-15z m435 5 c0 -5 -2 -10 -4 -10 -3 0 -8 5 -11 10 -3 6 -1 10 4 10 6 0 11 -4
11 -10z m-900 -75 c-36 -36 -67 -65 -70 -65 -3 0 -19 9 -37 19 -37 23 -36 50
4 76 24 16 153 46 162 38 3 -2 -24 -33 -59 -68z m-630 -27 l-5 -63 -3 49 c-3
43 2 76 10 76 2 0 1 -28 -2 -62z m2495 -7 c72 -24 136 -47 143 -53 39 -33 -22
-63 -167 -84 -97 -14 -111 -13 -159 2 -29 9 -67 28 -84 42 -17 15 -29 20 -26
12 7 -21 51 -51 89 -60 34 -8 34 -8 -11 -9 -48 -1 -131 18 -168 38 -24 13 -74
15 -129 7 -35 -5 -46 3 -37 27 9 26 55 37 149 36 50 0 111 0 137 1 41 0 135
-18 183 -36 8 -3 15 -2 15 4 0 6 -19 15 -42 21 -24 5 -63 15 -88 21 -25 7 -79
12 -120 11 -124 -1 -143 15 -57 48 85 35 208 25 372 -28z m1049 9 c5 -21 0
-29 -39 -52 -25 -15 -45 -34 -45 -43 0 -13 -4 -14 -20 -5 -26 14 -43 57 -35
87 8 32 25 29 25 -4 0 -38 14 -57 35 -50 11 5 14 13 10 28 -5 15 1 29 21 50
30 31 39 29 48 -11z m-2416 22 c7 -5 -11 -8 -40 -9 -36 0 -47 2 -33 8 26 10
57 11 73 1z m2503 -15 c8 -17 6 -30 -5 -52 -8 -15 -13 -32 -10 -37 3 -4 -2 -8
-10 -8 -19 0 -46 38 -46 65 1 18 2 18 16 -5 l15 -25 -6 28 c-6 28 8 57 26 57
5 0 14 -10 20 -23z m-980 -29 c6 -11 5 -19 -3 -24 -7 -4 -8 -3 -4 4 4 7 2 12
-4 12 -6 0 -8 5 -5 10 3 6 2 10 -4 10 -6 0 -7 8 -4 17 5 14 8 14 11 2 3 -7 9
-22 13 -31z m1045 16 c1 -5 -16 -25 -39 -44 l-41 -35 20 30 c12 17 24 38 27
48 7 19 29 19 33 1z m-2236 -15 c130 -12 155 -29 45 -30 -44 0 -88 -4 -97 -7
-10 -4 -37 -6 -61 -4 -42 4 -44 5 -34 26 13 27 14 27 147 15z m2870 -9 c47
-13 72 -32 65 -51 -3 -8 -26 -26 -51 -39 -41 -23 -55 -25 -178 -25 -86 0 -132
-4 -129 -10 3 -5 0 -4 -8 3 -7 6 -28 12 -45 12 -18 0 -36 4 -39 10 -3 5 0 8 7
5 7 -2 38 2 68 10 l55 14 -70 -6 c-95 -8 -131 -7 -197 6 -48 10 -55 15 -51 31
7 26 26 41 66 51 41 10 461 1 507 -11z m-605 -69 c-16 -31 -4 -45 13 -15 8 14
14 13 58 -11 l49 -26 -60 5 c-77 6 -98 14 -89 35 3 9 9 25 12 36 2 11 10 26
16 34 19 24 20 -23 1 -58z m-151 -29 c-4 -15 -7 -30 -6 -33 3 -16 -60 1 -78
21 -29 34 -25 53 17 77 l38 22 18 -30 c14 -21 17 -37 11 -57z m126 70 c0 -26
-23 -71 -40 -78 -8 -3 -27 -10 -43 -14 -26 -8 -27 -7 -20 18 3 15 10 29 16 31
5 2 24 16 41 32 36 33 46 36 46 11z m-3683 -72 c8 -20 3 -152 -6 -188 -4 -15
-6 22 -3 82 3 62 1 107 -4 103 -5 -3 -8 8 -8 24 2 41 6 48 11 19 2 -14 7 -32
10 -40z m696 13 c-7 -2 -19 -2 -25 0 -7 3 -2 5 12 5 14 0 19 -2 13 -5z m2727
-8 c7 -8 17 -12 24 -8 6 3 5 0 -2 -8 -13 -15 -42 -4 -50 19 -5 17 13 15 28 -3z
m440 -4 c0 -5 -9 -7 -20 -4 -11 3 -20 7 -20 9 0 2 9 4 20 4 11 0 20 -4 20 -9z
m112 -35 c15 2 30 -1 33 -7 4 -5 -30 -10 -82 -11 -48 -1 -116 -2 -150 -3 -34
0 -60 2 -57 6 2 4 -6 10 -18 13 -13 2 21 3 75 2 54 -2 100 0 102 5 3 4 20 4
37 0 18 -4 45 -6 60 -5z m603 -1 c95 -23 155 -49 155 -70 0 -17 -43 -48 -69
-50 -9 0 -21 -4 -27 -8 -6 -3 -24 -2 -40 3 -48 14 -119 29 -123 25 -2 -2 3
-11 11 -19 12 -11 18 -12 27 -3 8 8 11 8 11 -2 0 -7 5 -9 10 -6 6 3 10 2 10
-4 0 -5 -4 -13 -10 -16 -5 -3 -10 -1 -10 6 0 8 -3 9 -13 0 -8 -6 -17 -8 -20
-4 -4 3 -7 1 -7 -5 0 -15 -47 -22 -172 -26 -97 -3 -107 -1 -111 15 -6 22 -45
39 -90 40 -30 0 -31 1 -9 11 12 6 22 15 22 20 0 5 -8 4 -19 -1 -10 -6 -70 -11
-135 -12 -64 -1 -116 -6 -116 -11 0 -5 48 -8 108 -7 59 0 120 -4 135 -10 16
-6 39 -11 51 -11 13 0 29 -6 35 -14 9 -11 6 -18 -17 -35 -18 -13 -32 -17 -38
-11 -6 6 -52 10 -104 11 -76 0 -111 -5 -175 -25 -113 -36 -196 -32 -372 19
-69 20 -112 57 -97 82 15 24 72 51 120 55 22 2 46 8 54 13 20 13 325 17 375 6
22 -6 60 -13 85 -16 24 -4 53 -11 63 -17 10 -5 21 -7 24 -5 10 11 -40 29 -94
34 -53 6 -57 22 -5 23 12 0 22 4 22 8 0 4 17 9 38 9 112 5 184 11 189 17 9 8
287 0 328 -9z m-4598 -17 c-3 -8 -6 -5 -6 6 -1 11 2 17 5 13 3 -3 4 -12 1 -19z
m132 -82 c-24 -53 -45 -94 -47 -92 -2 3 15 48 38 101 24 53 45 94 47 91 3 -2
-15 -47 -38 -100z m3331 94 c0 -5 -2 -10 -4 -10 -3 0 -8 5 -11 10 -3 6 -1 10
4 10 6 0 11 -4 11 -10z m220 -2 c0 -5 10 -8 22 -8 12 0 19 -3 16 -6 -9 -8 -98
7 -98 17 0 4 13 7 30 6 16 -1 30 -5 30 -9z m-80 -18 l45 -9 -45 3 c-25 2 -69
0 -98 -4 -28 -3 -52 -3 -52 1 0 19 75 23 150 9z m-1033 -52 c-31 -24 -42 0
-14 30 20 21 22 22 28 5 5 -12 0 -24 -14 -35z m-197 -54 c0 -28 -4 -43 -10
-39 -5 3 -10 16 -10 29 0 32 -10 39 -32 19 -17 -15 -18 -15 -18 4 0 11 5 35
12 53 l11 33 24 -27 c17 -20 23 -39 23 -72z m85 64 c8 -21 10 -37 4 -42 -5 -6
-9 -20 -9 -33 0 -29 -26 -31 -35 -2 -4 12 -12 18 -21 15 -19 -7 -9 52 13 76
23 25 32 23 48 -14z m235 -20 c-1 -38 -2 -41 -14 -26 -7 10 -16 15 -19 11 -11
-11 -8 -23 6 -20 19 3 20 -65 2 -109 -17 -42 -29 -37 -39 17 -5 26 -2 40 9 49
11 9 14 22 9 47 -5 25 -2 39 11 53 27 30 35 24 35 -22z m-418 15 c8 -10 18
-32 21 -50 5 -25 3 -31 -10 -29 -24 4 -50 45 -45 72 5 29 14 30 34 7z m268
-70 c0 -25 -4 -31 -15 -27 -9 4 -15 1 -15 -7 0 -7 -6 -5 -14 7 -8 10 -18 15
-22 11 -5 -4 -2 -12 6 -17 13 -8 12 -10 -2 -10 -27 0 -22 47 8 88 l27 35 13
-24 c7 -13 13 -38 14 -56z m86 11 c-8 -40 -17 -48 -30 -23 -12 25 -36 37 -36
19 0 -6 4 -9 9 -6 10 6 21 -16 21 -43 0 -19 -86 -108 -96 -99 -12 13 8 66 36
93 23 22 28 34 23 56 -4 24 0 31 28 48 l34 21 7 -21 c5 -12 6 -32 4 -45z
m-400 17 c10 -16 28 -35 41 -42 12 -7 32 -32 44 -56 11 -23 24 -43 28 -43 7 0
31 -44 31 -56 0 -3 -10 2 -22 10 -12 9 -33 16 -45 16 -13 0 -29 11 -39 25 -16
24 -15 34 1 80 l7 20 -17 -20 c-16 -20 -17 -20 -41 8 -24 28 -34 87 -15 87 6
0 18 -13 27 -29z m124 -66 c4 -11 11 -36 14 -55 l6 -35 -30 35 c-32 38 -37 69
-17 101 12 19 12 19 15 -3 2 -13 7 -32 12 -43z m-167 24 c4 -16 3 -18 -9 -8
-16 13 -19 29 -5 29 5 0 11 -9 14 -21z m287 -94 c0 -16 -4 -14 -19 11 -28 46
-41 51 -62 23 l-19 -24 0 28 c0 16 5 38 11 49 10 19 13 18 50 -23 21 -24 39
-53 39 -64z m-305 85 c3 -5 21 -17 39 -25 24 -12 35 -24 38 -44 4 -25 1 -28
-26 -28 -17 0 -25 2 -18 5 7 2 -1 13 -20 26 -21 14 -34 31 -36 49 -3 26 11 37
23 17z m-2725 -18 c0 -5 -14 -48 -31 -98 -27 -77 -32 -108 -37 -234 -6 -131
-8 -138 -13 -75 -5 54 -6 43 -4 -45 1 -63 0 -105 -2 -92 -3 12 -9 22 -15 22
-6 0 -8 11 -6 25 3 13 2 22 -3 20 -21 -14 -11 219 16 340 17 80 29 121 38 133
10 13 57 17 57 4z m60 -33 c0 -6 4 -8 8 -5 5 3 24 -5 43 -16 19 -12 40 -23 47
-24 47 -9 215 -144 210 -170 -2 -7 0 -12 4 -11 3 1 17 -8 30 -21 14 -12 28
-19 33 -15 4 5 5 2 1 -5 -4 -7 -2 -20 6 -29 11 -14 11 -16 -1 -8 -11 6 -13 4
-8 -8 3 -10 2 -17 -2 -17 -12 0 -22 28 -11 32 5 2 -1 14 -12 28 l-21 25 8 -25
c6 -22 4 -21 -24 10 -31 36 -40 57 -19 44 7 -4 8 -3 4 5 -4 6 -11 9 -16 6 -5
-3 -12 0 -16 6 -4 8 -3 9 4 5 7 -4 12 -3 12 3 0 5 -4 13 -10 16 -5 3 -10 1
-10 -6 0 -8 -7 -5 -20 6 -10 9 -18 22 -17 27 1 6 -6 12 -15 13 -9 2 13 -32 54
-81 39 -46 73 -82 77 -80 4 3 7 -4 7 -15 0 -25 -2 -25 -39 19 -69 80 -140 152
-146 146 -3 -3 3 -12 13 -20 11 -7 17 -16 14 -19 -2 -3 -13 4 -23 15 -10 11
-23 20 -29 20 -5 0 8 -18 29 -40 21 -22 34 -40 28 -40 -6 0 -17 7 -24 16 -19
23 -131 108 -146 110 -6 1 -29 15 -50 30 -21 16 -40 29 -41 30 -2 1 4 18 13
38 15 30 20 34 36 25 10 -5 19 -14 19 -20z m3213 -35 c-11 -21 -32 -41 -50
-49 l-33 -14 27 42 c15 23 36 53 47 65 18 20 22 21 24 8 2 -9 -5 -33 -15 -52z
m-96 28 c8 -41 6 -83 -5 -94 -15 -15 -122 -24 -122 -10 0 6 3 12 8 14 4 2 29
29 56 60 50 58 57 62 63 30z m-2736 8 c0 8 4 4 8 -10 4 -15 3 -28 -3 -32 -7
-5 -7 -8 -1 -8 14 0 16 -73 2 -82 -9 -6 -9 -8 1 -8 6 0 12 -4 12 -10 0 -5 -7
-7 -15 -4 -10 4 -15 0 -16 -12 0 -18 -1 -17 -9 1 -11 26 -12 44 -1 27 11 -17
23 40 16 74 -15 73 -16 79 -5 64 9 -13 10 -13 11 0z m2562 -32 c38 -51 41 -72
13 -88 -30 -16 -50 -9 -72 25 -16 24 -16 29 -1 61 9 19 21 34 26 34 6 0 21
-15 34 -32z m1545 18 c-7 -8 -15 -12 -17 -11 -5 6 10 25 20 25 5 0 4 -6 -3
-14z m-83 -6 c3 -5 -1 -10 -10 -10 -9 0 -13 5 -10 10 3 6 8 10 10 10 2 0 7 -4
10 -10z m55 -4 c0 -2 -7 -7 -16 -10 -8 -3 -12 -2 -9 4 6 10 25 14 25 6z m-30
-36 c0 -5 -2 -10 -4 -10 -3 0 -8 5 -11 10 -3 6 -1 10 4 10 6 0 11 -4 11 -10z
m40 0 c0 -5 -4 -10 -10 -10 -5 0 -10 5 -10 10 0 6 5 10 10 10 6 0 10 -4 10
-10z m-103 -16 c-3 -3 -12 -4 -19 -1 -8 3 -5 6 6 6 11 1 17 -2 13 -5z m-1227
-64 c0 -5 -15 -9 -32 -9 l-33 1 30 8 c17 4 31 8 33 9 1 0 2 -3 2 -9z m-2746
-63 c4 -19 3 -26 -4 -22 -5 3 -10 18 -10 32 0 32 5 28 14 -10z m-164 -21 c8
-12 32 -40 53 -63 22 -24 35 -43 29 -43 -12 0 -122 119 -122 132 0 13 22 -2
40 -26z m274 -11 c-4 -8 -8 -15 -10 -15 -2 0 -4 7 -4 15 0 8 4 15 10 15 5 0 7
-7 4 -15z m-83 -45 c4 -19 5 -37 3 -39 -8 -8 -16 8 -18 33 0 14 -4 26 -8 26
-5 0 -8 5 -8 10 0 26 26 1 31 -30z m989 -74 c0 -2 -7 -6 -15 -10 -8 -3 -15 -1
-15 4 0 6 7 10 15 10 8 0 15 -2 15 -4z m44 -19 c-3 -10 4 -13 29 -11 35 3 78
-18 64 -32 -4 -4 -14 1 -22 12 -10 13 -13 14 -10 3 4 -10 0 -16 -10 -16 -8 0
-15 4 -15 8 0 4 -11 6 -24 5 -18 -2 -23 1 -21 18 3 24 3 26 10 26 2 0 2 -6 -1
-13z m-27 -23 c-4 -4 -17 -2 -29 4 l-23 12 24 -6 c18 -5 22 -3 16 7 -6 11 -5
12 5 2 8 -7 11 -16 7 -19z m453 -85 c3 -1 -11 -4 -30 -8 -40 -8 -130 -2 -130
8 0 5 145 6 160 0z m-160 -19 c11 -7 5 -10 -23 -10 -23 0 -36 4 -32 10 8 13
35 13 55 0z"/>
<path d="M1100 2246 c0 -2 8 -10 18 -17 15 -13 16 -12 3 4 -13 16 -21 21 -21
13z"/>
<path d="M1090 2216 c0 -2 8 -10 18 -17 15 -13 16 -12 3 4 -13 16 -21 21 -21
13z"/>
<path d="M2150 1906 c0 -2 8 -10 18 -17 15 -13 16 -12 3 4 -13 16 -21 21 -21
13z"/>
<path d="M2280 1791 c0 -6 3 -11 8 -11 4 0 20 -18 36 -40 16 -21 33 -37 37
-34 4 2 11 -1 15 -7 4 -8 3 -9 -4 -5 -7 4 -12 4 -12 1 0 -11 102 -157 107
-152 6 6 -29 76 -72 143 -32 50 -115 126 -115 105z m129 -143 c12 -21 20 -38
18 -38 -7 0 -47 65 -47 75 0 10 1 8 29 -37z"/>
<path d="M509 1543 c-2 -39 -1 -69 3 -67 4 2 9 -10 11 -28 3 -29 4 -29 4 7 1
22 -2 67 -6 100 l-7 60 -5 -72z"/>
<path d="M1464 2065 c-31 -24 -32 -26 -22 -67 6 -24 11 -55 11 -70 0 -15 4
-25 9 -22 4 3 8 38 8 78 0 65 3 75 23 89 12 9 18 16 12 16 -5 1 -24 -10 -41
-24z"/>
<path d="M1240 1931 c0 -6 4 -13 10 -16 6 -3 7 1 4 9 -7 18 -14 21 -14 7z"/>
<path d="M1177 1649 c7 -7 15 -10 18 -7 3 3 -2 9 -12 12 -14 6 -15 5 -6 -5z"/>
<path d="M1050 1216 c0 -2 8 -10 18 -17 15 -13 16 -12 3 4 -13 16 -21 21 -21
13z"/>
<path d="M1268 1403 c7 -3 16 -2 19 1 4 3 -2 6 -13 5 -11 0 -14 -3 -6 -6z"/>
<path d="M1246 1341 c-4 -5 3 -7 14 -4 23 6 26 13 6 13 -8 0 -17 -4 -20 -9z"/>
<path d="M2010 1886 c0 -2 8 -10 18 -17 15 -13 16 -12 3 4 -13 16 -21 21 -21
13z"/>
<path d="M1573 1735 c0 -8 4 -12 9 -9 5 3 6 10 3 15 -9 13 -12 11 -12 -6z"/>
<path d="M1685 1589 c-4 -6 -5 -12 -2 -15 2 -3 7 2 10 11 7 17 1 20 -8 4z"/>
<path d="M2780 1981 c-8 -6 -19 -7 -25 -5 -5 3 8 -10 29 -28 22 -18 64 -54 93
-80 36 -31 60 -45 71 -41 9 4 11 8 5 10 -7 3 -10 10 -7 17 2 6 -9 25 -26 41
-19 19 -30 24 -30 14 0 -11 -2 -12 -9 -1 -4 8 -12 13 -17 13 -5 -1 -9 5 -9 12
0 6 -4 12 -10 12 -20 1 -55 26 -50 36 8 11 4 11 -15 0z m30 -31 c15 -11 31
-16 35 -12 5 4 5 2 1 -5 -7 -12 32 -45 44 -38 10 6 43 -32 46 -51 3 -17 -5
-12 -71 46 -22 19 -53 45 -70 57 -16 12 -26 23 -22 23 5 0 21 -9 37 -20z"/>
<path d="M2905 1870 c10 -11 20 -20 23 -20 3 0 -3 9 -13 20 -10 11 -20 20 -23
20 -3 0 3 -9 13 -20z"/>
<path d="M260 1851 c5 -11 15 -23 21 -27 6 -3 3 5 -6 20 -20 30 -30 35 -15 7z"/>
<path d="M1786 1542 c-3 -5 1 -9 9 -9 8 0 12 4 9 9 -3 4 -7 8 -9 8 -2 0 -6 -4
-9 -8z"/>
<path d="M1766 1508 c3 -5 10 -6 15 -3 13 9 11 12 -6 12 -8 0 -12 -4 -9 -9z"/>
<path d="M1733 1465 c0 -8 4 -12 9 -9 5 3 6 10 3 15 -9 13 -12 11 -12 -6z"/>
<path d="M716 1440 c10 -38 45 -119 39 -89 -2 15 -14 46 -25 70 -11 24 -17 33
-14 19z"/>
<path d="M632 1301 c19 -49 133 -289 136 -286 4 3 -29 81 -98 233 -16 34 -32
62 -35 62 -4 0 -5 -4 -3 -9z"/>
<path d="M654 1200 c17 -32 32 -57 34 -55 5 4 -46 103 -56 109 -5 3 5 -21 22
-54z"/>
<path d="M1950 1429 c0 -5 9 -9 20 -9 11 0 20 2 20 4 0 2 -9 6 -20 9 -11 3
-20 1 -20 -4z"/>
<path d="M3366 1352 c-3 -5 1 -9 9 -9 8 0 12 4 9 9 -3 4 -7 8 -9 8 -2 0 -6 -4
-9 -8z"/>
<path d="M4953 1329 c-18 -12 -33 -25 -33 -30 0 -6 17 2 38 18 20 15 39 28 41
30 2 2 0 3 -5 3 -5 0 -24 -10 -41 -21z"/>
<path d="M5071 1296 c-19 -11 -21 -14 -7 -19 9 -4 16 -2 16 3 0 6 9 10 20 10
11 0 20 5 20 10 0 14 -20 12 -49 -4z"/>
<path d="M5330 1205 c0 -15 18 -40 24 -34 3 3 -1 14 -9 25 -8 10 -14 15 -15 9z"/>
<path d="M5430 1186 c0 -8 5 -18 10 -21 6 -3 10 1 10 9 0 8 -4 18 -10 21 -5 3
-10 -1 -10 -9z"/>
<path d="M5188 1168 c24 -11 46 -17 49 -14 6 6 -64 36 -81 35 -6 0 9 -10 32
-21z"/>
<path d="M4690 1140 c0 -4 27 -13 60 -19 33 -7 62 -16 64 -20 8 -12 -84 -23
-122 -15 -18 4 -32 2 -32 -3 0 -11 29 -13 108 -7 43 4 62 10 62 19 0 8 -4 16
-9 19 -18 11 -131 34 -131 26z"/>
<path d="M5645 1139 c-3 -4 2 -6 10 -5 21 3 28 13 10 13 -9 0 -18 -4 -20 -8z"/>
<path d="M4656 1125 c4 -8 8 -15 10 -15 2 0 4 7 4 15 0 8 -4 15 -10 15 -5 0
-7 -7 -4 -15z"/>
<path d="M5360 1135 c0 -2 18 -9 40 -15 22 -6 39 -16 37 -22 -1 -7 6 -14 16
-16 18 -4 18 -2 2 21 -16 24 -95 51 -95 32z"/>
<path d="M5180 1116 c0 -2 7 -7 16 -10 8 -3 12 -2 9 4 -6 10 -25 14 -25 6z"/>
<path d="M5215 1090 c-4 -6 8 -10 29 -10 20 0 36 5 36 10 0 6 -13 10 -29 10
-17 0 -33 -4 -36 -10z"/>
<path d="M4742 1033 c-29 -14 -51 -27 -48 -30 5 -6 116 43 116 51 0 9 -12 6
-68 -21z"/>
<path d="M4810 1020 c-14 -11 -20 -20 -15 -20 6 0 21 9 35 20 14 11 21 20 15
20 -5 0 -21 -9 -35 -20z"/>
<path d="M303 630 c0 -36 2 -50 4 -32 2 17 2 47 0 65 -2 17 -4 3 -4 -33z"/>
<path d="M430 1000 c0 -5 0 -13 1 -16 0 -4 -5 -10 -11 -14 -8 -5 6 -19 37 -39
l48 -32 -40 36 c-22 19 -34 35 -27 35 7 0 10 5 6 11 -4 8 0 8 15 0 25 -14 28
-23 4 -14 -11 4 -14 3 -9 -6 4 -6 16 -9 26 -6 10 3 21 1 25 -4 4 -7 -1 -8 -12
-4 -22 7 -13 -2 45 -46 23 -18 42 -28 42 -22 0 5 -8 14 -17 19 -9 6 -18 17
-19 26 -1 9 2 14 7 10 5 -3 7 -10 4 -15 -4 -5 1 -9 10 -9 12 0 15 5 11 16 -3
9 -6 18 -6 20 0 3 -4 3 -9 -1 -5 -3 -12 -1 -16 4 -3 6 -12 8 -21 4 -9 -3 -14
0 -12 8 2 9 -4 13 -16 11 -12 -2 -16 1 -10 9 4 7 3 10 -3 6 -6 -4 -16 0 -23 8
-14 17 -30 20 -30 5z m107 -65 c0 -17 -13 -20 -21 -6 -4 5 0 12 6 14 7 3 13 6
14 6 0 1 1 -6 1 -14z"/>
<path d="M106 2532 c-3 -5 1 -9 9 -9 8 0 12 4 9 9 -3 4 -7 8 -9 8 -2 0 -6 -4
-9 -8z"/>
<path d="M1066 2418 c3 -5 10 -6 15 -3 13 9 11 12 -6 12 -8 0 -12 -4 -9 -9z"/>
<path d="M1381 2384 c0 -11 3 -14 6 -6 3 7 2 16 -1 19 -3 4 -6 -2 -5 -13z"/>
<path d="M1637 2249 c7 -7 15 -10 18 -7 3 3 -2 9 -12 12 -14 6 -15 5 -6 -5z"/>
<path d="M2280 1906 c0 -8 4 -17 9 -20 5 -4 7 3 4 14 -6 23 -13 26 -13 6z"/>
<path d="M250 1741 c0 -6 4 -13 10 -16 6 -3 7 1 4 9 -7 18 -14 21 -14 7z"/>
<path d="M4389 1458 c-6 -21 -5 -37 2 -32 5 3 7 9 4 14 -3 4 1 11 7 13 10 4
10 6 1 6 -7 1 -13 0 -14 -1z"/>
<path d="M4676 1448 c3 -5 10 -6 15 -3 13 9 11 12 -6 12 -8 0 -12 -4 -9 -9z"/>
<path d="M2686 1429 c7 -11 119 -7 131 5 3 3 -26 6 -66 6 -50 0 -70 -3 -65
-11z"/>
<path d="M2890 1430 c0 -12 47 -12 75 0 15 6 8 9 -27 9 -27 1 -48 -3 -48 -9z"/>
<path d="M3559 1423 c-13 -16 -12 -17 4 -4 16 13 21 21 13 21 -2 0 -10 -8 -17
-17z"/>
<path d="M4691 1414 c6 -7 16 -11 21 -8 11 7 3 17 -18 20 -12 2 -13 -1 -3 -12z"/>
<path d="M2650 1410 c-9 -6 -10 -10 -3 -10 6 0 15 5 18 10 8 12 4 12 -15 0z"/>
<path d="M3930 1370 c0 -4 64 -10 143 -13 78 -4 161 -9 185 -13 27 -4 42 -3
42 4 0 6 -28 13 -62 16 -109 9 -308 13 -308 6z"/>
<path d="M3672 1358 c-14 -14 -16 -28 -3 -28 9 0 24 30 18 36 -2 2 -9 -2 -15
-8z"/>
<path d="M5480 1288 c0 -6 310 -17 319 -11 2 2 2 5 0 7 -7 7 -319 11 -319 4z"/>
<path d="M5885 1290 c-3 -6 1 -7 9 -4 18 7 21 14 7 14 -6 0 -13 -4 -16 -10z"/>
<path d="M5840 1270 c19 -13 30 -13 30 0 0 6 -10 10 -22 10 -19 0 -20 -2 -8
-10z"/>
<path d="M2880 1230 c0 -5 5 -10 11 -10 5 0 7 5 4 10 -3 6 -8 10 -11 10 -2 0
-4 -4 -4 -10z"/>
<path d="M5735 1206 c1 -11 7 -21 14 -22 6 -1 7 0 1 3 -6 3 -6 11 0 22 6 13 5
18 -4 18 -7 0 -12 -9 -11 -21z"/>
<path d="M1690 1188 c-11 -18 -20 -43 -20 -55 0 -26 -15 -31 -24 -7 -8 22 -26
7 -26 -22 0 -35 23 -75 57 -100 22 -16 130 -54 155 -54 3 0 -2 17 -12 38 -29
61 -31 85 -10 120 11 18 24 32 30 32 5 0 22 -19 37 -42 21 -34 27 -54 26 -92
l-1 -50 32 39 c35 42 54 36 30 -9 -18 -37 -19 -36 18 -36 38 0 34 -5 -10 -13
-21 -4 -31 -3 -27 3 3 6 -3 10 -15 10 -12 0 -18 -4 -15 -10 3 -5 -1 -10 -9
-10 -9 0 -16 4 -16 8 0 5 -23 7 -50 4 -28 -2 -67 2 -88 9 -20 7 -42 13 -49 13
-7 1 -19 10 -27 21 -13 17 -15 18 -16 3 0 -9 10 -24 22 -32 22 -15 21 -16 -26
-16 -27 0 -46 -3 -43 -6 4 -4 64 -8 135 -10 71 -1 149 -5 173 -9 41 -6 83 -1
179 22 28 7 31 10 17 16 -11 4 -23 4 -29 1 -5 -3 -34 -3 -63 1 -53 6 -54 7
-45 31 12 31 12 35 0 54 -7 12 -12 12 -29 -4 l-20 -18 20 51 c36 95 56 112 77
66 17 -37 15 -75 -7 -118 l-19 -38 21 6 c37 11 91 37 110 53 31 27 18 -5 -15
-39 -18 -18 -28 -30 -23 -28 6 3 21 10 35 16 14 7 42 14 63 18 50 8 48 25 -2
18 -37 -5 -39 -4 -34 16 6 25 -4 27 -29 4 -10 -9 -18 -12 -18 -7 1 14 23 40
40 47 12 4 11 6 -2 6 -12 1 -18 9 -18 24 0 32 -11 67 -21 67 -4 0 -20 -11 -36
-24 l-28 -24 -16 24 -16 24 -26 -20 c-26 -21 -27 -21 -27 -2 0 11 -6 25 -14
31 -17 14 -46 4 -46 -16 0 -11 -9 -8 -31 11 -40 34 -57 33 -73 -6 -13 -30 -14
-30 -24 -11 -6 11 -23 28 -37 37 -25 16 -25 16 -45 -16z m71 -25 c9 -10 20
-29 24 -43 6 -19 0 -15 -26 18 l-34 43 -17 -22 c-10 -11 -18 -30 -18 -40 0
-10 -4 -19 -9 -19 -11 0 0 44 18 79 13 23 32 19 62 -16z m102 9 c9 -8 17 -21
17 -29 0 -11 -4 -11 -20 -1 -16 10 -24 10 -40 0 -17 -10 -20 -10 -20 4 0 8 5
24 11 35 10 20 20 18 52 -9z m87 -35 c0 -11 -5 -37 -12 -58 l-11 -39 -19 30
c-22 37 -22 41 -2 88 15 35 16 36 30 18 8 -11 14 -29 14 -39z m-196 -15 c17
-26 26 -51 26 -78 0 -22 5 -45 12 -52 9 -9 8 -12 -4 -12 -9 0 -20 5 -23 10 -4
6 -16 8 -28 5 -16 -5 -18 -4 -8 3 11 8 10 11 -4 19 -21 12 -32 91 -16 122 7
11 13 21 15 21 2 0 15 -17 30 -38z m360 11 c5 -25 1 -73 -6 -77 -2 -1 -20 -14
-40 -29 l-38 -28 10 26 c6 15 10 40 10 58 0 28 32 77 51 77 4 0 10 -12 13 -27z
m-422 -90 c17 -48 12 -54 -19 -20 -26 28 -43 61 -43 82 0 30 45 -15 62 -62z"/>
<path d="M2000 1210 c-9 -6 -10 -10 -3 -10 6 0 15 5 18 10 8 12 4 12 -15 0z"/>
<path d="M2140 1210 c-9 -6 -10 -10 -3 -10 6 0 15 5 18 10 8 12 4 12 -15 0z"/>
<path d="M2670 1213 c-41 -2 -84 -8 -95 -13 -11 -5 -42 -14 -70 -19 -27 -6
-79 -17 -115 -25 -36 -8 -104 -20 -152 -27 -49 -6 -88 -14 -88 -18 0 -6 15 -6
120 5 50 5 167 30 322 69 32 8 104 15 160 15 70 0 98 3 88 10 -8 5 -33 9 -55
8 -22 -1 -74 -3 -115 -5z"/>
<path d="M3760 1207 c0 -16 25 -52 37 -52 4 -1 19 -7 33 -14 l25 -14 -25 27
c-13 15 -26 22 -28 17 -6 -19 -22 -1 -22 25 0 13 -4 24 -10 24 -5 0 -10 -6
-10 -13z"/>
<path d="M2878 1203 c6 -2 18 -2 25 0 6 3 1 5 -13 5 -14 0 -19 -2 -12 -5z"/>
<path d="M2960 1195 c0 -9 80 -41 87 -34 4 4 44 10 87 13 96 7 112 16 30 16
-32 0 -92 2 -131 4 -40 3 -73 3 -73 1z"/>
<path d="M2768 1183 c17 -3 32 -7 32 -11 0 -4 39 -8 87 -9 47 -1 82 2 77 6 -5
5 -58 10 -119 13 -60 2 -95 3 -77 1z"/>
<path d="M3960 1181 c0 -6 11 -16 25 -21 38 -14 125 -24 125 -13 0 5 -15 10
-32 11 -49 3 -91 13 -105 24 -9 7 -13 7 -13 -1z"/>
<path d="M2601 1169 c-35 -14 -25 -16 59 -9 69 5 72 6 35 12 -50 10 -64 9 -94
-3z"/>
<path d="M2945 1125 c-55 -7 -158 -15 -230 -19 -71 -3 -145 -10 -163 -15 -18
-6 -79 -11 -135 -12 -124 -3 -187 -9 -187 -18 0 -10 292 -2 304 8 14 12 213
31 321 31 84 1 217 21 200 31 -5 3 -55 0 -110 -6z"/>
<path d="M3749 1028 c-5 -18 -6 -38 -1 -34 7 8 12 36 6 36 -2 0 -4 -1 -5 -2z"/>
<path d="M3786 1021 c3 -3 12 -6 22 -8 33 -7 457 -2 464 5 4 4 -105 7 -241 7
-137 0 -247 -2 -245 -4z"/>
<path d="M4330 1026 c0 -2 7 -7 16 -10 8 -3 12 -2 9 4 -6 10 -25 14 -25 6z"/>
<path d="M613 993 c0 -9 4 -10 14 -2 7 6 13 12 13 14 0 1 -6 2 -13 2 -8 0 -14
-6 -14 -14z"/>
<path d="M5245 991 c-49 -3 -85 -9 -78 -14 15 -10 183 3 183 14 0 5 -3 8 -7 7
-5 -1 -48 -4 -98 -7z"/>
<path d="M927 976 c-7 -19 -7 -249 0 -242 5 5 13 256 8 256 -2 0 -5 -6 -8 -14z"/>
<path d="M2043 980 c-28 -12 -30 -19 -3 -17 11 1 20 5 20 10 0 4 5 5 12 1 7
-4 8 -3 4 4 -4 7 -8 12 -9 11 -1 0 -12 -4 -24 -9z"/>
<path d="M1530 970 c0 -5 18 -10 40 -10 22 0 40 5 40 10 0 6 -18 10 -40 10
-22 0 -40 -4 -40 -10z"/>
<path d="M4233 952 c-40 -2 -73 -7 -73 -12 0 -8 369 -2 379 6 5 5 -226 9 -306
6z"/>
<path d="M5121 908 c-188 -10 -195 -17 -13 -13 142 3 176 7 155 17 -4 2 -68 0
-142 -4z"/>
<path d="M1530 906 c0 -2 8 -10 18 -17 15 -13 16 -12 3 4 -13 16 -21 21 -21
13z"/>
<path d="M2609 906 c-3 -3 -19 -6 -37 -8 -18 -1 -32 -8 -32 -15 0 -9 7 -10 26
-3 42 16 153 22 257 13 53 -5 97 -6 97 -2 0 13 -298 27 -311 15z"/>
<path d="M2943 895 c0 -8 4 -12 9 -9 5 3 6 10 3 15 -9 13 -12 11 -12 -6z"/>
<path d="M4295 870 c-33 -3 -55 -8 -50 -12 11 -6 196 10 204 18 6 5 -42 3
-154 -6z"/>
<path d="M429 853 c-13 -16 -12 -17 4 -4 9 7 17 15 17 17 0 8 -8 3 -21 -13z"/>
<path d="M4036 843 c-126 -17 -168 -29 -146 -43 8 -5 12 -11 10 -13 -3 -2 -72
-12 -155 -21 -82 -10 -152 -20 -154 -22 -11 -10 12 -10 114 2 61 7 157 15 215
19 178 9 239 16 290 31 53 16 61 28 33 50 -22 16 -65 16 -207 -3z m189 -7 l30
-12 -32 -12 c-29 -10 -161 -27 -270 -34 -31 -3 -39 0 -32 8 7 8 6 14 -3 17
-16 5 181 39 267 45 6 1 23 -5 40 -12z"/>
<path d="M1176 832 c-3 -5 1 -9 9 -9 8 0 12 4 9 9 -3 4 -7 8 -9 8 -2 0 -6 -4
-9 -8z"/>
<path d="M1328 833 c29 -2 74 -2 100 0 26 2 2 3 -53 3 -55 0 -76 -1 -47 -3z"/>
<path d="M2120 819 c0 -5 11 -9 25 -9 14 0 25 2 25 4 0 2 -11 6 -25 8 -14 3
-25 1 -25 -3z"/>
<path d="M2180 826 c0 -2 8 -10 18 -17 15 -13 16 -12 3 4 -13 16 -21 21 -21
13z"/>
<path d="M2220 820 c0 -5 5 -10 10 -10 6 0 10 5 10 10 0 6 -4 10 -10 10 -5 0
-10 -4 -10 -10z"/>
<path d="M2722 825 c9 -9 197 -12 192 -3 -3 4 -48 8 -101 8 -53 0 -94 -2 -91
-5z"/>
<path d="M2274 773 c-3 -10 -9 -25 -14 -35 -7 -12 -5 -15 8 -14 11 2 17 13 18
34 2 35 -4 42 -12 15z"/>
<path d="M4255 781 c-3 -5 -2 -12 3 -15 5 -3 9 1 9 9 0 17 -3 19 -12 6z"/>
<path d="M2765 760 c-3 -6 1 -7 9 -4 18 7 21 14 7 14 -6 0 -13 -4 -16 -10z"/>
<path d="M2470 735 c25 -27 108 -71 116 -62 3 3 -14 14 -38 25 -24 10 -52 29
-62 41 -11 11 -24 21 -29 21 -6 0 0 -11 13 -25z"/>
<path d="M2415 699 c-4 -6 -5 -12 -2 -15 2 -3 7 2 10 11 7 17 1 20 -8 4z"/>
<path d="M2783 685 c0 -8 4 -12 9 -9 5 3 6 10 3 15 -9 13 -12 11 -12 -6z"/>
<path d="M3096 691 c-4 -5 -2 -12 3 -15 5 -4 12 -2 15 3 4 5 2 12 -3 15 -5 4
-12 2 -15 -3z"/>
<path d="M1510 641 c0 -5 31 -9 70 -8 91 3 91 17 0 17 -38 0 -70 -4 -70 -9z"/>
<path d="M1670 641 c0 -11 95 -9 106 2 4 4 -18 7 -49 7 -31 0 -57 -4 -57 -9z"/>
<path d="M675 631 c-3 -5 -2 -12 3 -15 5 -3 9 1 9 9 0 17 -3 19 -12 6z"/>
<path d="M728 613 c-47 -19 -49 -33 -5 -34 l32 -1 -32 -9 c-18 -5 -33 -14 -33
-18 0 -5 15 -4 33 1 17 6 38 13 45 14 22 6 3 24 -26 25 -20 1 -22 3 -8 6 20 5
55 34 39 32 -4 -1 -25 -8 -45 -16z"/>
<path d="M995 620 c-3 -5 -12 -7 -20 -3 -8 3 -15 3 -15 0 0 -13 30 -14 40 -1
7 8 10 14 7 14 -3 0 -8 -4 -12 -10z"/>
<path d="M1070 620 c0 -6 -7 -10 -15 -10 -8 0 -15 -5 -15 -11 0 -6 7 -8 16 -5
9 3 22 6 30 6 19 0 18 16 -1 24 -8 3 -15 1 -15 -4z"/>
<path d="M1305 616 c-33 -6 -58 -15 -55 -21 3 -5 -10 -11 -28 -13 -18 -2 -30
-7 -27 -12 6 -10 69 5 106 25 14 8 54 15 87 17 34 1 62 6 62 10 0 11 -73 8
-145 -6z"/>
<path d="M3908 625 c-3 -3 -93 -10 -199 -15 -140 -6 -215 -15 -269 -29 -56
-15 -105 -21 -195 -21 -267 1 -375 -3 -375 -13 0 -12 504 -1 547 12 67 21 148
31 293 37 85 3 177 10 204 15 27 5 76 8 110 8 l61 -1 -53 -8 c-29 -4 -56 -11
-60 -15 -9 -9 101 6 113 16 6 4 33 9 60 12 28 2 -13 4 -91 5 -77 1 -143 0
-146 -3z"/>
<path d="M878 613 c-16 -2 -28 -9 -28 -15 0 -13 80 -2 95 13 9 9 -14 10 -67 2z"/>
<path d="M1005 600 c-3 -5 -1 -10 4 -10 6 0 11 5 11 10 0 6 -2 10 -4 10 -3 0
-8 -4 -11 -10z"/>
<path d="M4524 593 c7 -7 108 -5 115 3 2 2 -24 4 -59 4 -35 0 -60 -3 -56 -7z"/>
<path d="M1554 579 c-3 -5 38 -9 90 -9 59 0 96 4 96 10 0 13 -178 12 -186 -1z"/>
<path d="M5015 578 c-33 -3 -150 -9 -260 -13 -110 -4 -238 -10 -284 -14 -74
-6 -86 -5 -108 13 l-25 19 13 -21 c14 -23 57 -37 86 -28 10 2 113 7 228 11
186 5 297 12 345 21 8 1 59 3 113 3 67 1 96 4 92 12 -7 11 -92 10 -200 -3z"/>
<path d="M955 569 c-16 -5 -51 -11 -77 -14 -27 -4 -48 -11 -48 -16 0 -6 9 -8
19 -4 18 5 198 17 283 19 20 0 34 4 31 9 -3 6 -41 7 -89 3 -45 -3 -84 -2 -86
2 -2 5 -16 5 -33 1z"/>
<path d="M1291 568 c-35 -4 -66 -10 -70 -14 -3 -4 16 -4 43 0 27 3 82 6 122 6
41 0 74 4 74 10 0 10 -70 10 -169 -2z"/>
<path d="M3930 572 c0 -12 199 -21 207 -9 2 4 -36 7 -86 7 -49 0 -96 3 -105 6
-9 3 -16 1 -16 -4z"/>
<path d="M800 561 c-8 -6 -17 -8 -21 -5 -4 2 -10 0 -14 -6 -10 -16 41 -12 55
5 14 17 3 20 -20 6z"/>
<path d="M4178 563 c7 -3 16 -2 19 1 4 3 -2 6 -13 5 -11 0 -14 -3 -6 -6z"/>
<path d="M5200 549 c-147 -13 -266 -36 -300 -59 -13 -8 -11 -11 8 -16 12 -4
22 -10 22 -14 0 -11 -191 -58 -212 -52 -5 1 -8 -2 -8 -8 0 -14 12 -13 123 14
110 26 131 38 102 59 -16 13 -14 15 26 25 69 17 228 41 289 44 30 2 51 5 45 8
-5 3 -48 3 -95 -1z"/>
<path d="M4051 535 c-75 -11 -474 -21 -968 -25 -18 0 -33 -3 -33 -7 0 -5 100
-6 223 -4 122 2 315 3 428 2 142 -1 238 3 309 14 57 8 116 15 132 15 15 0 28
5 28 10 0 6 -6 9 -12 9 -7 -1 -55 -7 -107 -14z"/>
<path d="M1771 537 c2 -1 13 -9 24 -17 19 -14 19 -14 6 3 -7 9 -18 17 -24 17
-6 0 -8 -1 -6 -3z"/>
<path d="M637 510 c-85 -20 -118 -37 -49 -26 84 13 142 28 142 37 0 11 6 11
-93 -11z"/>
<path d="M960 520 c0 -8 -17 -23 -38 -32 l-37 -17 35 5 c45 8 69 29 52 46 -9
9 -12 9 -12 -2z"/>
<path d="M753 507 c4 -11 1 -17 -8 -17 -8 0 -15 -4 -15 -10 0 -15 23 -12 66
10 38 20 38 20 9 18 -17 -1 -36 2 -44 7 -11 6 -13 4 -8 -8z"/>
<path d="M2692 509 c19 -10 278 -18 278 -8 0 7 -165 19 -245 19 -38 -1 -46 -3
-33 -11z"/>
<path d="M489 483 c-13 -16 -12 -17 4 -4 9 7 17 15 17 17 0 8 -8 3 -21 -13z"/>
<path d="M665 470 c-4 -6 5 -10 20 -10 15 0 24 4 20 10 -3 6 -12 10 -20 10 -8
0 -17 -4 -20 -10z"/>
<path d="M940 464 c-22 -9 -26 -12 -10 -9 14 2 33 5 43 5 9 0 17 5 17 10 0 13
-7 12 -50 -6z"/>
<path d="M1180 469 c-25 -5 -69 -15 -98 -20 -50 -10 -52 -12 -38 -28 22 -25
21 -28 -22 -50 -25 -13 -63 -21 -105 -22 -37 -1 -67 -7 -67 -12 0 -12 145 0
174 15 42 21 56 39 46 59 -12 21 -10 22 115 44 111 19 221 19 390 0 217 -23
228 -28 202 -94 -13 -30 -13 -42 -4 -54 25 -33 112 -59 262 -78 185 -24 356
-23 525 3 174 28 808 34 827 9 10 -14 50 -16 330 -15 521 3 806 19 1193 68 63
8 119 12 125 9 5 -3 5 0 -1 6 -12 13 -16 12 -234 -14 -25 -3 -76 -10 -115 -15
-132 -17 -314 -26 -780 -40 -354 -10 -493 -6 -502 17 -4 10 -63 13 -302 14
-266 1 -290 2 -232 14 47 9 161 11 442 7 219 -3 379 -1 379 4 0 5 -113 9 -257
9 -142 0 -314 2 -383 5 -103 3 -142 0 -225 -18 -88 -20 -118 -22 -260 -17
-176 7 -404 23 -417 31 -5 3 -1 15 7 27 8 12 15 27 15 34 0 24 -82 35 -220 31
-131 -4 -135 -3 -155 20 -15 17 -40 27 -100 38 -99 18 -453 27 -515 13z m969
-94 c2 -3 -2 -18 -9 -35 -9 -22 -10 -34 -2 -42 15 -15 272 -37 441 -38 41 0
72 -2 70 -4 -4 -4 -177 -23 -296 -31 -86 -7 -372 19 -455 40 -108 28 -127 44
-106 90 8 19 20 25 52 27 50 5 299 -2 305 -7z"/>
<path d="M622 463 c-6 -2 -10 -9 -6 -14 8 -14 21 -11 21 6 0 8 -1 15 -1 14 -1
0 -7 -3 -14 -6z"/>
<path d="M797 443 c-12 -12 -33 -18 -66 -18 -27 0 -44 -3 -39 -6 6 -4 -3 -10
-21 -14 -17 -3 -31 -11 -31 -17 0 -6 7 -7 18 -3 9 4 46 14 82 22 67 14 85 24
79 42 -3 7 -11 5 -22 -6z"/>
<path d="M925 430 c-28 -7 -27 -8 13 -9 27 -1 41 3 37 9 -7 11 -7 11 -50 0z"/>
<path d="M5365 429 c-22 -5 -57 -13 -78 -19 -36 -10 -37 -12 -21 -25 17 -12
15 -14 -21 -23 -45 -12 -105 -21 -152 -24 -18 -1 -33 -6 -33 -10 0 -9 95 -1
162 13 48 11 74 31 64 48 -4 6 25 15 69 22 41 7 75 17 75 21 0 9 -11 9 -65 -3z"/>
<path d="M915 390 c3 -5 17 -10 31 -10 13 0 24 5 24 10 0 6 -14 10 -31 10 -17
0 -28 -4 -24 -10z"/>
<path d="M4640 388 c-25 -5 -49 -15 -55 -20 -7 -8 -4 -9 8 -4 10 3 36 9 58 12
22 4 42 11 45 15 6 10 4 10 -56 -3z"/>
<path d="M1520 379 c0 -5 34 -8 75 -7 41 2 75 7 75 11 0 4 -34 7 -75 6 -41 -1
-75 -6 -75 -10z"/>
<path d="M4750 360 c-58 -4 -154 -12 -215 -18 -210 -21 -522 -37 -718 -37 -59
0 -107 -4 -107 -9 0 -16 510 3 805 30 88 9 204 18 258 21 53 3 97 10 97 14 0
5 -3 8 -7 7 -5 0 -55 -4 -113 -8z"/>
<path d="M3356 338 c3 -5 10 -6 15 -3 13 9 11 12 -6 12 -8 0 -12 -4 -9 -9z"/>
<path d="M675 330 c-7 -12 12 -12 40 0 18 8 17 9 -7 9 -15 1 -30 -3 -33 -9z"/>
<path d="M930 320 c-11 -7 -5 -8 20 -4 43 8 51 14 19 14 -13 0 -31 -5 -39 -10z"/>
<path d="M760 301 c0 -6 4 -13 10 -16 6 -3 7 1 4 9 -7 18 -14 21 -14 7z"/>
<path d="M925 280 c-4 -6 7 -10 24 -10 17 0 31 5 31 10 0 6 -11 10 -24 10 -14
0 -28 -4 -31 -10z"/>
<path d="M3369 217 c6 -8 9 -16 6 -19 -3 -2 2 -5 10 -5 13 0 13 3 -2 19 -19
21 -31 25 -14 5z"/>
</g>
</svg>
