<?xml version="1.0" standalone="no"?>
<!DOCTYPE svg PUBLIC "-//W3C//DTD SVG 20010904//EN"
 "http://www.w3.org/TR/2001/REC-SVG-20010904/DTD/svg10.dtd">
<svg version="1.0" xmlns="http://www.w3.org/2000/svg"
 width="600.000000pt" height="322.000000pt" viewBox="0 0 600.000000 322.000000"
 preserveAspectRatio="xMidYMid meet">
<g transform="translate(0.000000,322.000000) scale(0.100000,-0.100000)"
fill="#000000" stroke="none">
<path d="M1501 3081 c-8 -17 -16 -30 -18 -27 -3 2 0 14 7 25 7 14 7 21 0 21
-5 0 -10 -4 -10 -10 0 -21 -83 -180 -94 -180 -38 0 -125 -171 -185 -363 -29
-94 -31 -157 -5 -157 10 0 14 -6 10 -17 -36 -118 -87 -416 -111 -652 -9 -85
-18 -170 -20 -190 -12 -104 -14 -150 -16 -302 -1 -92 -5 -172 -9 -178 -3 -7
-14 -9 -22 -6 -14 6 -15 32 -11 223 3 120 10 221 15 227 6 7 8 -69 5 -215 -5
-191 -4 -206 4 -100 9 128 2 536 -10 525 -3 -4 -6 -10 -7 -13 0 -4 -6 -19 -12
-34 -19 -45 -42 -174 -43 -240 -1 -60 -2 -61 -9 -23 -5 22 -11 83 -15 135 -7
105 -26 277 -51 472 -17 124 -17 129 2 149 22 24 25 98 11 254 -20 219 -29
254 -71 268 -7 2 -12 45 -13 115 -1 62 -6 112 -10 112 -10 0 -10 0 -12 -135
-1 -100 -3 -116 -18 -122 -10 -4 -21 -11 -25 -17 -12 -17 -9 -121 6 -246 8
-63 14 -117 14 -120 -3 -14 15 -59 22 -55 4 3 11 -2 14 -11 3 -8 2 -12 -4 -9
-6 3 -10 0 -10 -8 0 -16 31 -47 47 -47 13 0 23 -80 78 -620 9 -85 18 -161 20
-167 2 -7 0 -13 -4 -13 -9 0 -14 28 -41 215 -7 44 -18 94 -25 110 -14 36 -125
155 -125 136 0 -7 13 -41 29 -75 63 -134 126 -372 136 -516 l5 -75 -14 60 c-7
33 -19 93 -25 133 -7 39 -16 72 -21 72 -4 0 -3 -21 2 -47 5 -27 11 -64 14 -83
3 -19 9 -57 15 -85 5 -27 9 -61 8 -75 -1 -14 4 -41 10 -60 9 -32 9 -33 -4 -16
-15 20 -16 24 -19 66 -1 14 -23 95 -49 180 -25 85 -63 216 -83 290 -87 323
-109 375 -217 528 -25 35 -72 91 -106 125 -92 95 -98 100 -106 88 -3 -6 -2
-11 2 -11 5 0 28 -32 52 -71 38 -61 46 -69 56 -55 11 14 14 13 32 -7 12 -12
55 -74 96 -137 63 -96 81 -134 110 -230 63 -205 108 -371 104 -383 -2 -7 -10
12 -17 42 -9 38 -15 49 -22 40 -7 -10 -8 -8 -3 7 6 23 -3 56 -14 50 -3 -2 -7
6 -7 17 -1 23 -61 190 -94 263 -11 24 -25 56 -31 71 -6 16 -13 23 -16 16 -2
-6 5 -30 17 -53 12 -23 18 -40 13 -37 -5 3 -20 30 -33 59 -13 29 -40 87 -60
128 -21 41 -43 92 -50 113 -8 25 -16 35 -22 29 -11 -11 85 -219 157 -343 26
-43 61 -125 81 -190 20 -63 61 -175 91 -249 73 -178 94 -243 82 -251 -6 -3 -4
-11 6 -19 20 -17 19 -23 -7 -39 -13 -7 -20 -10 -16 -6 4 4 -3 16 -15 27 l-22
20 28 -16 c24 -15 41 -6 17 9 -6 4 -8 15 -5 24 3 10 -1 24 -9 31 -18 14 -75
113 -133 233 -49 101 -118 177 -187 207 -25 10 -52 30 -61 43 -10 15 -49 38
-106 62 -98 40 -138 41 -46 1 30 -14 58 -30 62 -36 4 -6 15 -8 26 -5 14 5 29
-3 52 -28 18 -19 55 -46 83 -61 58 -31 113 -92 156 -173 30 -57 32 -84 3 -39
-10 14 -21 26 -26 26 -5 0 18 -34 51 -76 60 -77 69 -94 49 -94 -5 0 -7 -5 -3
-12 4 -7 3 -8 -5 -4 -6 4 -9 11 -6 15 7 13 -36 48 -80 65 -55 21 -213 38 -250
27 -17 -5 -49 -18 -73 -29 -56 -25 -93 -72 -57 -72 8 0 15 4 15 9 0 4 27 20
60 34 59 26 85 46 34 26 -15 -5 -29 -8 -31 -6 -4 5 41 23 77 31 14 3 32 1 40
-4 11 -7 7 -10 -17 -10 -18 0 -33 -5 -33 -11 0 -8 19 -10 65 -5 77 8 103 -2
182 -66 52 -43 163 -165 163 -179 0 -4 -8 -10 -17 -12 -19 -5 37 -10 75 -7 12
1 22 -3 22 -8 0 -12 301 -9 320 3 9 5 11 4 6 -3 -4 -7 -24 -13 -44 -13 l-37
-2 35 -6 c19 -4 39 -4 45 1 5 4 29 9 55 9 38 1 40 2 16 8 -17 3 35 6 115 7 79
0 164 6 189 12 58 14 62 8 8 -12 -28 -10 -32 -14 -13 -10 17 3 71 8 120 11 63
4 84 8 70 14 -18 8 -18 8 4 6 13 -1 25 -9 26 -18 2 -14 -13 -17 -100 -22 -57
-3 -129 -10 -161 -16 -118 -21 -220 -40 -244 -46 -20 -5 -22 -5 -10 5 13 9 12
11 -5 7 -11 -2 -19 -9 -17 -15 1 -9 -7 -11 -25 -6 -16 3 -23 2 -16 -3 7 -5 -4
-15 -33 -28 -24 -11 -42 -25 -40 -31 3 -7 -24 -13 -82 -17 -97 -6 -289 -48
-371 -80 -51 -21 -101 -65 -101 -91 0 -6 7 -22 16 -34 18 -26 8 -29 -18 -5
-10 9 -18 12 -18 6 0 -5 12 -20 28 -34 20 -18 40 -24 77 -26 62 -2 106 -12
123 -30 7 -7 34 -13 60 -13 26 0 81 -6 122 -13 79 -14 210 -15 248 -3 14 5 22
3 22 -5 0 -8 23 -10 85 -7 73 4 83 2 72 -10 -10 -12 -40 -14 -177 -10 -180 6
-194 2 -49 -12 79 -7 66 -8 -81 -4 -96 3 -193 9 -215 14 -36 8 -55 6 -44 -4 9
-10 211 -25 341 -27 76 0 136 -4 134 -8 -7 -11 -316 -5 -399 8 -98 16 -113 8
-20 -10 40 -7 156 -14 284 -15 214 -1 215 -1 242 -26 l27 -25 -28 5 c-45 8
-12 -14 43 -28 49 -13 104 -37 60 -26 -11 2 -54 8 -95 12 -41 3 -84 10 -95 14
-17 7 -16 9 13 16 18 3 30 9 27 12 -2 3 -1 10 4 16 7 8 -24 11 -107 11 -100 1
-109 0 -62 -8 30 -4 74 -7 98 -5 46 3 57 -8 16 -18 -17 -4 -23 -11 -19 -21 4
-12 0 -14 -17 -10 -13 3 -45 8 -73 11 -41 5 -46 4 -25 -5 14 -5 59 -12 100
-15 41 -2 134 -10 205 -18 72 -8 134 -11 138 -7 4 5 43 2 85 -6 56 -10 116
-12 220 -7 101 4 142 3 142 -5 0 -7 -38 -11 -112 -12 -62 -1 -147 -5 -188 -9
-94 -8 603 -6 760 3 63 4 173 9 243 12 129 6 157 11 157 25 0 4 -17 4 -37 0
-21 -4 -67 -10 -103 -13 -64 -6 -63 -3 8 23 34 13 40 28 20 48 -18 18 -33 14
-17 -4 11 -14 11 -18 -4 -29 -22 -16 -180 -45 -238 -44 l-44 0 45 15 c25 8 69
19 99 24 62 11 96 35 71 50 -8 5 -17 7 -19 4 -3 -3 1 -9 9 -14 9 -6 1 -12 -30
-20 -32 -9 -45 -9 -48 -1 -5 16 -32 14 -32 -2 0 -13 -22 -20 -162 -47 -32 -6
-58 -16 -58 -21 0 -5 -30 -8 -67 -8 -76 1 -212 15 -173 17 15 1 30 6 35 10 6
5 37 6 70 3 55 -4 57 -5 25 -12 -34 -6 -33 -6 13 -8 32 -1 56 5 75 18 15 10
46 22 70 25 66 10 116 34 135 65 16 27 16 30 -6 61 -26 39 -65 62 -138 84
-131 37 -178 44 -310 44 -148 0 -211 8 -188 23 9 7 -3 7 -33 3 -51 -7 -65 6
-28 26 45 24 15 65 -75 104 -22 9 -48 21 -58 27 -10 5 -21 8 -26 5 -4 -3 -28
5 -53 17 l-45 22 84 0 c65 0 80 -2 68 -11 -12 -9 1 -12 62 -13 48 -1 80 -6 85
-14 5 -8 8 -7 8 5 0 9 8 18 18 21 9 2 -17 2 -58 0 -90 -4 -76 11 20 22 110 13
200 12 188 -2 -6 -7 -21 -13 -33 -13 -13 0 -47 -6 -77 -13 l-53 -12 105 -5
c124 -6 215 -1 185 10 -11 4 -51 5 -90 3 -89 -6 -82 2 14 16 78 10 115 2 105
-23 -4 -10 6 -13 35 -13 36 0 39 1 24 13 -24 18 -5 17 31 -1 35 -18 189 -45
266 -46 30 0 64 -4 75 -9 33 -14 -52 -12 -194 5 -69 9 -155 19 -191 23 -36 4
-159 5 -275 2 -115 -3 -176 -7 -135 -8 42 -1 81 -7 86 -12 6 -6 46 -12 90 -14
43 -2 58 -2 32 1 -27 2 -48 9 -48 15 0 8 24 9 77 4 42 -3 120 -6 175 -6 59 0
98 -4 98 -10 0 -6 -47 -11 -117 -11 -83 -1 -106 -4 -78 -9 22 -4 -32 -5 -120
-3 -88 3 -166 6 -172 8 -7 3 -13 1 -13 -4 0 -27 150 -37 295 -21 50 6 115 13
145 15 30 2 57 4 60 5 3 0 101 0 218 0 119 0 212 3 212 8 0 5 10 9 23 9 12 0
38 2 57 6 61 11 398 17 402 8 3 -10 127 1 216 20 89 18 51 21 -51 4 -52 -9
-106 -15 -119 -12 -17 3 -14 5 12 6 19 1 49 8 65 17 l30 14 -30 -6 c-16 -4
-48 -10 -70 -15 -44 -9 -169 -11 -145 -2 75 27 130 58 130 74 0 10 -5 21 -11
24 -7 5 -4 14 7 26 13 15 14 19 3 19 -8 0 -33 13 -57 29 -27 19 -76 37 -133
50 -105 24 -99 24 -99 12 0 -5 30 -14 68 -21 80 -15 104 -23 160 -56 27 -16
40 -29 35 -37 -4 -7 -6 -22 -4 -35 2 -19 -7 -27 -51 -47 -30 -14 -70 -27 -89
-30 -32 -5 -33 -5 -9 6 14 7 49 23 79 36 30 13 52 26 49 28 -3 3 -29 -6 -59
-19 -109 -48 -169 -59 -249 -47 -40 6 -81 16 -91 21 -10 6 -20 6 -23 2 -3 -5
23 -17 57 -27 34 -10 54 -20 45 -22 -9 -2 -25 0 -35 5 -10 6 -46 7 -83 3 -86
-8 -398 4 -430 17 -20 9 -15 9 28 5 93 -10 55 4 -45 17 -54 7 -107 17 -117 22
-18 10 -18 11 5 24 19 11 20 13 6 14 -28 0 -11 18 17 18 57 -1 140 15 153 28
8 8 21 14 30 14 28 0 -30 -38 -70 -45 -21 -4 -40 -11 -43 -16 -8 -13 3 -11 89
16 43 14 91 25 107 25 16 0 32 5 36 11 5 8 -3 10 -26 7 -19 -3 -45 1 -59 8
-14 8 -44 15 -66 15 -23 1 -31 4 -17 6 12 2 22 8 22 13 0 4 19 15 42 25 29 11
38 19 29 25 -10 5 5 20 49 50 65 44 72 60 19 41 -18 -6 -50 -11 -72 -11 l-40
0 27 32 c53 66 78 108 72 123 -6 17 -61 21 -71 5 -4 -6 5 -10 19 -10 14 0 26
-5 26 -11 0 -35 -93 -139 -152 -170 l-38 -19 7 32 c3 18 12 46 20 62 15 28 15
29 -11 24 -14 -3 -26 -2 -26 2 0 20 93 80 125 80 8 0 15 5 15 11 0 17 -56 3
-91 -22 l-29 -20 0 55 c0 30 5 58 10 61 15 9 12 25 -5 25 -23 0 -82 -33 -68
-37 7 -2 20 0 31 6 17 9 18 5 16 -53 -2 -67 -20 -108 -57 -128 -17 -9 -19 -8
-12 8 12 29 18 119 11 158 -4 18 -16 46 -27 60 l-20 26 -46 -38 c-24 -20 -53
-53 -63 -72 -19 -37 -30 -124 -17 -136 4 -4 7 6 7 22 0 54 21 106 62 150 65
71 79 61 80 -54 1 -98 -8 -139 -32 -147 -11 -3 -29 -20 -42 -37 -20 -28 -22
-29 -29 -12 -3 10 -4 33 -2 50 3 18 0 40 -6 50 -9 16 -10 13 -11 -18 0 -21 -2
-38 -5 -38 -3 0 -20 16 -37 35 -47 55 -47 32 1 -25 23 -27 49 -66 57 -85 13
-32 13 -38 -3 -60 -21 -28 -26 -29 -56 -14 -45 23 -67 52 -68 88 -1 24 -3 28
-6 14 -6 -29 -14 -28 -37 4 -19 26 -20 34 -16 131 1 30 -3 59 -10 67 -33 40
41 -6 104 -64 27 -25 35 -29 27 -14 -6 12 -29 37 -51 56 -54 46 -53 75 1 128
44 43 41 44 76 -13 15 -24 33 -37 33 -24 0 11 -62 96 -69 96 -16 0 -90 -89
-97 -114 -6 -27 -18 -33 -29 -16 -12 19 -26 0 -15 -20 17 -32 11 -40 -17 -24
-16 7 -36 14 -46 14 -10 0 -31 7 -47 15 -16 8 -31 11 -34 7 -5 -9 27 -119 43
-150 8 -14 5 -18 -11 -19 -24 -2 -90 -51 -83 -62 2 -5 -91 -11 -208 -15 -117
-3 -249 -9 -294 -13 -58 -4 -83 -2 -83 5 0 6 7 9 15 6 8 -4 15 -2 15 2 0 5 82
10 183 12 145 2 184 5 193 17 7 9 35 15 85 18 l74 3 -77 2 c-43 1 -80 -2 -83
-8 -3 -5 -35 -10 -71 -10 -47 0 -63 3 -58 12 5 8 -7 9 -47 5 -30 -4 -76 -7
-102 -7 -30 0 -46 -4 -42 -10 3 -5 1 -10 -4 -10 -18 0 -13 15 12 38 22 21 33
22 228 24 l204 3 -198 2 -198 3 43 52 c24 29 63 73 88 98 24 25 44 48 45 52 0
10 94 77 123 89 12 5 22 13 22 19 0 17 -99 -40 -154 -88 -28 -24 -66 -52 -85
-62 -20 -10 -52 -36 -72 -57 -36 -38 -103 -131 -112 -155 -2 -7 -7 -11 -10 -7
-9 7 35 173 61 230 44 99 290 322 440 398 24 12 47 33 52 47 5 13 21 29 35 34
14 5 25 14 25 19 0 11 -40 0 -98 -25 -17 -8 -52 -21 -76 -28 -59 -18 -122 -63
-207 -147 -84 -84 -147 -168 -173 -229 -50 -120 -122 -260 -133 -260 -7 0 -13
-8 -13 -17 0 -24 -17 -49 -26 -40 -8 8 37 147 48 147 4 0 3 -12 -2 -26 -6 -14
-10 -33 -9 -42 0 -9 22 46 48 123 54 157 97 257 142 327 17 26 28 52 24 58 -4
6 17 53 46 105 41 75 63 104 106 135 58 44 71 41 22 -6 -35 -33 -173 -223
-167 -229 2 -3 39 42 81 99 89 120 196 233 247 260 22 12 30 20 21 24 -7 2
-16 0 -20 -4 -3 -5 -18 -15 -33 -21 -25 -11 -53 -31 -173 -122 -48 -35 -58
-52 -177 -292 -69 -140 -143 -300 -163 -356 -55 -151 -58 -140 -16 52 65 298
136 530 193 633 104 187 270 388 362 441 81 45 103 86 25 46 -17 -9 -27 -21
-23 -27 4 -7 3 -8 -5 -4 -17 11 -145 -71 -203 -129 -49 -49 -101 -144 -150
-272 -10 -29 -25 -56 -32 -60 -17 -11 -99 -129 -126 -183 -40 -79 -60 -153
-80 -291 -27 -190 -42 -217 -35 -64 11 266 40 523 86 760 37 190 53 251 67
248 20 -5 75 78 127 195 65 143 85 202 85 247 0 40 -4 43 -58 47 -23 2 -42 6
-42 9 0 13 33 19 46 8 10 -8 20 3 44 50 16 33 30 64 29 68 -4 23 2 43 11 38
11 -7 43 51 38 67 -2 6 -10 -3 -17 -21z m-76 -249 c17 -1 17 -33 0 -81 -60
-163 -100 -251 -115 -251 -10 0 -11 3 -3 8 20 12 128 293 121 314 -3 7 -19
-31 -37 -83 -34 -97 -125 -294 -140 -304 -16 -9 -41 7 -41 26 0 10 5 18 10 16
6 -1 24 32 40 73 34 85 33 83 20 75 -15 -9 -12 1 10 47 11 23 18 43 16 46 -3
2 0 16 6 31 5 14 11 34 14 45 4 24 24 47 34 41 5 -3 11 -1 15 5 4 6 13 7 23 1
9 -5 22 -9 27 -9z m-171 -207 c-19 -55 -37 -106 -40 -114 -2 -8 -7 -12 -10 -9
-2 3 11 48 30 99 44 121 48 131 52 127 2 -2 -13 -49 -32 -103z m-400 19 c9 -8
16 -23 16 -31 0 -14 -3 -14 -20 2 -11 10 -20 14 -20 10 0 -5 -2 -6 -5 -3 -5 5
4 38 10 38 2 0 11 -7 19 -16z m-54 -20 c0 -3 -7 -13 -16 -21 -9 -9 -14 -26
-11 -40 2 -13 0 -26 -4 -29 -12 -7 -11 39 1 70 8 22 30 37 30 20z m48 -26 c5
-7 15 -93 22 -191 10 -140 10 -184 0 -207 -7 -17 -16 -30 -21 -30 -12 0 -11
13 0 26 9 9 -5 154 -16 164 -3 3 -3 -24 0 -60 8 -78 -7 -51 -16 30 -4 30 -11
82 -17 115 -16 95 -13 153 8 158 28 8 29 7 40 -5z m403 -42 c-14 -36 -22 -33
-9 5 6 16 12 28 14 26 3 -2 0 -16 -5 -31z m-374 -58 c-3 -7 -5 -2 -5 12 0 14
2 19 5 13 2 -7 2 -19 0 -25z m10 -95 c-2 -16 -4 -3 -4 27 0 30 2 43 4 28 2
-16 2 -40 0 -55z m413 57 c0 -5 -5 -10 -11 -10 -5 0 -7 5 -4 10 3 6 8 10 11
10 2 0 4 -4 4 -10z m-91 -53 c1 -5 -3 -5 -9 -2 -5 3 -10 16 -9 28 0 21 1 21 9
2 5 -11 9 -24 9 -28z m48 -4 c-9 -9 -20 -13 -24 -9 -4 4 -1 11 7 16 25 16 35
11 17 -7z m-357 -212 c-3 -14 -13 -27 -21 -29 -11 -4 -12 -2 -1 9 7 8 13 48
14 109 l1 95 7 -80 c4 -44 4 -91 0 -104z m709 92 c-14 -16 -42 -46 -63 -68
-20 -22 -60 -74 -88 -115 -71 -105 -75 -107 -29 -10 42 86 98 154 161 196 46
30 49 29 19 -3z m-1199 -77 c0 -5 -7 -1 -15 10 -8 10 -14 24 -14 29 0 6 6 1
14 -9 8 -11 15 -24 15 -30z m1205 -286 c-3 -5 -12 -10 -18 -10 -7 0 -6 4 3 10
19 12 23 12 15 0z m-324 -97 c-51 -95 -98 -238 -135 -418 -10 -44 -22 -100
-28 -125 -5 -25 -12 -89 -15 -142 -5 -84 -8 -98 -23 -98 -15 0 -17 8 -13 48 6
71 9 90 27 172 9 41 23 121 31 177 24 168 53 250 132 370 42 62 53 69 24 16z
m483 -94 c-10 -12 -37 -30 -58 -41 -72 -37 -157 -100 -242 -181 -46 -43 -84
-75 -84 -71 0 5 -14 -7 -31 -26 l-31 -35 19 33 c60 110 241 275 340 311 32 12
67 25 78 30 28 12 31 5 9 -20z m-913 -86 c11 -24 24 -82 30 -130 5 -49 19
-126 30 -173 20 -82 38 -299 20 -235 -5 17 -9 51 -10 77 -2 84 -68 370 -106
459 -51 119 -51 118 -16 79 18 -19 41 -54 52 -77z m364 -44 c-9 -30 -21 -63
-26 -74 -13 -31 0 31 19 87 22 64 27 53 7 -13z m-200 4 c-4 -10 -11 -101 -16
-203 -10 -247 -10 -243 -19 -195 -21 111 2 415 32 415 6 0 7 -8 3 -17z m142
-235 c-3 -7 -5 -2 -5 12 0 14 2 19 5 13 2 -7 2 -19 0 -25z m-536 -100 c40 -13
93 -48 85 -56 -3 -2 -11 0 -18 6 -7 5 -40 21 -73 36 -61 25 -57 36 6 14z m785
-55 c-49 -61 -115 -123 -130 -123 -9 0 79 112 111 141 24 22 61 48 71 49 2 0
-22 -30 -52 -67z m-1101 27 c-3 -5 -12 -10 -18 -10 -7 0 -6 4 3 10 19 12 23
12 15 0z m1671 -18 c36 -19 44 -36 34 -70 -5 -19 -5 -45 1 -64 5 -17 7 -33 5
-36 -7 -6 -49 19 -79 46 -24 23 -57 102 -57 137 0 14 62 6 96 -13z m-1239 -58
c62 -64 44 -70 -20 -6 -28 29 -45 52 -38 52 8 0 34 -21 58 -46z m238 -32 c3
-37 8 -79 10 -94 3 -16 1 -28 -4 -28 -5 0 -12 30 -15 68 -4 37 -10 82 -13 101
-4 23 -2 32 5 27 6 -3 13 -37 17 -74z m260 7 c-19 -74 -41 -107 -30 -45 8 45
35 119 42 113 2 -3 -3 -33 -12 -68z m-464 34 c13 -16 12 -17 -3 -4 -10 7 -18
15 -18 17 0 8 8 3 21 -13z m1649 -56 c0 -19 -47 -127 -63 -145 -21 -22 -74
-42 -115 -42 -22 0 -22 1 -8 22 9 12 13 32 10 44 -8 32 43 85 102 105 48 16
74 22 74 16z m-1235 -57 c-4 -19 -3 -30 4 -30 6 0 11 -7 11 -16 0 -12 -6 -15
-22 -10 -13 3 -58 6 -100 6 -43 0 -78 4 -78 9 0 5 34 8 76 7 l76 -1 13 32 c17
41 29 43 20 3z m785 -10 c38 -22 73 -40 79 -40 5 0 17 -10 26 -22 15 -23 15
-23 -37 -33 -46 -10 -61 -8 -118 12 -56 19 -100 51 -100 72 0 8 62 51 73 51 5
0 39 -18 77 -40z m615 -14 c-22 -13 -51 -33 -65 -44 -37 -29 -97 -52 -135 -52
l-33 0 31 35 c17 19 38 35 46 35 9 0 30 9 48 19 17 11 53 22 80 24 26 2 53 4
58 5 6 1 -8 -9 -30 -22z m-1711 -2 c9 -23 8 -24 -14 -24 -11 0 -20 5 -20 10 0
6 5 10 11 10 5 0 7 5 4 10 -3 6 -2 10 3 10 6 0 13 -7 16 -16z m84 -12 c2 -7
-3 -12 -12 -12 -9 0 -16 7 -16 16 0 17 22 14 28 -4z m500 -19 c-15 -2 -42 -2
-60 0 -18 2 -6 4 27 4 33 0 48 -2 33 -4z m416 -66 c-8 -5 -27 -6 -42 -4 -24 4
-23 4 7 6 30 1 32 3 20 18 -13 15 -12 15 8 2 19 -11 20 -15 7 -22z m-106 5
c-84 -19 -94 -43 -15 -37 118 10 181 12 170 8 -32 -12 -7 -23 49 -23 86 0 62
-21 -31 -28 -39 -2 -71 -9 -71 -15 0 -6 19 -7 47 -4 85 9 20 -10 -77 -23 -161
-22 -425 -15 -609 16 -46 8 -22 24 37 24 23 0 42 4 42 9 0 6 -17 7 -37 5 -84
-11 -1 17 120 41 130 26 184 24 260 -6 15 -7 30 -9 33 -6 8 8 -51 37 -78 38
-56 4 54 16 137 16 l90 0 -67 -15z m372 -16 l33 -13 -34 -12 c-26 -8 -51 -8
-104 3 l-70 13 35 11 c50 15 103 14 140 -2z m276 -5 c-8 -12 -74 -21 -94 -13
-11 5 0 9 33 13 28 3 54 7 58 7 5 1 6 -2 3 -7z m31 2 c-4 -3 1 -12 11 -20 13
-10 14 -13 2 -11 -25 5 -36 38 -13 38 4 0 3 -3 0 -7z m-262 -23 c-3 -5 -2 -10
4 -10 6 0 8 -7 5 -15 -4 -8 -11 -12 -18 -8 -6 4 -5 -1 3 -10 19 -23 9 -30 -22
-16 -29 13 -42 36 -21 36 7 0 11 -4 8 -9 -4 -5 3 -4 14 3 12 7 20 15 20 18 -1
12 2 21 8 21 3 0 2 -4 -1 -10z m45 -30 c0 -29 4 -40 15 -40 8 0 15 5 15 11 0
5 4 8 10 4 5 -3 7 -12 4 -20 -3 -7 4 -18 16 -25 12 -6 19 -14 16 -17 -3 -3
-26 8 -51 23 -40 26 -45 33 -45 67 0 20 5 37 10 37 6 0 10 -18 10 -40z m60 29
c0 -5 4 -8 9 -4 16 9 22 -12 7 -24 -20 -17 -60 7 -44 26 13 16 28 17 28 2z
m-239 -42 c-6 -6 -20 -11 -32 -12 -21 -2 -21 -1 2 16 24 18 49 15 30 -4z m61
-28 c-21 -6 -39 -6 -50 0 -13 8 -5 10 33 10 48 -1 49 -1 17 -10z m-817 -24
c55 -8 148 -15 206 -15 94 0 160 -11 181 -29 4 -3 -31 -5 -78 -3 -47 2 -93 0
-102 -4 -10 -5 43 -11 123 -14 111 -4 147 -9 168 -22 14 -10 32 -18 38 -18 7
0 18 -8 25 -17 7 -10 18 -18 25 -18 27 0 20 -26 -10 -38 -17 -6 -31 -16 -31
-23 0 -7 -49 -18 -126 -28 -69 -9 -149 -25 -178 -34 -60 -21 -141 -27 -177
-13 -18 6 -75 6 -168 0 -118 -9 -150 -8 -189 5 -26 8 -72 18 -102 21 -30 4
-78 18 -106 31 -28 13 -59 24 -70 23 -10 0 -1 -7 20 -15 52 -19 60 -28 16 -19
-49 10 -117 44 -124 60 -3 8 1 27 9 43 18 35 81 62 230 98 92 22 150 30 305
42 8 1 60 -5 115 -13z m895 5 c0 -5 -12 -10 -27 -9 -25 0 -26 1 -8 9 27 12 35
12 35 0z m-82 -137 c-10 -2 -28 -2 -40 0 -13 2 -5 4 17 4 22 1 32 -1 23 -4z
m-1421 -99 c-3 -3 -12 -4 -19 -1 -8 3 -5 6 6 6 11 1 17 -2 13 -5z m1269 -14
c15 -6 98 -11 183 -11 157 -1 173 -3 334 -50 85 -25 153 -89 95 -89 -13 0 -30
-5 -38 -11 -11 -8 -6 -9 23 -5 44 6 41 -6 -5 -23 -18 -7 -46 -19 -63 -26 -40
-18 -125 -24 -125 -9 0 7 -8 10 -18 7 -32 -8 -145 35 -167 64 -12 14 -27 24
-33 22 -23 -8 48 -69 94 -81 24 -7 44 -15 44 -19 0 -10 -107 -23 -215 -25
-112 -2 -158 3 -150 16 3 5 -8 8 -25 7 -33 -2 -40 -13 -12 -21 22 -6 -24 -1
-163 19 -60 8 -132 22 -160 30 -56 17 -136 59 -97 51 15 -3 22 0 19 7 -2 7
-13 13 -25 15 -52 8 -9 58 62 71 54 10 66 18 46 31 -11 7 -4 10 25 11 22 0 74
6 115 14 93 16 220 18 256 5z m-1101 -20 c3 -5 2 -10 -4 -10 -5 0 -13 5 -16
10 -3 6 -2 10 4 10 5 0 13 -4 16 -10z m490 -20 c4 -6 -7 -10 -24 -10 -17 0
-31 5 -31 10 0 6 11 10 24 10 14 0 28 -4 31 -10z m-158 -6 c-3 -3 -12 -4 -19
-1 -8 3 -5 6 6 6 11 1 17 -2 13 -5z m218 -82 c-3 -3 -11 0 -18 7 -9 10 -8 11
6 5 10 -3 15 -9 12 -12z m970 -135 c7 -6 -1 -8 -24 -3 -18 3 -50 6 -70 7 -33
1 -34 2 -11 9 29 9 91 2 105 -13z"/>
<path d="M1470 1535 c-44 -43 -80 -83 -80 -89 0 -6 22 12 48 39 26 28 65 65
86 83 21 18 36 36 32 39 -3 3 -42 -29 -86 -72z"/>
<path d="M1685 874 c-6 -8 -35 -24 -65 -34 -30 -10 -46 -19 -34 -19 45 -2 124
37 124 61 0 13 -14 9 -25 -8z"/>
<path d="M1698 823 c6 -2 18 -2 25 0 6 3 1 5 -13 5 -14 0 -19 -2 -12 -5z"/>
<path d="M2290 876 c7 -7 13 -7 20 0 6 6 3 10 -10 10 -13 0 -16 -4 -10 -10z"/>
<path d="M1103 783 c9 -2 25 -2 35 0 9 3 1 5 -18 5 -19 0 -27 -2 -17 -5z"/>
<path d="M1418 767 c-29 -11 -38 -27 -15 -27 6 0 26 9 42 20 32 21 18 25 -27
7z"/>
<path d="M825 750 l-30 -8 35 0 c19 0 44 3 55 8 18 8 18 9 -5 8 -14 0 -38 -4
-55 -8z"/>
<path d="M1315 730 c-22 -5 -119 -16 -215 -26 -96 -9 -186 -21 -200 -26 -17
-5 -10 -6 25 -3 28 3 124 12 215 20 202 18 240 24 240 36 0 10 -9 10 -65 -1z"/>
<path d="M1410 702 c0 -10 -9 -28 -21 -41 -12 -12 -18 -25 -14 -29 9 -10 55
49 55 71 0 9 -4 17 -10 17 -5 0 -10 -8 -10 -18z"/>
<path d="M1289 560 c-31 -25 -12 -26 21 0 14 11 20 20 14 20 -7 0 -22 -9 -35
-20z"/>
<path d="M1835 510 c11 -5 29 -9 40 -9 17 -1 17 1 5 9 -8 5 -26 9 -40 9 -23 0
-23 -1 -5 -9z"/>
<path d="M1625 500 c-4 -7 6 -10 25 -8 41 3 50 18 11 18 -16 0 -33 -5 -36 -10z"/>
<path d="M1953 473 c-68 -6 -50 -23 25 -23 61 1 65 2 48 15 -11 8 -22 14 -25
13 -3 -1 -25 -3 -48 -5z"/>
<path d="M2055 459 c-5 -7 21 -8 86 -4 52 4 96 9 98 11 2 2 -37 4 -87 4 -54 0
-94 -4 -97 -11z"/>
<path d="M2350 460 c0 -5 12 -10 26 -10 14 0 23 4 19 10 -3 6 -15 10 -26 10
-10 0 -19 -4 -19 -10z"/>
<path d="M1725 414 l-50 -13 50 4 c27 3 54 10 59 15 13 13 4 12 -59 -6z"/>
<path d="M2486 412 c-3 -5 1 -9 9 -9 8 0 12 4 9 9 -3 4 -7 8 -9 8 -2 0 -6 -4
-9 -8z"/>
<path d="M3308 2889 c-52 -55 -41 -62 12 -9 73 73 62 26 -16 -67 -40 -47 -166
-160 -136 -121 8 9 10 23 6 29 -4 7 -3 9 4 5 9 -5 64 53 86 92 16 28 -6 9 -39
-34 -41 -55 -46 -51 -8 8 14 24 27 58 27 77 2 85 -67 23 -114 -101 -25 -66
-36 -85 -48 -80 -10 3 -13 1 -8 -6 4 -7 3 -12 -3 -12 -17 0 -132 45 -188 74
-34 17 -54 22 -58 15 -4 -6 -5 -11 -4 -12 2 -1 20 -11 39 -22 19 -10 77 -35
128 -55 l93 -36 -42 -28 c-90 -60 -159 -138 -159 -181 0 -14 3 -14 33 1 17 9
42 26 55 37 12 11 22 15 22 9 0 -6 -4 -14 -10 -17 -13 -8 -13 -62 1 -71 26
-15 116 119 152 228 6 17 47 15 47 -3 0 -15 40 -30 62 -23 16 5 18 8 7 15 -9
7 -5 7 14 3 16 -4 27 -2 27 5 0 17 -33 30 -88 33 -29 2 -52 4 -52 6 0 2 15 15
33 30 72 60 139 128 167 170 56 84 26 113 -42 41z m-68 -9 c0 -31 -115 -219
-126 -207 -8 8 55 163 77 191 20 26 49 35 49 16z m-187 -317 c-72 -84 -153
-143 -153 -113 0 26 184 189 198 175 3 -3 -17 -31 -45 -62z m22 -50 c-54 -100
-106 -149 -91 -87 10 37 39 74 53 69 8 -3 24 17 39 46 14 28 28 49 31 45 3 -3
-11 -36 -32 -73z m-15 34 c0 -2 -10 -12 -22 -23 l-23 -19 19 23 c18 21 26 27
26 19z"/>
<path d="M4630 2825 c-21 -26 -4 -109 44 -213 24 -53 40 -99 35 -100 -5 -2 -7
-8 -3 -13 8 -13 -7 -11 -36 6 -14 8 -32 14 -41 15 -18 0 -35 -43 -19 -48 6 -2
17 -10 25 -18 15 -15 60 -10 71 7 10 17 23 8 56 -38 67 -99 152 -174 178 -158
18 11 11 34 -21 70 l-31 35 52 -27 c54 -28 140 -38 147 -17 4 13 -29 30 -175
89 -56 24 -105 45 -108 48 -3 2 41 10 98 17 57 8 112 14 123 16 11 1 30 3 43
3 13 1 22 7 22 17 0 12 -6 15 -22 10 -53 -14 -272 -29 -276 -18 -2 6 -9 9 -15
6 -8 -3 -20 31 -36 98 -42 183 -78 252 -111 213z m44 -33 c17 -33 79 -272 73
-279 -3 -2 -25 37 -51 86 -44 86 -74 190 -61 211 11 17 24 11 39 -18z m-6
-327 c-3 -3 -9 2 -12 12 -6 14 -5 15 5 6 7 -7 10 -15 7 -18z m107 15 c3 -6 -1
-7 -9 -4 -18 7 -21 14 -7 14 6 0 13 -4 16 -10z m41 -66 c80 -67 114 -104 114
-120 0 -21 -16 -17 -53 15 -37 33 -132 151 -121 151 4 0 31 -21 60 -46z m68 0
c142 -61 191 -87 173 -91 -28 -7 -107 24 -182 72 -80 51 -78 56 9 19z"/>
<path d="M4457 2783 c-25 -24 39 -112 153 -206 82 -70 111 -86 69 -40 -16 18
-19 24 -8 20 23 -8 -52 116 -100 166 -49 52 -97 78 -114 60z m111 -77 c23 -25
48 -58 54 -74 7 -15 18 -35 27 -45 8 -9 11 -20 8 -23 -17 -17 -205 185 -191
207 9 15 57 -16 102 -65z"/>
<path d="M4440 2681 c0 -6 4 -13 10 -16 6 -3 7 1 4 9 -7 18 -14 21 -14 7z"/>
<path d="M3090 2430 c-9 -6 -10 -10 -3 -10 6 0 15 5 18 10 8 12 4 12 -15 0z"/>
<path d="M3762 2368 c-26 -26 1 -106 57 -170 45 -51 38 -56 -14 -10 -58 51
-129 85 -180 86 -34 1 -40 -2 -43 -21 -4 -25 27 -44 140 -87 34 -13 81 -32
103 -42 l40 -18 -30 -6 c-16 -4 -35 -2 -42 2 -8 6 -15 2 -23 -12 -12 -23 -6
-40 16 -40 8 0 14 -8 14 -17 1 -14 8 -9 30 17 19 21 33 31 39 25 5 -6 32 -39
61 -74 55 -70 104 -111 132 -111 25 0 23 31 -4 66 -17 21 -19 26 -6 21 72 -27
148 -31 148 -8 0 5 -15 18 -32 29 -40 24 -207 84 -222 79 -6 -2 26 -16 69 -32
44 -15 100 -37 125 -48 l45 -21 -33 -4 c-19 -2 -55 4 -82 14 -55 20 -140 78
-140 97 0 7 55 28 140 51 77 22 140 43 140 48 0 12 -10 11 -150 -26 -74 -20
-130 -30 -130 -24 0 5 -6 8 -14 5 -13 -5 -20 12 -55 149 -20 75 -67 114 -99
82z m56 -25 c20 -29 75 -206 61 -197 -4 2 -28 31 -52 64 -54 72 -75 124 -57
145 17 21 26 19 48 -12z m-92 -116 c16 -8 49 -31 74 -50 24 -20 49 -33 55 -30
5 3 5 0 -1 -6 -9 -10 -18 -10 -40 2 -16 8 -66 29 -112 47 -45 17 -89 39 -98
48 -15 15 -15 16 2 23 19 6 69 -8 120 -34z m177 -113 c4 -1 10 -2 13 -3 3 0 2
-6 -1 -11 -7 -12 -45 5 -45 21 0 6 5 7 13 2 6 -4 15 -8 20 -9z m121 -148 c40
-39 47 -51 34 -54 -10 -2 -29 5 -43 16 -27 21 -125 136 -125 147 0 9 76 -52
134 -109z"/>
<path d="M4720 2376 c0 -2 8 -10 18 -17 15 -13 16 -12 3 4 -13 16 -21 21 -21
13z"/>
<path d="M1529 2338 c-5 -18 -6 -38 -1 -34 7 8 12 36 6 36 -2 0 -4 -1 -5 -2z"/>
<path d="M3579 2323 c-13 -16 -12 -17 4 -4 16 13 21 21 13 21 -2 0 -10 -8 -17
-17z"/>
<path d="M4166 2247 c3 -10 9 -15 12 -12 3 3 0 11 -7 18 -10 9 -11 8 -5 -6z"/>
<path d="M1022 1996 c-1 -141 2 -257 7 -260 13 -8 35 215 26 270 -4 27 -8 88
-9 137 -2 48 -7 92 -12 97 -7 7 -11 -77 -12 -244z m20 -84 l-9 -57 -1 85 c0
69 1 80 10 57 7 -19 7 -47 0 -85z"/>
<path d="M920 2121 c0 -6 4 -13 10 -16 6 -3 7 1 4 9 -7 18 -14 21 -14 7z"/>
<path d="M380 1643 c0 -11 80 -76 86 -71 4 5 -71 78 -81 78 -3 0 -5 -3 -5 -7z"/>
<path d="M511 1535 c0 -13 106 -131 112 -125 3 3 -22 34 -54 70 -32 36 -59 61
-58 55z"/>
<path d="M2185 1441 c-3 -5 0 -13 6 -17 7 -4 9 -3 5 4 -3 5 0 13 6 15 9 4 10
6 1 6 -6 1 -14 -3 -18 -8z"/>
<path d="M2463 1365 c0 -8 4 -12 9 -9 5 3 6 10 3 15 -9 13 -12 11 -12 -6z"/>
<path d="M4557 1269 c-9 -6 -15 -14 -12 -19 3 -5 0 -12 -6 -16 -8 -4 -9 -3 -5
4 4 7 3 12 -1 12 -5 0 -25 -35 -46 -77 -20 -43 -37 -70 -37 -61 0 11 -19 27
-49 43 -27 13 -52 29 -56 35 -13 21 -21 8 -34 -51 -9 -44 -9 -65 -2 -72 14
-14 14 -44 -1 -49 -6 -2 4 -14 23 -25 18 -12 35 -21 36 -19 1 1 -6 20 -17 42
-21 43 -24 59 -21 119 1 37 3 38 16 21 7 -10 18 -15 24 -12 11 7 76 -22 68
-31 -3 -2 -17 3 -31 13 -15 9 -29 15 -31 12 -3 -3 11 -16 31 -29 26 -17 42
-39 55 -73 10 -28 16 -52 13 -55 -3 -3 -19 2 -35 12 -42 23 -52 22 -45 -8 5
-21 3 -25 -16 -25 -20 -1 -21 -2 -7 -13 8 -7 15 -22 15 -34 0 -21 -4 -22 -41
-17 -55 8 -86 32 -116 92 l-27 52 57 0 c40 0 52 3 41 10 -19 12 -130 13 -130
1 0 -4 9 -20 20 -34 11 -14 20 -29 20 -35 0 -5 9 -21 20 -35 15 -18 17 -27 8
-30 -8 -2 -2 -10 14 -17 l27 -13 -60 -28 c-62 -30 -70 -49 -19 -49 16 0 31 -4
34 -8 3 -5 -47 -6 -110 -4 -146 6 -347 -20 -469 -60 -108 -35 -135 -51 -135
-81 0 -21 1 -21 23 5 25 32 117 66 249 94 92 20 327 25 481 11 62 -6 87 -5 82
2 -3 7 3 11 15 11 15 0 20 -5 17 -14 -4 -10 5 -16 30 -21 19 -3 33 -8 32 -9
-2 -2 -35 -6 -74 -9 -44 -4 -59 -3 -40 2 19 6 23 9 11 10 -22 1 -86 -20 -86
-29 0 -3 56 -6 125 -8 69 -1 135 -6 147 -11 14 -5 -33 -6 -112 -3 -74 2 -133
2 -130 0 3 -3 73 -8 155 -12 l150 -6 -25 20 -25 21 30 -7 c40 -9 125 -52 125
-64 0 -5 -16 -6 -35 -3 -45 7 -47 -13 -3 -22 30 -7 31 -8 12 -22 -18 -13 -35
-12 -86 3 -10 3 -18 1 -18 -5 0 -6 12 -12 28 -12 55 -3 -63 -18 -145 -18 -89
-1 -180 -17 -202 -35 -17 -13 -129 -14 -153 0 -15 8 -14 14 13 53 32 48 34 57
19 66 -5 3 -10 -2 -10 -12 0 -11 -11 -34 -25 -53 -28 -38 -31 -55 -12 -64 6
-3 -35 -4 -91 -1 -57 3 -109 8 -114 11 -6 4 -13 2 -17 -4 -7 -11 -170 16 -221
37 -22 9 -19 10 24 10 69 1 51 12 -23 14 -63 2 -99 20 -72 36 11 7 9 10 -6 15
-26 8 -53 -2 -53 -20 0 -7 15 -21 33 -30 17 -9 35 -22 39 -28 4 -5 24 -16 45
-22 48 -15 12 -18 -40 -3 -21 5 -35 14 -32 20 8 12 -6 11 -25 -1 -23 -14 -8
-21 72 -31 40 -6 100 -15 133 -20 33 -5 109 -14 170 -20 60 -6 112 -13 114
-15 15 -14 -31 -19 -182 -18 -177 1 -181 1 -62 -13 l70 -8 -65 -6 c-54 -4 -43
-6 57 -7 79 -1 124 -6 129 -13 5 -8 -1 -10 -19 -5 -14 3 -29 2 -32 -4 -4 -6 8
-10 29 -10 22 0 36 5 36 13 0 8 3 9 8 1 4 -7 24 -8 57 -4 28 4 42 8 33 9 -10
0 -18 6 -18 11 0 6 -40 11 -97 12 -86 2 -89 2 -28 5 39 2 74 8 79 13 5 5 36 7
68 3 38 -4 58 -2 58 5 0 6 -6 13 -12 15 -7 3 2 6 21 6 l33 1 -38 -42 c-21 -24
-44 -48 -52 -54 -12 -9 -10 -14 12 -31 14 -12 26 -23 26 -25 0 -2 -20 -2 -45
0 -25 2 -45 0 -45 -6 0 -10 66 -23 137 -27 24 -1 51 -9 61 -18 11 -10 27 -14
42 -11 22 5 23 4 7 -6 -12 -8 -50 -11 -102 -8 -46 1 -78 -1 -72 -5 7 -5 -7 -6
-30 -4 -27 3 -43 1 -43 -6 0 -10 -77 -8 -360 7 -74 5 -78 4 -30 -4 30 -5 96
-11 145 -14 248 -15 280 -16 265 -6 -14 9 167 16 293 11 36 -2 47 1 41 10 -5
8 0 10 17 6 13 -3 62 -9 109 -14 l85 -8 -105 -6 c-98 -5 -94 -6 65 -8 94 -1
195 -3 225 -4 86 -1 430 6 482 11 27 2 45 8 42 13 -3 5 5 9 18 9 18 0 20 -2 8
-10 -24 -15 22 -13 91 5 33 9 64 13 68 10 17 -10 222 -14 216 -5 -4 6 -54 11
-113 11 -59 1 -96 3 -82 6 54 8 70 14 70 24 0 12 -35 8 -74 -7 -13 -5 -17 -4
-13 4 4 6 20 13 36 17 36 8 104 77 99 101 -2 11 -20 27 -41 37 -20 9 -37 21
-37 27 0 5 -9 14 -21 20 -21 12 -244 68 -282 72 -12 1 46 5 128 8 l150 6 -165
3 c-111 3 -150 6 -120 11 43 7 42 7 -22 8 -37 1 -70 -2 -73 -8 -3 -5 -18 -9
-33 -9 l-27 1 30 8 30 8 -30 1 c-16 1 -46 5 -65 10 -56 15 -120 20 -120 10 0
-5 8 -9 18 -9 9 0 24 -5 32 -10 10 -7 -20 -9 -92 -7 -102 2 -130 15 -38 18
l45 2 -45 7 c-25 4 -46 3 -48 -1 -2 -5 -8 -9 -13 -9 -4 0 -6 6 -3 14 3 7 -2
16 -12 20 -12 4 -15 2 -10 -9 3 -9 0 -15 -10 -15 -11 0 -14 -6 -10 -16 3 -8 2
-12 -4 -9 -13 8 -61 -6 -54 -16 3 -5 1 -9 -5 -9 -24 0 -17 18 15 35 23 12 33
23 29 35 -6 18 25 18 102 2 28 -6 43 -6 46 1 2 7 28 6 78 -2 40 -6 103 -14
139 -17 36 -2 117 -10 180 -16 143 -15 411 -14 465 1 38 10 37 10 -20 6 -130
-11 -242 -14 -195 -6 25 5 70 13 100 19 30 6 88 13 127 17 40 3 87 12 105 19
49 20 98 27 98 15 0 -6 5 -7 10 -4 21 13 8 23 -36 30 -27 4 -49 3 -53 -3 -13
-19 -69 -41 -104 -39 -41 2 -35 16 16 33 23 8 33 18 35 36 3 22 -3 28 -34 40
l-37 13 34 6 c27 5 22 7 -26 8 -62 1 -63 -7 -5 -29 51 -20 62 -30 49 -46 -16
-20 -66 -26 -141 -16 -38 5 -68 5 -68 2 0 -8 58 -19 105 -21 l30 -1 -32 -14
c-67 -29 -353 -65 -353 -44 0 5 8 10 18 13 9 2 -48 2 -128 0 -108 -4 -168 -1
-235 12 -119 21 -153 26 -137 19 29 -13 9 -21 -30 -11 -24 5 -59 9 -79 8 -22
-1 -42 6 -55 17 -11 11 -26 22 -34 25 -10 3 -8 6 7 6 12 1 23 -3 25 -8 2 -6
22 -12 46 -15 37 -4 41 -3 28 10 -8 7 -21 14 -28 14 -10 0 -10 2 1 9 8 5 -4 7
-32 4 -53 -6 -177 5 -177 16 0 4 26 4 58 0 31 -4 75 -7 97 -7 38 0 39 1 10 8
-16 4 -22 8 -12 9 9 0 17 5 17 9 0 4 16 9 37 9 24 1 31 -2 22 -8 -10 -6 -8 -8
8 -6 12 0 19 5 16 11 -4 5 1 7 11 3 10 -4 25 -7 34 -7 11 0 5 -8 -15 -21 -36
-23 -40 -31 -20 -47 11 -9 30 -8 200 12 20 2 35 0 31 -5 -3 -5 9 -9 26 -9 17
0 29 4 26 9 -6 9 36 16 161 27 85 8 90 24 5 18 -193 -13 -193 -13 -180 4 11
13 9 14 -17 8 -16 -4 -31 -12 -33 -17 -2 -5 -37 -9 -77 -9 -41 0 -77 -4 -80
-10 -3 -5 -16 -10 -28 -10 -22 0 -22 1 3 20 14 11 38 23 53 27 16 3 26 11 24
17 -5 11 53 21 283 47 106 11 255 11 345 -2 89 -12 111 -6 33 10 l-53 10 50
-5 c28 -2 75 -7 105 -11 79 -9 58 4 -25 15 -91 12 -547 -3 -640 -22 -38 -8
-72 -12 -75 -10 -2 3 5 7 17 10 12 3 23 14 26 25 3 10 16 23 29 28 13 5 37 20
54 34 16 13 45 34 64 46 l35 21 -45 0 c-25 0 -61 -4 -79 -10 -44 -12 -50 -6
-23 23 14 15 22 36 22 60 0 40 -6 46 -24 21 -10 -13 -124 -38 -134 -29 -2 2 1
13 8 24 14 28 9 173 -7 178 -6 2 -28 -14 -49 -37 l-38 -41 -13 53 c-8 29 -18
57 -24 63 -15 15 -40 -5 -78 -64 l-35 -53 -18 24 c-9 13 -18 37 -18 54 0 27
-15 54 -29 54 -4 0 -14 -5 -24 -11z m33 -39 c0 -12 11 -42 25 -68 32 -60 33
-115 3 -137 -22 -15 -24 -14 -36 16 -13 30 -14 31 -32 14 -22 -20 -26 -61 -9
-85 8 -11 9 -8 5 17 -3 21 0 35 9 43 13 10 15 8 15 -18 0 -41 -9 -62 -26 -62
-22 0 -74 89 -74 126 0 38 43 120 79 151 33 28 41 28 41 3z m170 -6 c17 -44
11 -91 -15 -130 -15 -22 -25 -30 -25 -20 0 22 -19 20 -44 -3 l-21 -20 -1 45
c0 24 2 44 6 44 4 0 13 14 20 30 16 37 48 80 61 80 5 0 14 -12 19 -26z m126
-61 c10 -68 -18 -145 -70 -189 -45 -39 -71 -46 -38 -11 27 29 29 57 3 57 -11
0 -23 -4 -26 -10 -3 -5 -10 -10 -16 -10 -15 0 -10 43 9 72 21 32 115 135 124
137 4 1 10 -20 14 -46z m-166 -170 c11 -48 10 -56 -9 -86 -22 -36 -57 -57 -96
-57 -17 0 -22 5 -20 18 1 9 -4 25 -12 34 -20 23 -10 63 24 91 15 12 40 34 57
49 35 30 38 28 56 -49z m300 32 c0 -14 -30 -62 -52 -82 -36 -33 -176 -87 -193
-73 -7 6 -25 8 -41 4 l-27 -7 19 25 c10 14 35 31 54 38 19 7 47 26 61 41 19
21 45 33 90 43 77 16 89 18 89 11z m-253 -52 c-9 -9 -19 -14 -22 -11 -3 3 2
13 11 22 9 9 19 14 22 11 3 -3 -2 -13 -11 -22z m-292 -13 c11 0 30 -7 42 -15
20 -14 53 -68 53 -87 0 -4 -29 -8 -65 -8 -74 0 -112 23 -101 63 3 12 6 35 6
50 0 27 1 28 22 13 12 -9 32 -16 43 -16z m635 -14 c0 -2 -22 -18 -48 -35 -39
-25 -59 -31 -103 -31 l-54 0 45 22 c25 12 68 27 95 34 61 14 65 15 65 10z
m-739 -76 c9 0 26 -9 39 -20 13 -11 35 -20 49 -21 23 -1 22 -2 -14 -20 -48
-22 -130 -24 -165 -4 -14 8 -37 14 -52 15 -31 0 -37 14 -10 24 75 28 100 34
117 31 11 -3 27 -5 36 -5z m424 -22 c17 1 66 4 110 7 l80 6 -39 -34 c-36 -32
-46 -35 -123 -41 -76 -6 -87 -5 -119 15 l-36 22 29 19 c17 11 36 16 48 12 11
-4 34 -6 50 -6z m-208 -33 c-6 -20 -73 -45 -121 -45 -57 0 -55 5 16 36 55 22
111 28 105 9z m55 -12 c2 -10 1 -29 -3 -43 -8 -29 -9 -28 -15 23 -5 37 10 53
18 20z m43 -13 c3 -5 1 -10 -4 -10 -6 0 -11 5 -11 10 0 6 2 10 4 10 3 0 8 -4
11 -10z m-83 -9 c-8 -4 -13 -12 -12 -17 1 -5 -3 -10 -9 -12 -15 -5 -14 25 2
31 20 9 33 7 19 -2z m-72 -31 c0 -5 -7 -10 -15 -10 -8 0 -15 5 -15 10 0 6 7
10 15 10 8 0 15 -4 15 -10z m-52 -37 c-16 -2 -40 -2 -55 0 -16 2 -3 4 27 4 30
0 43 -2 28 -4z m-928 -103 c0 -5 -2 -10 -4 -10 -3 0 -8 5 -11 10 -3 6 -1 10 4
10 6 0 11 -4 11 -10z m1777 4 c-3 -3 -12 -4 -19 -1 -8 3 -5 6 6 6 11 1 17 -2
13 -5z m-13 -100 c184 -41 232 -56 229 -71 -2 -7 15 -20 37 -29 44 -20 50 -36
20 -57 -11 -8 -18 -16 -15 -19 10 -10 -44 -38 -102 -53 -68 -18 -76 -18 -68
-5 8 13 2 13 -64 -4 -106 -27 -146 -32 -180 -24 -45 12 -75 5 -41 -10 37 -16
-52 -19 -260 -9 -112 6 -114 5 -55 -7 53 -12 55 -14 24 -15 -31 -1 -150 20
-249 45 -20 5 -22 4 -10 -6 12 -9 7 -10 -25 -6 -22 3 -53 6 -69 6 -21 0 -27 4
-22 15 4 11 -2 15 -27 14 -25 0 -28 -2 -13 -8 29 -11 7 -19 -39 -13 -32 4 -36
6 -20 13 14 5 2 8 -36 8 -92 1 -233 60 -215 90 4 6 16 11 26 11 10 0 22 5 26
11 4 8 -1 9 -17 4 l-24 -7 25 27 c32 34 65 51 115 60 22 4 58 13 80 20 42 14
238 39 290 38 61 -2 138 -36 161 -71 13 -18 25 -28 29 -22 9 14 -31 100 -46
100 -10 0 -10 -3 -1 -12 21 -21 13 -28 -15 -16 -16 7 -32 15 -36 19 -19 15
126 28 273 23 128 -4 182 -11 314 -40z m-904 20 c-47 -8 -93 -18 -102 -24 -13
-7 -18 -7 -18 1 0 6 -7 9 -15 5 -8 -3 -15 -2 -15 3 0 12 102 28 175 28 l60 1
-85 -14z m-487 -31 c-7 -2 -19 -2 -25 0 -7 3 -2 5 12 5 14 0 19 -2 13 -5z
m192 -3 c-3 -5 -36 -9 -73 -8 l-67 1 60 7 c33 4 66 7 73 8 7 1 10 -2 7 -8z
m258 -257 c-7 -2 -19 -2 -25 0 -7 3 -2 5 12 5 14 0 19 -2 13 -5z m1007 -2 c-8
-5 -33 -5 -55 -1 -40 8 -40 8 15 9 35 0 50 -3 40 -8z"/>
<path d="M4702 485 c20 -7 48 -21 62 -30 15 -10 26 -13 26 -6 0 15 -74 51
-102 50 -18 0 -15 -3 14 -14z"/>
<path d="M4395 480 c-7 -12 12 -12 40 0 18 8 17 9 -7 9 -15 1 -30 -3 -33 -9z"/>
<path d="M5033 453 c32 -2 81 -2 110 0 29 2 3 3 -58 3 -60 0 -84 -1 -52 -3z"/>
<path d="M4502 421 c-8 -4 52 -8 136 -7 83 1 145 4 139 8 -16 11 -259 10 -275
-1z"/>
<path d="M4836 421 c-7 -11 23 -18 84 -20 62 -2 158 -20 197 -36 18 -8 33 -10
33 -5 0 12 -83 35 -198 54 -108 19 -109 19 -116 7z"/>
<path d="M4355 410 c-26 -11 46 -11 90 0 26 7 23 8 -20 8 -27 0 -59 -3 -70 -8z"/>
<path d="M4850 383 c0 -12 38 -48 45 -41 3 2 -6 15 -20 28 -14 13 -25 19 -25
13z"/>
<path d="M5183 375 c0 -8 4 -12 9 -9 5 3 6 10 3 15 -9 13 -12 11 -12 -6z"/>
<path d="M4760 339 c-19 -16 -30 -29 -25 -29 14 0 71 47 65 53 -3 3 -21 -8
-40 -24z"/>
<path d="M4989 290 c14 -6 52 -13 85 -15 49 -4 54 -3 26 4 -19 5 -57 11 -85
15 -39 4 -45 4 -26 -4z"/>
<path d="M4666 1258 c3 -5 10 -6 15 -3 13 9 11 12 -6 12 -8 0 -12 -4 -9 -9z"/>
<path d="M1550 1183 c-14 -3 -29 -9 -35 -14 -9 -9 10 -8 115 6 8 1 29 -1 47
-6 18 -4 33 -3 33 1 0 15 -100 24 -160 13z"/>
<path d="M2239 1153 c-12 -15 -12 -16 4 -10 13 5 17 1 17 -18 0 -13 -4 -27
-10 -30 -5 -3 -10 -14 -10 -23 0 -11 7 -6 21 15 32 50 13 109 -22 66z"/>
<path d="M1685 1150 l-40 -7 48 -2 c26 0 47 4 47 9 0 6 -3 9 -7 9 -5 -1 -26
-5 -48 -9z"/>
<path d="M1800 1140 c20 -13 70 -13 70 0 0 6 -19 10 -42 10 -32 0 -39 -3 -28
-10z"/>
<path d="M2107 1143 c-12 -11 -8 -41 6 -46 10 -4 12 3 9 24 -5 31 -5 32 -15
22z"/>
<path d="M525 1131 c-16 -8 -13 -10 18 -10 36 -1 126 -39 127 -53 0 -5 -23 -8
-52 -8 -31 0 -48 -4 -42 -9 5 -5 35 -5 73 0 52 7 67 6 81 -6 18 -16 51 -22 35
-6 -6 5 -41 25 -80 45 -53 27 -64 35 -44 36 14 0 51 -16 83 -35 32 -19 56 -29
54 -22 -3 7 -27 25 -56 40 -55 30 -160 45 -197 28z"/>
<path d="M3270 1110 c-20 -6 -14 -8 28 -9 28 -1 52 3 52 9 0 12 -44 12 -80 0z"/>
<path d="M3614 1089 c-3 -5 53 -9 133 -9 76 0 163 -3 193 -6 30 -4 52 -3 48 1
-11 11 -40 14 -215 19 -86 2 -155 0 -159 -5z"/>
<path d="M2963 1083 c-24 -2 -43 -8 -43 -14 0 -5 4 -9 9 -9 5 0 17 -3 27 -7
12 -4 15 -3 10 5 -5 9 24 12 114 12 67 0 119 4 116 9 -6 9 -156 11 -233 4z"/>
<path d="M3808 1063 c7 -3 16 -2 19 1 4 3 -2 6 -13 5 -11 0 -14 -3 -6 -6z"/>
<path d="M455 1050 l-40 -7 42 -2 c23 0 45 4 48 9 3 6 3 9 -2 9 -4 -1 -26 -5
-48 -9z"/>
<path d="M640 1030 c-43 -7 -41 -7 23 -8 43 -1 66 2 62 8 -7 11 -16 11 -85 0z"/>
<path d="M3212 1036 c3 -4 42 -10 85 -12 43 -3 137 -11 210 -19 73 -8 165 -14
205 -13 47 1 57 3 28 5 -25 2 -110 10 -190 18 -199 20 -346 29 -338 21z"/>
<path d="M255 1020 c-16 -4 -49 -8 -72 -9 -41 -1 -64 -21 -25 -21 36 0 132 23
132 31 0 5 -1 8 -2 8 -2 -1 -16 -5 -33 -9z"/>
<path d="M435 1020 l-100 -6 108 -2 c70 -1 106 2 102 8 -3 6 -7 9 -8 8 -1 -1
-47 -5 -102 -8z"/>
<path d="M2740 1001 c0 -5 62 -9 138 -9 75 0 151 -5 167 -11 l30 -11 -24 20
c-21 18 -38 20 -167 20 -79 0 -144 -4 -144 -9z"/>
<path d="M2610 990 c-19 -12 42 -12 80 0 21 7 17 8 -20 9 -25 0 -52 -4 -60 -9z"/>
<path d="M520 982 c0 -12 104 -22 240 -23 58 -1 143 -4 190 -8 l85 -8 -80 -2
c-100 -3 -183 -14 -170 -22 6 -4 44 -3 85 1 41 5 122 11 180 14 58 4 119 10
135 15 30 9 30 9 -10 10 -403 8 -567 15 -627 27 -16 3 -28 1 -28 -4z"/>
<path d="M1260 962 c0 -4 21 -6 48 -4 75 5 82 10 15 11 -35 0 -63 -2 -63 -7z"/>
<path d="M2893 923 c9 -2 25 -2 35 0 9 3 1 5 -18 5 -19 0 -27 -2 -17 -5z"/>
<path d="M1035 901 c-3 -6 4 -9 15 -8 11 1 20 5 20 9 0 11 -28 10 -35 -1z"/>
<path d="M1080 900 c0 -5 22 -7 53 -3 71 8 72 13 4 13 -31 0 -57 -4 -57 -10z"/>
<path d="M2730 901 c0 -4 24 -6 53 -4 77 7 81 11 10 12 -35 1 -63 -3 -63 -8z"/>
<path d="M2970 893 c0 -5 41 -14 90 -19 50 -5 90 -6 90 -3 0 4 -28 10 -62 14
-35 3 -75 8 -90 11 -16 3 -28 2 -28 -3z"/>
<path d="M5183 875 c0 -8 4 -12 9 -9 5 3 6 10 3 15 -9 13 -12 11 -12 -6z"/>
<path d="M664 873 c3 -4 73 -6 154 -6 122 1 135 0 77 -7 -122 -14 -216 -19
-344 -20 -68 0 -122 -2 -119 -5 12 -12 111 -14 247 -5 259 17 313 23 300 31
-8 5 0 9 22 12 19 2 -51 5 -155 5 -104 1 -186 -1 -182 -5z"/>
<path d="M3920 873 c0 -5 46 -8 103 -9 75 -1 92 1 62 7 -51 10 -165 11 -165 2z"/>
<path d="M3410 851 c0 -7 22 -11 58 -11 31 0 87 -3 125 -7 42 -4 67 -2 67 4 0
6 -32 11 -72 12 -40 0 -97 4 -125 7 -36 4 -53 3 -53 -5z"/>
<path d="M5073 853 c15 -2 39 -2 55 0 15 2 2 4 -28 4 -30 0 -43 -2 -27 -4z"/>
<path d="M4073 833 c15 -2 39 -2 55 0 15 2 2 4 -28 4 -30 0 -43 -2 -27 -4z"/>
<path d="M3674 822 c3 -5 0 -13 -6 -15 -9 -4 -10 -6 -1 -6 17 -1 25 16 12 25
-7 4 -9 3 -5 -4z"/>
<path d="M3800 819 c-20 -4 10 -7 73 -8 69 -1 107 3 107 9 0 11 -114 10 -180
-1z"/>
<path d="M2674 796 c11 -9 27 -16 35 -16 21 0 2 16 -29 24 -24 7 -24 6 -6 -8z"/>
<path d="M3870 740 c0 -5 12 -10 28 -10 21 0 24 2 12 10 -20 13 -40 13 -40 0z"/>
<path d="M5380 709 c0 -5 15 -9 33 -9 17 0 43 -3 57 -6 18 -4 21 -3 10 4 -21
13 -100 22 -100 11z"/>
<path d="M4113 703 c15 -2 37 -2 50 0 12 2 0 4 -28 4 -27 0 -38 -2 -22 -4z"/>
<path d="M3190 690 l-125 -6 155 -2 c104 -2 150 -5 140 -12 -12 -8 -11 -10 8
-10 12 0 22 4 22 9 0 5 10 12 23 14 13 2 5 5 -18 6 -22 1 -49 3 -60 4 -11 2
-76 1 -145 -3z"/>
<path d="M3852 675 c-79 -7 -146 -16 -150 -20 -4 -4 22 -5 58 -1 141 14 266
17 240 6 -48 -21 -77 -60 -45 -60 8 0 12 6 9 13 -5 15 22 30 85 47 23 6 41 15
41 20 0 12 -52 11 -238 -5z"/>
<path d="M2605 674 c72 -8 155 -8 155 -1 0 4 -42 6 -92 5 -51 0 -79 -3 -63 -4z"/>
<path d="M484 658 c-7 -11 98 -10 115 1 9 6 -9 8 -48 7 -35 0 -65 -4 -67 -8z"/>
<path d="M2299 657 c6 -6 57 -12 113 -15 68 -2 100 -1 93 6 -5 5 -56 12 -113
14 -69 3 -100 2 -93 -5z"/>
<path d="M2935 660 c-232 -27 -362 -39 -437 -42 -103 -4 -119 -18 -20 -18 116
-1 216 -11 246 -26 16 -8 41 -13 55 -13 25 1 25 2 -4 9 -23 6 -11 8 48 10 42
1 82 4 87 5 6 1 22 4 38 6 15 2 -56 6 -158 9 l-185 5 232 29 c127 15 237 26
245 23 7 -3 -5 -6 -27 -7 -22 -1 -34 -4 -27 -7 7 -3 39 -2 70 3 51 7 54 8 27
15 -37 8 -111 8 -190 -1z"/>
<path d="M3230 653 c-36 -7 -119 -15 -184 -18 -139 -6 -166 -15 -46 -15 75 0
289 26 299 36 10 10 -8 9 -69 -3z"/>
<path d="M410 636 c0 -9 16 -19 43 -27 23 -6 60 -17 82 -25 23 -8 54 -13 70
-13 29 1 29 2 -5 8 -19 4 -44 12 -55 18 -11 6 -39 14 -63 18 -23 4 -49 13 -57
22 -13 13 -15 13 -15 -1z"/>
<path d="M2184 632 c3 -6 28 -13 54 -17 26 -3 62 -7 80 -10 17 -2 32 0 32 4 0
5 -31 11 -69 15 -38 3 -77 9 -87 13 -11 4 -15 3 -10 -5z"/>
<path d="M2370 610 c-12 -8 -10 -10 8 -10 13 0 20 4 17 10 -7 12 -6 12 -25 0z"/>
<path d="M4416 591 c-11 -4 -15 -10 -10 -13 5 -4 20 0 34 8 26 14 9 18 -24 5z"/>
<path d="M4495 580 c3 -5 18 -10 32 -10 32 0 28 5 -10 14 -19 4 -26 3 -22 -4z"/>
<path d="M2880 560 l-75 -6 85 -2 c47 -1 92 3 100 8 17 11 17 11 -110 0z"/>
<path d="M3010 536 c0 -2 7 -7 16 -10 8 -3 12 -2 9 4 -6 10 -25 14 -25 6z"/>
<path d="M5447 528 c6 -11 211 -10 217 0 3 5 -46 8 -108 8 -63 -1 -112 -4
-109 -8z"/>
<path d="M3645 480 c11 -5 40 -8 65 -8 l45 0 -40 9 c-22 4 -51 8 -65 8 -23 0
-23 -1 -5 -9z"/>
<path d="M634 472 c3 -5 17 -12 32 -15 30 -5 20 8 -15 18 -15 4 -21 3 -17 -3z"/>
<path d="M3775 469 c11 -4 52 -8 90 -8 89 1 74 6 -30 12 -44 2 -71 1 -60 -4z"/>
<path d="M731 466 c12 -10 59 -15 59 -6 0 5 -14 10 -32 10 -17 0 -29 -2 -27
-4z"/>
<path d="M821 454 c0 -11 3 -14 6 -6 3 7 2 16 -1 19 -3 4 -6 -2 -5 -13z"/>
<path d="M3948 453 c6 -2 18 -2 25 0 6 3 1 5 -13 5 -14 0 -19 -2 -12 -5z"/>
<path d="M590 440 c8 -5 20 -10 25 -10 6 0 3 5 -5 10 -8 5 -19 10 -25 10 -5 0
-3 -5 5 -10z"/>
<path d="M3427 427 c3 -5 -78 -6 -178 -3 -106 3 -170 2 -152 -3 17 -4 98 -9
180 -10 81 -1 195 -6 252 -11 58 -5 107 -8 109 -5 6 6 -36 14 -93 18 l-50 3
58 2 c96 3 64 19 -37 18 -52 -1 -92 -5 -89 -9z"/>
<path d="M5665 420 c17 -4 50 -5 75 -3 34 4 41 2 30 -6 -8 -6 -25 -11 -37 -11
-13 0 -23 -5 -23 -11 0 -11 21 -7 73 13 44 17 13 28 -73 27 -54 -1 -67 -3 -45
-9z"/>
<path d="M1050 305 c7 -8 23 -15 35 -15 13 0 77 -9 142 -19 153 -25 280 -33
368 -23 l70 7 -92 10 c-51 6 -93 7 -93 3 0 -5 19 -8 43 -9 23 0 36 -3 30 -6
-30 -12 -447 38 -485 58 -26 13 -32 11 -18 -6z"/>
<path d="M1250 295 c183 -25 227 -29 218 -20 -8 8 -314 45 -357 44 -20 -1 43
-12 139 -24z"/>
<path d="M5760 304 c-90 -16 -150 -34 -150 -46 0 -14 40 -9 46 6 3 8 38 18 95
26 49 7 89 17 89 21 0 5 -1 9 -2 8 -2 -1 -37 -7 -78 -15z"/>
<path d="M3726 298 c7 -10 191 -10 197 0 3 4 -41 7 -98 7 -57 0 -101 -3 -99
-7z"/>
<path d="M3963 293 c15 -2 37 -2 50 0 12 2 0 4 -28 4 -27 0 -38 -2 -22 -4z"/>
<path d="M3010 281 c0 -5 9 -7 20 -4 11 3 20 7 20 9 0 2 -9 4 -20 4 -11 0 -20
-4 -20 -9z"/>
<path d="M1630 233 c30 -3 57 -8 60 -14 4 -5 21 -6 41 -2 l34 7 -30 7 c-16 4
-59 6 -95 6 -64 -1 -64 -1 -10 -4z"/>
<path d="M3100 203 c-30 -2 -59 -9 -65 -15 -7 -7 4 -9 39 -4 27 3 62 6 77 6
16 0 29 5 29 10 0 6 -6 9 -12 8 -7 -1 -38 -3 -68 -5z"/>
<path d="M4185 200 c20 -8 122 -14 114 -6 -2 3 -33 7 -69 10 -43 4 -58 2 -45
-4z"/>
<path d="M2657 193 c-3 -4 54 -9 126 -11 74 -1 126 2 119 6 -17 11 -239 16
-245 5z"/>
<path d="M1878 183 c28 -2 76 -2 105 0 28 2 5 3 -53 3 -58 0 -81 -1 -52 -3z"/>
<path d="M2063 183 c9 -2 25 -2 35 0 9 3 1 5 -18 5 -19 0 -27 -2 -17 -5z"/>
<path d="M4370 171 c8 -6 40 -11 70 -11 58 0 100 -8 100 -19 0 -3 -10 -6 -22
-7 -13 0 -140 -4 -283 -10 -315 -11 -426 -10 -455 6 -12 6 -24 9 -27 7 -13
-13 49 -30 146 -39 137 -13 490 -3 606 17 96 17 327 13 333 -5 3 -9 152 -3
161 6 2 2 -30 4 -72 4 -48 0 -92 6 -118 16 -30 13 -58 15 -108 11 -37 -3 -87
-3 -112 1 -38 5 -41 7 -19 13 15 4 -8 7 -61 8 -48 1 -102 4 -120 7 -26 4 -30
3 -19 -5z m50 -57 c-35 -7 -148 -9 -144 -2 3 4 40 7 82 7 42 -1 70 -3 62 -5z
m-222 -11 c-38 -2 -98 -2 -135 0 -38 2 -7 3 67 3 74 0 105 -1 68 -3z"/>
<path d="M5051 176 c11 -9 219 -15 219 -6 0 6 -45 10 -112 10 -61 0 -109 -2
-107 -4z"/>
<path d="M4860 160 c-36 -4 -60 -8 -55 -9 21 -5 125 1 152 9 l28 8 -30 -1
c-16 0 -59 -3 -95 -7z"/>
<path d="M5323 163 c26 -2 68 -2 95 0 26 2 4 3 -48 3 -52 0 -74 -1 -47 -3z"/>
<path d="M5470 160 c0 -6 28 -10 63 -11 34 0 69 -2 77 -3 55 -11 171 -16 166
-7 -3 5 -50 12 -104 15 -53 4 -121 9 -149 11 -32 3 -53 1 -53 -5z"/>
<path d="M2330 150 c0 -5 7 -10 16 -10 8 0 12 5 9 10 -3 6 -10 10 -16 10 -5 0
-9 -4 -9 -10z"/>
<path d="M5060 140 c-67 -5 -34 -6 112 -6 115 1 208 4 208 9 0 8 -176 6 -320
-3z"/>
<path d="M2450 131 c134 -25 614 -38 857 -24 165 10 90 18 -104 11 -164 -6
-338 -2 -703 16 -68 4 -82 3 -50 -3z"/>
<path d="M3415 120 c3 -5 8 -10 11 -10 2 0 4 5 4 10 0 6 -5 10 -11 10 -5 0 -7
-4 -4 -10z"/>
<path d="M5448 118 c6 -6 18 -8 28 -6 14 3 12 5 -9 10 -19 3 -25 2 -19 -4z"/>
<path d="M1685 111 c-12 -5 10 -10 65 -14 47 -4 101 -9 120 -12 103 -15 500
-32 489 -21 -2 3 -54 7 -114 10 -340 18 -362 20 -470 37 -68 10 -64 10 -90 0z"/>
<path d="M5198 113 c46 -2 118 -2 160 0 42 1 5 3 -83 3 -88 0 -123 -2 -77 -3z"/>
<path d="M4558 103 c7 -3 16 -2 19 1 4 3 -2 6 -13 5 -11 0 -14 -3 -6 -6z"/>
<path d="M4215 10 l-40 -7 40 0 c22 -1 67 3 100 7 l60 7 -60 0 c-33 0 -78 -3
-100 -7z"/>
</g>
</svg>
